<svg xmlns="http://www.w3.org/2000/svg" xmlns:xlink="http://www.w3.org/1999/xlink" x="0px" y="0px" viewBox="0 0 512 512" enable-background="new 0 0 512 512" xml:space="preserve">
<rect fill="#FFE620" width="512" height="512"/>
<g>
	<rect fill="#FF3B30" width="512" height="170.7"/>
	<rect y="341.3" fill="#FF3B30" width="512" height="170.7"/>
</g>
<path fill="#FF3B30" d="M269,260.2l8.2-33.4c0.8-3.1-1.8-6-5.3-6h-5.8c-3.5,0-6.1,2.9-5.3,6L269,260.2z"/>
<rect x="259.4" y="242.8" fill="#F2F4FF" width="19.3" height="74.4"/>
<rect x="254.6" y="234.1" fill="#FF9500" width="29" height="8.8"/>
<g>
	<rect x="235.2" y="260.2" fill="#FF3B30" width="48.3" height="8.8"/>
	<polygon fill="#FF3B30" points="283.5,295.2 254.6,286.7 254.6,277.8 283.5,286.7 	"/>
	<path fill="#FF3B30" d="M124.1,260.2l8.2-33.4c0.8-3.1-1.8-6-5.3-6h-5.8c-3.5,0-6.1,2.9-5.3,6L124.1,260.2z"/>
</g>
<path fill="#F2F4FF" d="M157.9,234.1c-5.3,0-9.7,3.9-9.7,8.8v56.9c0,10.6,11,30.6,48.3,30.6s48.3-20,48.3-30.6v-56.9
	c0-4.8-4.3-8.8-9.7-8.8L157.9,234.1L157.9,234.1z"/>
<g>
	<path fill="#FF3B30" d="M196.6,277.8h-48.3v-34.6c0-5.1,4.1-9.2,9.2-9.2h39.1V277.8L196.6,277.8z"/>
	<path fill="#FF3B30" d="M196.6,277.8h48.3v20.8c0,12.7-10.3,23-23,23h-2.3c-12.7,0-23-10.3-23-23V277.8L196.6,277.8z"/>
</g>
<path fill="#FF9500" d="M148.3,277.8h48.3v20.8c0,12.7-10.3,23-23,23h-2.3c-12.7,0-23-10.3-23-23
	C148.3,298.7,148.3,277.8,148.3,277.8z"/>
<g>
	<path fill="#FF3B30" d="M186.9,317.2v-39.3h-9.7v43.3C180.9,320.5,184.1,319,186.9,317.2z"/>
	<path fill="#FF3B30" d="M167.6,321.2V278h-9.7v39.3C160.8,319,164,320.5,167.6,321.2z"/>
</g>
<rect x="157.9" y="260.2" fill="#FF9500" width="29" height="8.8"/>
<g>
	<rect x="157.9" y="242.8" fill="#FF9500" width="29" height="8.8"/>
	<rect x="162.8" y="248.1" fill="#FF9500" width="19.3" height="15.9"/>
</g>
<rect x="114.5" y="242.8" fill="#F2F4FF" width="19.3" height="74.4"/>
<g>
	<rect x="109.6" y="312.8" fill="#FF9500" width="29" height="8.8"/>
	<rect x="109.6" y="234.1" fill="#FF9500" width="29" height="8.8"/>
</g>
<rect x="104.8" y="321.7" fill="#2094FA" width="38.6" height="8.8"/>
<rect x="259.4" y="312.8" fill="#FF9500" width="29" height="8.8"/>
<rect x="249.7" y="321.7" fill="#2094FA" width="38.6" height="8.8"/>
<rect x="167.6" y="225.2" fill="#FF9500" width="58" height="8.8"/>
<rect x="191.8" y="199.1" fill="#FFB441" width="9.7" height="26.3"/>
<g>
	<path fill="#F2F4FF" d="M186.9,212.1c-8,0-14.5-5.9-14.5-13.1s6.5-13.1,14.5-13.1s14.5,5.9,14.5,13.1S194.9,212.1,186.9,212.1z
		 M186.9,194.6c-2.7,0-4.8,2-4.8,4.4s2.2,4.4,4.8,4.4c2.7,0,4.8-2,4.8-4.4C191.8,196.6,189.6,194.6,186.9,194.6z"/>
	<path fill="#F2F4FF" d="M206.3,212.1c-8,0-14.5-5.9-14.5-13.1s6.5-13.1,14.5-13.1s14.5,5.9,14.5,13.1
		C220.7,206.2,214.2,212.1,206.3,212.1z M206.3,194.6c-2.7,0-4.8,2-4.8,4.4s2.2,4.4,4.8,4.4c2.7,0,4.8-2,4.8-4.4
		S208.9,194.6,206.3,194.6z"/>
	<path fill="#F2F4FF" d="M225.6,220.8c-8,0-14.5-5.9-14.5-13.1s6.5-13.1,14.5-13.1s14.5,5.9,14.5,13.1S233.6,220.8,225.6,220.8z
		 M225.6,203.3c-2.7,0-4.8,2-4.8,4.4s2.2,4.4,4.8,4.4c2.7,0,4.8-2,4.8-4.4S228.2,203.3,225.6,203.3z"/>
	<path fill="#F2F4FF" d="M167.6,220.8c-8,0-14.5-5.9-14.5-13.1s6.5-13.1,14.5-13.1s14.5,5.9,14.5,13.1S175.6,220.8,167.6,220.8z
		 M167.6,203.3c-2.7,0-4.8,2-4.8,4.4s2.2,4.4,4.8,4.4s4.8-2,4.8-4.4S170.3,203.3,167.6,203.3z"/>
</g>
<path fill="#FF9500" d="M225.6,295.2v4.4c0,2.4-2.2,4.4-4.8,4.4s-4.8-2-4.8-4.4v-4.4H225.6 M235.2,286.7h-29v13.1
	c0,7.2,6.5,13.1,14.5,13.1s14.5-5.9,14.5-13.1V286.7L235.2,286.7z"/>
<path opacity="0.5" fill="#FA114F" enable-background="new    " d="M221.2,269.2h-0.9c-5.1,0-9.2-4.1-9.2-9.2v-7.9
	c0-5.1,4.1-9.2,9.2-9.2h0.9c5.1,0,9.2,4.1,9.2,9.2v7.9C230.4,265,226.3,269.2,221.2,269.2z"/>
<ellipse fill="#2094FA" cx="196.6" cy="277.8" rx="14.5" ry="13.1"/>
<rect x="191.8" y="181.6" fill="#FF9500" width="9.7" height="26.3"/>
<path fill="#FF3B30" d="M167.6,225.2l-9.7-8.8l5.7-5.1c8.7-7.9,20.6-12.4,33-12.4l0,0c12.4,0,24.2,4.5,33,12.4l5.7,5.1l-9.7,8.8
	H167.6z"/>
<g>
	<ellipse fill="#FFE620" cx="196.6" cy="216.6" rx="4.8" ry="4.4"/>
	<ellipse fill="#FFE620" cx="177.3" cy="216.6" rx="4.8" ry="4.4"/>
	<ellipse fill="#FFE620" cx="215.9" cy="216.6" rx="4.8" ry="4.4"/>
</g>
<g>
	<rect x="109.6" y="260.2" fill="#FF3B30" width="48.3" height="8.8"/>
	<polygon fill="#FF3B30" points="109.6,295.2 138.6,286.7 138.6,277.8 109.6,286.7 	"/>
</g>
</svg>
