<?xml version="1.0" encoding="utf-8"?>
<!-- Generator: Adobe Illustrator 21.1.0, SVG Export Plug-In . SVG Version: 6.00 Build 0)  -->
<svg version="1.1" id="Layer_1" xmlns="http://www.w3.org/2000/svg" xmlns:xlink="http://www.w3.org/1999/xlink" x="0px" y="0px"
	 viewBox="0 0 336 144" style="enable-background:new 0 0 336 144;" xml:space="preserve">
<style type="text/css">
	.st0{fill:none;}
	.st1{display:none;fill:#333333;}
	.st2{display:none;fill:#F2F2F2;}
	.st3{fill:#555555;}
	.st4{display:none;}
	.st5{display:inline;fill:#888888;}
	.st6{opacity:0.15;fill:#5AC8FA;enable-background:new    ;}
	.st7{fill:#5AC8FA;}
	.st8{display:none;fill:#FFFFFF;}
	.st9{opacity:0.14;enable-background:new    ;}
	.st10{fill:#CECECE;}
	.st11{fill:#F9F9F9;}
	.st12{fill:#D0D0D0;}
	.st13{fill:#B1B1B1;}
	.st14{opacity:0.14;fill:#FFCC00;enable-background:new    ;}
	.st15{fill:#FFCC00;}
	.st16{display:inline;}
	.st17{fill:#888888;}
	.st18{display:none;fill:#DFDFDF;}
	.st19{display:none;fill:#888888;enable-background:new    ;}
	.st20{font-family:'ProximaNova-Semibold';}
	.st21{font-size:12px;}
	.st22{enable-background:new    ;}
	.st23{fill:#D2D2D2;}
	.st24{display:none;fill:#D2D2D2;}
</style>
<rect class="st0" width="336" height="144"/>
<rect class="st1" width="336" height="144"/>
<rect class="st2" width="336" height="144"/>
<g>
	<rect x="167" y="46" class="st3" width="2" height="52"/>
</g>
<g class="st4">
	<rect x="168" y="22" class="st5" width="96" height="4"/>
</g>
<g class="st4">
	<rect x="168" y="118" class="st5" width="96" height="4"/>
</g>
<path class="st6" d="M192,24c0-13.3-10.7-24-24-24s-24,10.7-24,24s10.7,24,24,24S192,37.3,192,24z"/>
<g>
	<path class="st7" d="M168,2c12.1,0,22,9.9,22,22s-9.9,22-22,22s-22-9.9-22-22S155.9,2,168,2 M168,0c-13.3,0-24,10.7-24,24
		s10.7,24,24,24s24-10.7,24-24S181.3,0,168,0L168,0z"/>
</g>
<path class="st8" d="M120,101c-8.8,0-16-7.2-16-16s7.2-16,16-16s16,7.2,16,16S128.8,101,120,101z"/>
<path class="st9" d="M168,4c-11,0-20,9-20,20s9,20,20,20s20-9,20-20S179,4,168,4z M168,42c-9.9,0-18-8.1-18-18s8.1-18,18-18
	s18,8.1,18,18S177.9,42,168,42z"/>
<g>
	<path class="st10" d="M176.6,24.3L168,10l-0.2,0.6v18.5l0.2,0.2L176.6,24.3z"/>
	<path class="st11" d="M168,29.3V10l-8.6,14.3L168,29.3z"/>
	<path class="st12" d="M167.9,37.7L168,38l8.6-12.1L168,31l-0.1,0.1V37.7z"/>
	<path class="st11" d="M168,31l-8.6-5.1L168,38V31z"/>
	<path class="st13" d="M168,29.3l8.6-5.1l-8.6-3.8V29.3z"/>
	<path class="st10" d="M168,20.4l-8.6,3.9l8.6,5.1V20.4z"/>
</g>
<path class="st14" d="M192,120c0-13.3-10.7-24-24-24s-24,10.7-24,24s10.7,24,24,24S192,133.3,192,120z"/>
<g>
	<path class="st15" d="M168,98c12.1,0,22,9.9,22,22s-9.9,22-22,22s-22-9.9-22-22S155.9,98,168,98 M168,96c-13.3,0-24,10.7-24,24
		s10.7,24,24,24s24-10.7,24-24S181.3,96,168,96L168,96z"/>
</g>
<path class="st8" d="M216,101c-8.8,0-16-7.2-16-16s7.2-16,16-16s16,7.2,16,16S224.8,101,216,101z"/>
<path class="st9" d="M168,100c-11,0-20,9-20,20s9,20,20,20s20-9,20-20S179,100,168,100z M168,138c-9.9,0-18-8.1-18-18s8.1-18,18-18
	s18,8.1,18,18S177.9,138,168,138z"/>
<g>
	<path class="st10" d="M176.6,120.3L168,106l-0.2,0.6v18.5l0.2,0.2L176.6,120.3z"/>
	<path class="st11" d="M168,125.3V106l-8.6,14.3L168,125.3z"/>
	<path class="st12" d="M167.9,133.7l0.1,0.3l8.6-12.1L168,127l-0.1,0.1V133.7z"/>
	<path class="st11" d="M168,127l-8.6-5.1L168,134V127z"/>
	<path class="st13" d="M168,125.3l8.6-5.1l-8.6-3.9V125.3z"/>
	<path class="st10" d="M168,116.4l-8.6,3.9l8.6,5.1V116.4z"/>
</g>
<g class="st4">
	<g id="surface1_5_" class="st16">
		<path class="st17" d="M113,85l7-11l7,11l-7,4L113,85z"/>
		<path class="st17" d="M120,74l7,11l-7,4V74z"/>
		<path class="st17" d="M113,86.5l7,4l7-4l-7,9.5L113,86.5z"/>
		<path class="st17" d="M120,90.5l7-4l-7,9.5V90.5z"/>
		<path class="st17" d="M113,85l7-3l7,3l-7,4L113,85z"/>
		<path class="st17" d="M120,82l7,3l-7,4V82z"/>
	</g>
	<g id="surface1_1_" class="st16">
		<path class="st17" d="M209,85l7-11l7,11l-7,4L209,85z"/>
		<path class="st17" d="M216,74l7,11l-7,4V74z"/>
		<path class="st17" d="M209,86.5l7,4l7-4l-7,9.5L209,86.5z"/>
		<path class="st17" d="M216,90.5l7-4l-7,9.5V90.5z"/>
		<path class="st17" d="M209,85l7-3l7,3l-7,4L209,85z"/>
		<path class="st17" d="M216,82l7,3l-7,4V82z"/>
	</g>
</g>
<rect x="144" y="57" class="st18" width="48" height="8"/>
<text transform="matrix(1 0 0 1 275.8728 76.7036)" class="st19 st20 st21">0.08 ETH</text>
<g class="st22">
	<path class="st17" d="M277.1,73.4c-0.1-0.4-0.1-0.8-0.1-1.2c0-0.4,0-0.8,0.1-1.2c0.1-0.4,0.2-0.8,0.4-1.1c0.2-0.4,0.4-0.7,0.6-0.9
		s0.5-0.5,0.9-0.6c0.4-0.2,0.8-0.2,1.2-0.2s0.8,0.1,1.2,0.2c0.4,0.2,0.7,0.4,0.9,0.6s0.5,0.6,0.6,0.9c0.2,0.4,0.3,0.7,0.4,1.1
		c0.1,0.4,0.1,0.8,0.1,1.2c0,0.4,0,0.8-0.1,1.2c-0.1,0.4-0.2,0.8-0.4,1.1c-0.2,0.4-0.4,0.7-0.6,0.9c-0.2,0.3-0.5,0.5-0.9,0.6
		c-0.4,0.2-0.8,0.2-1.2,0.2s-0.8-0.1-1.2-0.2c-0.4-0.2-0.7-0.4-0.9-0.6c-0.2-0.3-0.5-0.6-0.6-0.9C277.3,74.2,277.2,73.8,277.1,73.4z
		 M278.5,71.1c-0.1,0.3-0.1,0.7-0.1,1.1c0,0.4,0,0.8,0.1,1.1c0.1,0.3,0.2,0.6,0.3,0.9c0.1,0.3,0.3,0.5,0.6,0.7
		c0.2,0.2,0.5,0.2,0.8,0.2c0.3,0,0.6-0.1,0.8-0.2c0.2-0.2,0.4-0.4,0.6-0.7c0.1-0.3,0.2-0.6,0.3-0.9c0.1-0.3,0.1-0.7,0.1-1.1
		c0-0.4,0-0.8-0.1-1.1s-0.2-0.6-0.3-0.9c-0.1-0.3-0.3-0.5-0.6-0.6c-0.2-0.2-0.5-0.2-0.8-0.2c-0.3,0-0.6,0.1-0.8,0.2
		c-0.2,0.2-0.4,0.4-0.6,0.6S278.6,70.8,278.5,71.1z"/>
	<path class="st17" d="M284.2,75.5c0-0.2,0.1-0.4,0.2-0.5c0.2-0.2,0.3-0.2,0.6-0.2c0.2,0,0.4,0.1,0.6,0.2c0.2,0.2,0.2,0.3,0.2,0.5
		s-0.1,0.4-0.2,0.6c-0.2,0.2-0.3,0.2-0.6,0.2c-0.2,0-0.4-0.1-0.6-0.2C284.3,75.9,284.2,75.8,284.2,75.5z"/>
	<path class="st17" d="M286.8,73.4c-0.1-0.4-0.1-0.8-0.1-1.2c0-0.4,0-0.8,0.1-1.2c0.1-0.4,0.2-0.8,0.4-1.1c0.2-0.4,0.4-0.7,0.6-0.9
		s0.5-0.5,0.9-0.6c0.4-0.2,0.8-0.2,1.2-0.2s0.8,0.1,1.2,0.2c0.4,0.2,0.7,0.4,0.9,0.6s0.5,0.6,0.6,0.9c0.2,0.4,0.3,0.7,0.4,1.1
		c0.1,0.4,0.1,0.8,0.1,1.2c0,0.4,0,0.8-0.1,1.2c-0.1,0.4-0.2,0.8-0.4,1.1c-0.2,0.4-0.4,0.7-0.6,0.9c-0.2,0.3-0.5,0.5-0.9,0.6
		c-0.4,0.2-0.8,0.2-1.2,0.2s-0.8-0.1-1.2-0.2c-0.4-0.2-0.7-0.4-0.9-0.6c-0.2-0.3-0.5-0.6-0.6-0.9C287,74.2,286.9,73.8,286.8,73.4z
		 M288.3,71.1c-0.1,0.3-0.1,0.7-0.1,1.1c0,0.4,0,0.8,0.1,1.1c0.1,0.3,0.2,0.6,0.3,0.9c0.1,0.3,0.3,0.5,0.6,0.7
		c0.2,0.2,0.5,0.2,0.8,0.2c0.3,0,0.6-0.1,0.8-0.2c0.2-0.2,0.4-0.4,0.6-0.7c0.1-0.3,0.2-0.6,0.3-0.9c0.1-0.3,0.1-0.7,0.1-1.1
		c0-0.4,0-0.8-0.1-1.1s-0.2-0.6-0.3-0.9c-0.1-0.3-0.3-0.5-0.6-0.6c-0.2-0.2-0.5-0.2-0.8-0.2c-0.3,0-0.6,0.1-0.8,0.2
		c-0.2,0.2-0.4,0.4-0.6,0.6S288.3,70.8,288.3,71.1z"/>
	<path class="st17" d="M294.1,74.1c0-0.5,0.2-0.9,0.5-1.3c0.3-0.4,0.8-0.6,1.3-0.8c-0.5-0.2-0.9-0.4-1.2-0.7
		c-0.3-0.3-0.5-0.7-0.5-1.2c0-0.4,0.1-0.7,0.3-0.9c0.2-0.3,0.4-0.5,0.7-0.7c0.3-0.2,0.6-0.3,0.9-0.4s0.7-0.1,1.1-0.1
		c0.3,0,0.6,0,0.8,0.1c0.3,0,0.5,0.1,0.8,0.2c0.3,0.1,0.5,0.2,0.7,0.4s0.3,0.4,0.5,0.6c0.1,0.2,0.2,0.5,0.2,0.8
		c0,0.5-0.2,0.9-0.5,1.2s-0.7,0.6-1.2,0.7c0.5,0.2,1,0.4,1.3,0.8c0.3,0.4,0.5,0.8,0.5,1.3c0,0.5-0.1,0.9-0.4,1.2
		c-0.3,0.3-0.7,0.6-1.1,0.8c-0.5,0.2-1,0.2-1.5,0.2c-0.6,0-1.1-0.1-1.5-0.2c-0.5-0.2-0.8-0.4-1.1-0.7
		C294.3,75,294.1,74.6,294.1,74.1z M295.5,74c0,0.3,0.2,0.6,0.5,0.8c0.3,0.2,0.7,0.3,1.2,0.3c0.5,0,0.9-0.1,1.2-0.3
		c0.3-0.2,0.5-0.5,0.5-0.8c0-0.2-0.1-0.4-0.2-0.5s-0.3-0.3-0.5-0.4c-0.2-0.1-0.4-0.2-0.5-0.2s-0.3-0.1-0.5-0.1c-0.1,0-0.2,0-0.4,0.1
		c-0.1,0-0.3,0.1-0.4,0.2s-0.3,0.2-0.4,0.2c-0.1,0.1-0.2,0.2-0.3,0.3C295.6,73.7,295.5,73.8,295.5,74z M295.7,70.4
		c0,0.2,0.1,0.3,0.2,0.5c0.1,0.1,0.2,0.3,0.4,0.3s0.3,0.2,0.5,0.2c0.1,0,0.3,0.1,0.5,0.1c0.2,0,0.3-0.1,0.4-0.1
		c0.1,0,0.3-0.1,0.5-0.2s0.3-0.2,0.4-0.3c0.1-0.1,0.2-0.3,0.2-0.5c0-0.3-0.1-0.6-0.4-0.8c-0.3-0.2-0.6-0.3-1.1-0.3
		c-0.4,0-0.8,0.1-1.1,0.3C295.8,69.8,295.7,70,295.7,70.4z"/>
	<path class="st17" d="M304.7,76.2v-8h5.5v1.2h-4.1v2.1h4v1.2h-4V75h4.1v1.2H304.7z"/>
	<path class="st17" d="M311.1,69.4v-1.2h6.3v1.2h-2.4v6.8h-1.4v-6.8H311.1z"/>
	<path class="st17" d="M318.5,76.2v-8h1.4v3.3h4.2v-3.3h1.4v8h-1.4v-3.5h-4.2v3.5H318.5z"/>
</g>
<polygon class="st23" points="210,24 216,30 216,18 "/>
<path class="st24" d="M216,23v2c26,0,47,21,47,47h2C265,44.9,243.1,23,216,23z"/>
<path class="st24" d="M216,119v2c27.1,0,49-21.9,49-49h-2C263,98,242,119,216,119z"/>
<path class="st17" d="M216,23v-5l-6,6l6,6v-5c26,0,47,21,47,47s-21,47-47,47v2c27.1,0,49-21.9,49-49S243.1,23,216,23z"/>
</svg>
