<?xml version="1.0" encoding="utf-8"?>
<!-- Generator: Adobe Illustrator 21.1.0, SVG Export Plug-In . SVG Version: 6.00 Build 0)  -->
<svg version="1.1" id="Layer_1" xmlns="http://www.w3.org/2000/svg" xmlns:xlink="http://www.w3.org/1999/xlink" x="0px" y="0px"
	 viewBox="0 0 336 240" style="enable-background:new 0 0 336 240;" xml:space="preserve">
<style type="text/css">
	.st0{fill:none;}
	.st1{display:none;fill:#333333;}
	.st2{display:none;fill:#F2F2F2;}
	.st3{fill:#555555;}
	.st4{opacity:0.15;fill:#5AC8FA;enable-background:new    ;}
	.st5{fill:#5AC8FA;}
	.st6{opacity:0.14;enable-background:new    ;}
	.st7{fill:#CECECE;}
	.st8{fill:#F9F9F9;}
	.st9{fill:#D0D0D0;}
	.st10{fill:#B1B1B1;}
	.st11{opacity:0.14;fill:#FFCC00;enable-background:new    ;}
	.st12{fill:#FFCC00;}
	.st13{opacity:0.14;fill:#4CD964;enable-background:new    ;}
	.st14{fill:#4CD964;}
	.st15{display:none;fill:#888888;enable-background:new    ;}
	.st16{font-family:'ProximaNova-Semibold';}
	.st17{font-size:12px;}
	.st18{enable-background:new    ;}
	.st19{fill:#888888;}
	.st20{fill:#D2D2D2;}
</style>
<rect class="st0" width="336" height="240"/>
<rect class="st1" width="336" height="240"/>
<rect class="st2" width="336" height="240"/>
<g>
	<rect x="167" y="46" class="st3" width="2" height="52"/>
</g>
<g>
	<rect x="167" y="142" class="st3" width="2" height="52"/>
</g>
<path class="st4" d="M192,24c0-13.3-10.7-24-24-24s-24,10.7-24,24s10.7,24,24,24S192,37.3,192,24z"/>
<path class="st5" d="M168,2c12.1,0,22,9.9,22,22s-9.9,22-22,22s-22-9.9-22-22S155.9,2,168,2 M168,0c-13.3,0-24,10.7-24,24
	s10.7,24,24,24s24-10.7,24-24S181.3,0,168,0L168,0z"/>
<path class="st6" d="M168,4c-11,0-20,9-20,20s9,20,20,20s20-9,20-20S179,4,168,4z M168,42c-9.9,0-18-8.1-18-18s8.1-18,18-18
	s18,8.1,18,18S177.9,42,168,42z"/>
<g>
	<path class="st7" d="M176.6,24.3L168,10l-0.2,0.6v18.5l0.2,0.2L176.6,24.3z"/>
	<path class="st8" d="M168,29.3V10l-8.6,14.3L168,29.3z"/>
	<path class="st9" d="M167.9,37.7L168,38l8.6-12.1L168,31l-0.1,0.1V37.7z"/>
	<path class="st8" d="M168,31l-8.6-5.1L168,38V31z"/>
	<path class="st10" d="M168,29.3l8.6-5.1l-8.6-3.8V29.3z"/>
	<path class="st7" d="M168,20.4l-8.6,3.9l8.6,5.1V20.4z"/>
</g>
<path class="st11" d="M192,120c0-13.3-10.7-24-24-24s-24,10.7-24,24s10.7,24,24,24S192,133.3,192,120z"/>
<path class="st12" d="M168,98c12.1,0,22,9.9,22,22s-9.9,22-22,22s-22-9.9-22-22S155.9,98,168,98 M168,96c-13.3,0-24,10.7-24,24
	s10.7,24,24,24s24-10.7,24-24S181.3,96,168,96L168,96z"/>
<path class="st6" d="M168,100c-11,0-20,9-20,20s9,20,20,20s20-9,20-20S179,100,168,100z M168,138c-9.9,0-18-8.1-18-18s8.1-18,18-18
	s18,8.1,18,18S177.9,138,168,138z"/>
<g>
	<path class="st7" d="M176.6,120.3L168,106l-0.2,0.6v18.5l0.2,0.2L176.6,120.3z"/>
	<path class="st8" d="M168,125.3V106l-8.6,14.3L168,125.3z"/>
	<path class="st9" d="M167.9,133.7l0.1,0.3l8.6-12.1L168,127l-0.1,0.1V133.7z"/>
	<path class="st8" d="M168,127l-8.6-5.1L168,134V127z"/>
	<path class="st10" d="M168,125.3l8.6-5.1l-8.6-3.9V125.3z"/>
	<path class="st7" d="M168,116.4l-8.6,3.9l8.6,5.1V116.4z"/>
</g>
<path class="st13" d="M192,216c0-13.3-10.7-24-24-24s-24,10.7-24,24s10.7,24,24,24S192,229.3,192,216z"/>
<path class="st14" d="M168,194c12.1,0,22,9.9,22,22s-9.9,22-22,22s-22-9.9-22-22S155.9,194,168,194 M168,192c-13.3,0-24,10.7-24,24
	s10.7,24,24,24s24-10.7,24-24S181.3,192,168,192L168,192z"/>
<path class="st6" d="M168,196c-11,0-20,9-20,20s9,20,20,20s20-9,20-20S179,196,168,196z M168,234c-9.9,0-18-8.1-18-18s8.1-18,18-18
	s18,8.1,18,18S177.9,234,168,234z"/>
<g>
	<path class="st7" d="M176.6,216.3L168,202l-0.2,0.6v18.5l0.2,0.2L176.6,216.3z"/>
	<path class="st8" d="M168,221.3V202l-8.6,14.3L168,221.3z"/>
	<path class="st9" d="M167.9,229.7l0.1,0.3l8.6-12.1L168,223l-0.1,0.1V229.7z"/>
	<path class="st8" d="M168,223l-8.6-5.1L168,230V223z"/>
	<path class="st10" d="M168,221.3l8.6-5.1l-8.6-3.9V221.3z"/>
	<path class="st7" d="M168,212.4l-8.6,3.9l8.6,5.1V212.4z"/>
</g>
<text transform="matrix(1 0 0 1 276.9998 178.4008)" class="st15 st16 st17">0.08 ETH</text>
<g class="st18">
	<path class="st19" d="M277.1,169.3c-0.1-0.4-0.1-0.8-0.1-1.2s0-0.8,0.1-1.2c0.1-0.4,0.2-0.8,0.4-1.1c0.2-0.4,0.4-0.7,0.6-0.9
		s0.5-0.5,0.9-0.6c0.4-0.2,0.8-0.2,1.2-0.2s0.8,0.1,1.2,0.2c0.4,0.2,0.7,0.4,0.9,0.6s0.5,0.6,0.6,0.9c0.2,0.4,0.3,0.7,0.4,1.1
		c0.1,0.4,0.1,0.8,0.1,1.2s0,0.8-0.1,1.2c-0.1,0.4-0.2,0.8-0.4,1.1c-0.2,0.4-0.4,0.7-0.6,0.9c-0.2,0.3-0.5,0.5-0.9,0.6
		c-0.4,0.2-0.8,0.2-1.2,0.2s-0.8-0.1-1.2-0.2c-0.4-0.2-0.7-0.4-0.9-0.6c-0.2-0.3-0.5-0.6-0.6-0.9
		C277.3,170.1,277.2,169.7,277.1,169.3z M278.5,167c-0.1,0.3-0.1,0.7-0.1,1.1s0,0.8,0.1,1.1c0.1,0.3,0.2,0.6,0.3,0.9
		s0.3,0.5,0.6,0.6c0.2,0.2,0.5,0.2,0.8,0.2c0.3,0,0.6-0.1,0.8-0.2c0.2-0.2,0.4-0.4,0.6-0.6c0.1-0.3,0.2-0.6,0.3-0.9s0.1-0.7,0.1-1.1
		s0-0.8-0.1-1.1s-0.2-0.6-0.3-0.9c-0.1-0.3-0.3-0.5-0.6-0.6c-0.2-0.2-0.5-0.2-0.8-0.2c-0.3,0-0.6,0.1-0.8,0.2
		c-0.2,0.2-0.4,0.4-0.6,0.6S278.6,166.7,278.5,167z"/>
	<path class="st19" d="M284.2,171.4c0-0.2,0.1-0.4,0.2-0.5c0.2-0.2,0.3-0.2,0.6-0.2c0.2,0,0.4,0.1,0.6,0.2c0.2,0.2,0.2,0.3,0.2,0.5
		c0,0.2-0.1,0.4-0.2,0.6c-0.2,0.2-0.3,0.2-0.6,0.2c-0.2,0-0.4-0.1-0.6-0.2C284.3,171.8,284.2,171.7,284.2,171.4z"/>
	<path class="st19" d="M286.8,169.3c-0.1-0.4-0.1-0.8-0.1-1.2s0-0.8,0.1-1.2c0.1-0.4,0.2-0.8,0.4-1.1c0.2-0.4,0.4-0.7,0.6-0.9
		s0.5-0.5,0.9-0.6c0.4-0.2,0.8-0.2,1.2-0.2s0.8,0.1,1.2,0.2c0.4,0.2,0.7,0.4,0.9,0.6s0.5,0.6,0.6,0.9c0.2,0.4,0.3,0.7,0.4,1.1
		c0.1,0.4,0.1,0.8,0.1,1.2s0,0.8-0.1,1.2c-0.1,0.4-0.2,0.8-0.4,1.1c-0.2,0.4-0.4,0.7-0.6,0.9c-0.2,0.3-0.5,0.5-0.9,0.6
		c-0.4,0.2-0.8,0.2-1.2,0.2s-0.8-0.1-1.2-0.2c-0.4-0.2-0.7-0.4-0.9-0.6c-0.2-0.3-0.5-0.6-0.6-0.9C287,170.1,286.9,169.7,286.8,169.3
		z M288.3,167c-0.1,0.3-0.1,0.7-0.1,1.1s0,0.8,0.1,1.1c0.1,0.3,0.2,0.6,0.3,0.9s0.3,0.5,0.6,0.6c0.2,0.2,0.5,0.2,0.8,0.2
		c0.3,0,0.6-0.1,0.8-0.2c0.2-0.2,0.4-0.4,0.6-0.6c0.1-0.3,0.2-0.6,0.3-0.9s0.1-0.7,0.1-1.1s0-0.8-0.1-1.1s-0.2-0.6-0.3-0.9
		c-0.1-0.3-0.3-0.5-0.6-0.6c-0.2-0.2-0.5-0.2-0.8-0.2c-0.3,0-0.6,0.1-0.8,0.2c-0.2,0.2-0.4,0.4-0.6,0.6S288.3,166.7,288.3,167z"/>
	<path class="st19" d="M294.1,170c0-0.5,0.2-0.9,0.5-1.3c0.3-0.4,0.8-0.6,1.3-0.8c-0.5-0.2-0.9-0.4-1.2-0.7
		c-0.3-0.3-0.5-0.7-0.5-1.2c0-0.4,0.1-0.7,0.3-0.9c0.2-0.3,0.4-0.5,0.7-0.7c0.3-0.2,0.6-0.3,0.9-0.4s0.7-0.1,1.1-0.1
		c0.3,0,0.6,0,0.8,0.1c0.3,0,0.5,0.1,0.8,0.2c0.3,0.1,0.5,0.2,0.7,0.4s0.3,0.4,0.5,0.6c0.1,0.2,0.2,0.5,0.2,0.8
		c0,0.5-0.2,0.9-0.5,1.2s-0.7,0.6-1.2,0.7c0.5,0.2,1,0.4,1.3,0.8s0.5,0.8,0.5,1.3c0,0.5-0.1,0.9-0.4,1.2c-0.3,0.3-0.7,0.6-1.1,0.8
		c-0.5,0.2-1,0.2-1.5,0.2c-0.6,0-1.1-0.1-1.5-0.2s-0.8-0.4-1.1-0.7S294.1,170.5,294.1,170z M295.5,169.9c0,0.3,0.2,0.6,0.5,0.8
		s0.7,0.3,1.2,0.3c0.5,0,0.9-0.1,1.2-0.3s0.5-0.5,0.5-0.8c0-0.2-0.1-0.4-0.2-0.5c-0.1-0.2-0.3-0.3-0.5-0.4c-0.2-0.1-0.4-0.2-0.5-0.2
		s-0.3-0.1-0.5-0.1c-0.1,0-0.2,0-0.4,0.1c-0.1,0-0.3,0.1-0.4,0.2c-0.2,0.1-0.3,0.2-0.4,0.2c-0.1,0.1-0.2,0.2-0.3,0.3
		C295.6,169.6,295.5,169.7,295.5,169.9z M295.7,166.3c0,0.2,0.1,0.3,0.2,0.5c0.1,0.1,0.2,0.3,0.4,0.3s0.3,0.2,0.5,0.2
		c0.1,0,0.3,0.1,0.5,0.1c0.2,0,0.3-0.1,0.4-0.1c0.1,0,0.3-0.1,0.5-0.2s0.3-0.2,0.4-0.3c0.1-0.1,0.2-0.3,0.2-0.5
		c0-0.3-0.1-0.6-0.4-0.8c-0.3-0.2-0.6-0.3-1.1-0.3c-0.4,0-0.8,0.1-1.1,0.3C295.8,165.7,295.7,165.9,295.7,166.3z"/>
	<path class="st19" d="M304.7,172.1v-8h5.5v1.2h-4.1v2.1h4v1.2h-4v2.2h4.1v1.2H304.7z"/>
	<path class="st19" d="M311.1,165.3v-1.2h6.3v1.2h-2.4v6.8h-1.4v-6.8H311.1z"/>
	<path class="st19" d="M318.5,172.1v-8h1.4v3.3h4.2v-3.3h1.4v8h-1.4v-3.5h-4.2v3.5H318.5z"/>
</g>
<polygon class="st20" points="210,120 216,126 216,114 "/>
<path class="st20" d="M216,119v2c26,0,47,21,47,47h2C265,140.9,243.1,119,216,119z"/>
<path class="st20" d="M216,215v2c27.1,0,49-21.9,49-49h-2C263,194,242,215,216,215z"/>
<path class="st19" d="M216,119v-5l-6,6l6,6v-5c26,0,47,21,47,47s-21,47-47,47v2c27.1,0,49-21.9,49-49S243.1,119,216,119z"/>
</svg>
