<?xml version="1.0" encoding="utf-8"?>
<!-- Generator: Adobe Illustrator 21.1.0, SVG Export Plug-In . SVG Version: 6.00 Build 0)  -->
<svg version="1.1" id="Layer_1" xmlns="http://www.w3.org/2000/svg" xmlns:xlink="http://www.w3.org/1999/xlink" x="0px" y="0px"
	 viewBox="0 0 336 240" style="enable-background:new 0 0 336 240;" xml:space="preserve">
<style type="text/css">
	.st0{fill:none;}
	.st1{display:none;fill:#333333;}
	.st2{fill:#555555;}
	.st3{opacity:0.15;fill:#5AC8FA;}
	.st4{fill:#5AC8FA;}
	.st5{opacity:0.14;enable-background:new    ;}
	.st6{fill:#CECECE;}
	.st7{fill:#F9F9F9;}
	.st8{fill:#D0D0D0;}
	.st9{fill:#B1B1B1;}
	.st10{opacity:0.14;fill:#FFE620;}
	.st11{fill:#FFE620;}
	.st12{opacity:0.14;fill:#04DE71;}
	.st13{fill:#04DE71;}
</style>
<rect class="st0" width="336" height="240"/>
<rect class="st1" width="336" height="240"/>
<g>
	<path class="st2" d="M168,98c0.3,0,0.7,0,1,0V46c-0.3,0-0.7,0-1,0s-0.7,0-1,0V98C167.3,98,167.7,98,168,98z"/>
	<path class="st2" d="M151.8,134.8l-64.9,64.9c0.5,0.4,1,0.9,1.4,1.4l64.9-64.9C152.7,135.8,152.2,135.3,151.8,134.8z"/>
	<path class="st2" d="M249.2,199.8l-64.9-64.9c-0.4,0.5-0.9,1-1.4,1.4l64.9,64.9C248.2,200.7,248.7,200.2,249.2,199.8z"/>
</g>
<path class="st3" d="M192,24c0-13.3-10.7-24-24-24s-24,10.7-24,24s10.7,24,24,24S192,37.3,192,24z"/>
<path class="st4" d="M168,2c12.1,0,22,9.9,22,22s-9.9,22-22,22s-22-9.9-22-22S155.9,2,168,2 M168,0c-13.3,0-24,10.7-24,24
	s10.7,24,24,24s24-10.7,24-24S181.3,0,168,0L168,0z"/>
<path class="st5" d="M168,4c-11,0-20,9-20,20s9,20,20,20s20-9,20-20S179,4,168,4z M168,42c-9.9,0-18-8.1-18-18s8.1-18,18-18
	s18,8.1,18,18S177.9,42,168,42z"/>
<g>
	<path class="st6" d="M176.6,24.3L168,10l-0.2,0.6v18.5l0.2,0.2L176.6,24.3z"/>
	<path class="st7" d="M168,29.3V10l-8.6,14.3L168,29.3z"/>
	<path class="st8" d="M167.9,37.7L168,38l8.6-12.1L168,31l-0.1,0.1V37.7z"/>
	<path class="st7" d="M168,31l-8.6-5.1L168,38V31z"/>
	<path class="st9" d="M168,29.3l8.6-5.1l-8.6-3.8V29.3z"/>
	<path class="st6" d="M168,20.4l-8.6,3.9l8.6,5.1V20.4z"/>
</g>
<path class="st10" d="M192,120c0-13.3-10.7-24-24-24s-24,10.7-24,24s10.7,24,24,24S192,133.3,192,120z"/>
<path class="st11" d="M168,98c12.1,0,22,9.9,22,22s-9.9,22-22,22s-22-9.9-22-22S155.9,98,168,98 M168,96c-13.3,0-24,10.7-24,24
	s10.7,24,24,24s24-10.7,24-24S181.3,96,168,96L168,96z"/>
<path class="st5" d="M168,100c-11,0-20,9-20,20s9,20,20,20s20-9,20-20S179,100,168,100z M168,138c-9.9,0-18-8.1-18-18s8.1-18,18-18
	s18,8.1,18,18S177.9,138,168,138z"/>
<g>
	<path class="st6" d="M176.6,120.3L168,106l-0.2,0.6v18.5l0.2,0.2L176.6,120.3z"/>
	<path class="st7" d="M168,125.3V106l-8.6,14.3L168,125.3z"/>
	<path class="st8" d="M167.9,133.7l0.1,0.3l8.6-12.1L168,127l-0.1,0.1V133.7z"/>
	<path class="st7" d="M168,127l-8.6-5.1L168,134V127z"/>
	<path class="st9" d="M168,125.3l8.6-5.1l-8.6-3.9V125.3z"/>
	<path class="st6" d="M168,116.4l-8.6,3.9l8.6,5.1V116.4z"/>
</g>
<path class="st12" d="M288,216c0-13.3-10.7-24-24-24s-24,10.7-24,24s10.7,24,24,24S288,229.3,288,216z"/>
<path class="st13" d="M264,194c12.1,0,22,9.9,22,22s-9.9,22-22,22s-22-9.9-22-22S251.9,194,264,194 M264,192c-13.3,0-24,10.7-24,24
	s10.7,24,24,24s24-10.7,24-24S277.3,192,264,192L264,192z"/>
<path class="st5" d="M264,196c-11,0-20,9-20,20s9,20,20,20s20-9,20-20S275,196,264,196z M264,234c-9.9,0-18-8.1-18-18s8.1-18,18-18
	s18,8.1,18,18S273.9,234,264,234z"/>
<g>
	<path class="st6" d="M272.6,216.3L264,202l-0.2,0.6v18.5l0.2,0.2L272.6,216.3z"/>
	<path class="st7" d="M264,221.3V202l-8.6,14.3L264,221.3z"/>
	<path class="st8" d="M263.9,229.7l0.1,0.3l8.6-12.1L264,223l-0.1,0.1V229.7z"/>
	<path class="st7" d="M264,223l-8.6-5.1L264,230V223z"/>
	<path class="st9" d="M264,221.3l8.6-5.1l-8.6-3.9V221.3z"/>
	<path class="st6" d="M264,212.4l-8.6,3.9l8.6,5.1V212.4z"/>
</g>
<path class="st12" d="M96,216c0-13.3-10.7-24-24-24s-24,10.7-24,24s10.7,24,24,24S96,229.3,96,216z"/>
<path class="st13" d="M72,194c12.1,0,22,9.9,22,22s-9.9,22-22,22s-22-9.9-22-22S59.9,194,72,194 M72,192c-13.3,0-24,10.7-24,24
	s10.7,24,24,24s24-10.7,24-24S85.3,192,72,192L72,192z"/>
<path class="st5" d="M72,196c-11,0-20,9-20,20s9,20,20,20s20-9,20-20S83,196,72,196z M72,234c-9.9,0-18-8.1-18-18s8.1-18,18-18
	s18,8.1,18,18S81.9,234,72,234z"/>
<g>
	<path class="st6" d="M80.6,216.3L72,202l-0.2,0.6v18.5l0.2,0.2L80.6,216.3z"/>
	<path class="st7" d="M72,221.3V202l-8.6,14.3L72,221.3z"/>
	<path class="st8" d="M71.9,229.7L72,230l8.6-12.1L72,223l-0.1,0.1V229.7z"/>
	<path class="st7" d="M72,223l-8.6-5.1L72,230V223z"/>
	<path class="st9" d="M72,221.3l8.6-5.1l-8.6-3.9C72,212.3,72,221.3,72,221.3z"/>
	<path class="st6" d="M72,212.4l-8.6,3.9l8.6,5.1V212.4z"/>
</g>
</svg>
