<?xml version="1.0" encoding="utf-8"?>
<!-- Generator: Adobe Illustrator 21.1.0, SVG Export Plug-In . SVG Version: 6.00 Build 0)  -->
<svg version="1.1" id="Layer_1" xmlns="http://www.w3.org/2000/svg" xmlns:xlink="http://www.w3.org/1999/xlink" x="0px" y="0px"
	 viewBox="0 0 432 432" style="enable-background:new 0 0 432 432;" xml:space="preserve">
<style type="text/css">
	.st0{fill:none;}
	.st1{display:none;fill:#333333;}
	.st2{fill:#555555;}
	.st3{opacity:0.15;fill:#5AC8FA;enable-background:new    ;}
	.st4{fill:#5AC8FA;}
	.st5{opacity:0.14;enable-background:new    ;}
	.st6{fill:#CECECE;}
	.st7{fill:#F9F9F9;}
	.st8{fill:#D0D0D0;}
	.st9{fill:#B1B1B1;}
	.st10{opacity:0.14;fill:#FFE620;enable-background:new    ;}
	.st11{fill:#FFE620;}
	.st12{opacity:0.14;fill:#04DE71;enable-background:new    ;}
	.st13{fill:#04DE71;}
</style>
<rect x="48" class="st0" width="336" height="240"/>
<rect class="st1" width="432" height="432"/>
<g>
	<path class="st2" d="M216,98c0.3,0,0.7,0,1,0V46c-0.3,0-0.7,0-1,0s-0.7,0-1,0v52C215.3,98,215.7,98,216,98z"/>
	<path class="st2" d="M199.8,134.8l-64.9,64.9c0.5,0.4,1,0.9,1.4,1.4l64.9-64.9C200.7,135.8,200.2,135.3,199.8,134.8z"/>
	<path class="st2" d="M120,238c-0.3,0-0.7,0-1,0v52c0.3,0,0.7,0,1,0s0.7,0,1,0v-52C120.7,238,120.3,238,120,238z"/>
	<path class="st2" d="M103.8,230.8l-64.9,64.9c0.5,0.4,1,0.9,1.4,1.4l64.9-64.9C104.7,231.8,104.2,231.3,103.8,230.8z"/>
	<path class="st2" d="M393.2,295.8l-64.9-64.9c-0.4,0.5-0.9,1-1.4,1.4l64.9,64.9C392.2,296.7,392.7,296.2,393.2,295.8z"/>
	<path class="st2" d="M312,238c-0.3,0-0.7,0-1,0v52c0.3,0,0.7,0,1,0s0.7,0,1,0v-52C312.7,238,312.3,238,312,238z"/>
	<path class="st2" d="M297.2,199.8l-64.9-64.9c-0.4,0.5-0.9,1-1.4,1.4l64.9,64.9C296.2,200.7,296.7,200.2,297.2,199.8z"/>
</g>
<path class="st3" d="M240,24c0-13.3-10.7-24-24-24s-24,10.7-24,24s10.7,24,24,24S240,37.3,240,24z"/>
<path class="st4" d="M216,2c12.1,0,22,9.9,22,22s-9.9,22-22,22s-22-9.9-22-22S203.9,2,216,2 M216,0c-13.3,0-24,10.7-24,24
	s10.7,24,24,24s24-10.7,24-24S229.3,0,216,0L216,0z"/>
<path class="st5" d="M216,4c-11,0-20,9-20,20s9,20,20,20s20-9,20-20S227,4,216,4z M216,42c-9.9,0-18-8.1-18-18s8.1-18,18-18
	s18,8.1,18,18S225.9,42,216,42z"/>
<g>
	<path class="st6" d="M224.6,24.3L216,10l-0.2,0.6v18.5l0.2,0.2L224.6,24.3z"/>
	<path class="st7" d="M216,29.3V10l-8.6,14.3L216,29.3z"/>
	<path class="st8" d="M215.9,37.7L216,38l8.6-12.1L216,31l-0.1,0.1V37.7z"/>
	<path class="st7" d="M216,31l-8.6-5.1L216,38V31z"/>
	<path class="st9" d="M216,29.3l8.6-5.1l-8.6-3.8V29.3z"/>
	<path class="st6" d="M216,20.4l-8.6,3.9l8.6,5.1V20.4z"/>
</g>
<path class="st10" d="M240,120c0-13.3-10.7-24-24-24s-24,10.7-24,24s10.7,24,24,24S240,133.3,240,120z"/>
<path class="st11" d="M216,98c12.1,0,22,9.9,22,22s-9.9,22-22,22s-22-9.9-22-22S203.9,98,216,98 M216,96c-13.3,0-24,10.7-24,24
	s10.7,24,24,24s24-10.7,24-24S229.3,96,216,96L216,96z"/>
<path class="st5" d="M216,100c-11,0-20,9-20,20s9,20,20,20s20-9,20-20S227,100,216,100z M216,138c-9.9,0-18-8.1-18-18s8.1-18,18-18
	s18,8.1,18,18S225.9,138,216,138z"/>
<g>
	<path class="st6" d="M224.6,120.3L216,106l-0.2,0.6v18.5l0.2,0.2L224.6,120.3z"/>
	<path class="st7" d="M216,125.3V106l-8.6,14.3L216,125.3z"/>
	<path class="st8" d="M215.9,133.7l0.1,0.3l8.6-12.1L216,127l-0.1,0.1V133.7z"/>
	<path class="st7" d="M216,127l-8.6-5.1L216,134V127z"/>
	<path class="st9" d="M216,125.3l8.6-5.1l-8.6-3.9V125.3z"/>
	<path class="st6" d="M216,116.4l-8.6,3.9l8.6,5.1V116.4z"/>
</g>
<path class="st12" d="M336,216c0-13.3-10.7-24-24-24s-24,10.7-24,24s10.7,24,24,24S336,229.3,336,216z"/>
<path class="st13" d="M312,194c12.1,0,22,9.9,22,22s-9.9,22-22,22s-22-9.9-22-22S299.9,194,312,194 M312,192c-13.3,0-24,10.7-24,24
	s10.7,24,24,24s24-10.7,24-24S325.3,192,312,192L312,192z"/>
<path class="st5" d="M312,196c-11,0-20,9-20,20s9,20,20,20s20-9,20-20S323,196,312,196z M312,234c-9.9,0-18-8.1-18-18s8.1-18,18-18
	s18,8.1,18,18S321.9,234,312,234z"/>
<g>
	<path class="st6" d="M320.6,216.3L312,202l-0.2,0.6v18.5l0.2,0.2L320.6,216.3z"/>
	<path class="st7" d="M312,221.3V202l-8.6,14.3L312,221.3z"/>
	<path class="st8" d="M311.9,229.7l0.1,0.3l8.6-12.1L312,223l-0.1,0.1V229.7z"/>
	<path class="st7" d="M312,223l-8.6-5.1L312,230V223z"/>
	<path class="st9" d="M312,221.3l8.6-5.1l-8.6-3.9V221.3z"/>
	<path class="st6" d="M312,212.4l-8.6,3.9l8.6,5.1V212.4z"/>
</g>
<path class="st12" d="M144,216c0-13.3-10.7-24-24-24s-24,10.7-24,24s10.7,24,24,24S144,229.3,144,216z"/>
<path class="st13" d="M120,194c12.1,0,22,9.9,22,22s-9.9,22-22,22s-22-9.9-22-22S107.9,194,120,194 M120,192c-13.3,0-24,10.7-24,24
	s10.7,24,24,24s24-10.7,24-24S133.3,192,120,192L120,192z"/>
<path class="st5" d="M120,196c-11,0-20,9-20,20s9,20,20,20s20-9,20-20S131,196,120,196z M120,234c-9.9,0-18-8.1-18-18s8.1-18,18-18
	s18,8.1,18,18S129.9,234,120,234z"/>
<g>
	<path class="st6" d="M128.6,216.3L120,202l-0.2,0.6v18.5l0.2,0.2L128.6,216.3z"/>
	<path class="st7" d="M120,221.3V202l-8.6,14.3L120,221.3z"/>
	<path class="st8" d="M119.9,229.7l0.1,0.3l8.6-12.1L120,223l-0.1,0.1V229.7z"/>
	<path class="st7" d="M120,223l-8.6-5.1L120,230V223z"/>
	<path class="st9" d="M120,221.3l8.6-5.1l-8.6-3.9C120,212.3,120,221.3,120,221.3z"/>
	<path class="st6" d="M120,212.4l-8.6,3.9l8.6,5.1V212.4z"/>
</g>
<path class="st12" d="M144,312c0-13.3-10.7-24-24-24s-24,10.7-24,24s10.7,24,24,24S144,325.3,144,312z"/>
<path class="st13" d="M120,290c12.1,0,22,9.9,22,22s-9.9,22-22,22s-22-9.9-22-22S107.9,290,120,290 M120,288c-13.3,0-24,10.7-24,24
	s10.7,24,24,24s24-10.7,24-24S133.3,288,120,288L120,288z"/>
<path class="st5" d="M120,292c-11,0-20,9-20,20s9,20,20,20s20-9,20-20S131,292,120,292z M120,330c-9.9,0-18-8.1-18-18s8.1-18,18-18
	s18,8.1,18,18S129.9,330,120,330z"/>
<g>
	<path class="st6" d="M128.6,312.3L120,298l-0.2,0.6v18.5l0.2,0.2L128.6,312.3z"/>
	<path class="st7" d="M120,317.3V298l-8.6,14.3L120,317.3z"/>
	<path class="st8" d="M119.9,325.7l0.1,0.3l8.6-12.1L120,319l-0.1,0.1V325.7z"/>
	<path class="st7" d="M120,319l-8.6-5.1L120,326V319z"/>
	<path class="st9" d="M120,317.3l8.6-5.1l-8.6-3.9C120,308.3,120,317.3,120,317.3z"/>
	<path class="st6" d="M120,308.4l-8.6,3.9l8.6,5.1V308.4z"/>
</g>
<g>
	<rect x="23" y="334" class="st2" width="2" height="52"/>
</g>
<path class="st12" d="M48,408c0-13.3-10.7-24-24-24S0,394.7,0,408s10.7,24,24,24S48,421.3,48,408z"/>
<path class="st13" d="M24,386c12.1,0,22,9.9,22,22s-9.9,22-22,22s-22-9.9-22-22S11.9,386,24,386 M24,384c-13.3,0-24,10.7-24,24
	s10.7,24,24,24s24-10.7,24-24S37.3,384,24,384L24,384z"/>
<path class="st5" d="M24,388c-11,0-20,9-20,20s9,20,20,20s20-9,20-20S35,388,24,388z M24,426c-9.9,0-18-8.1-18-18s8.1-18,18-18
	s18,8.1,18,18S33.9,426,24,426z"/>
<g>
	<path class="st6" d="M32.6,408.3L24,394l-0.2,0.6v18.5l0.2,0.2L32.6,408.3z"/>
	<path class="st7" d="M24,413.3V394l-8.6,14.3L24,413.3z"/>
	<path class="st8" d="M23.9,421.7L24,422l8.6-12.1L24,415l-0.1,0.1V421.7z"/>
	<path class="st7" d="M24,415l-8.6-5.1L24,422V415z"/>
	<path class="st9" d="M24,413.3l8.6-5.1l-8.6-3.9C24,404.3,24,413.3,24,413.3z"/>
	<path class="st6" d="M24,404.4l-8.6,3.9l8.6,5.1V404.4z"/>
</g>
<path class="st12" d="M336,312c0-13.3-10.7-24-24-24s-24,10.7-24,24s10.7,24,24,24S336,325.3,336,312z"/>
<path class="st13" d="M312,290c12.1,0,22,9.9,22,22s-9.9,22-22,22s-22-9.9-22-22S299.9,290,312,290 M312,288c-13.3,0-24,10.7-24,24
	s10.7,24,24,24s24-10.7,24-24S325.3,288,312,288L312,288z"/>
<path class="st5" d="M312,292c-11,0-20,9-20,20s9,20,20,20s20-9,20-20S323,292,312,292z M312,330c-9.9,0-18-8.1-18-18s8.1-18,18-18
	s18,8.1,18,18S321.9,330,312,330z"/>
<g>
	<path class="st6" d="M320.6,312.3L312,298l-0.2,0.6v18.5l0.2,0.2L320.6,312.3z"/>
	<path class="st7" d="M312,317.3V298l-8.6,14.3L312,317.3z"/>
	<path class="st8" d="M311.9,325.7l0.1,0.3l8.6-12.1L312,319l-0.1,0.1V325.7z"/>
	<path class="st7" d="M312,319l-8.6-5.1L312,326V319z"/>
	<path class="st9" d="M312,317.3l8.6-5.1l-8.6-3.9V317.3z"/>
	<path class="st6" d="M312,308.4l-8.6,3.9l8.6,5.1V308.4z"/>
</g>
<path class="st12" d="M432,312c0-13.3-10.7-24-24-24s-24,10.7-24,24s10.7,24,24,24S432,325.3,432,312z"/>
<path class="st13" d="M408,290c12.1,0,22,9.9,22,22s-9.9,22-22,22s-22-9.9-22-22S395.9,290,408,290 M408,288c-13.3,0-24,10.7-24,24
	s10.7,24,24,24s24-10.7,24-24S421.3,288,408,288L408,288z"/>
<path class="st5" d="M408,292c-11,0-20,9-20,20s9,20,20,20s20-9,20-20S419,292,408,292z M408,330c-9.9,0-18-8.1-18-18s8.1-18,18-18
	s18,8.1,18,18S417.9,330,408,330z"/>
<g>
	<path class="st6" d="M416.6,312.3L408,298l-0.2,0.6v18.5l0.2,0.2L416.6,312.3z"/>
	<path class="st7" d="M408,317.3V298l-8.6,14.3L408,317.3z"/>
	<path class="st8" d="M407.9,325.7l0.1,0.3l8.6-12.1L408,319l-0.1,0.1V325.7z"/>
	<path class="st7" d="M408,319l-8.6-5.1L408,326V319z"/>
	<path class="st9" d="M408,317.3l8.6-5.1l-8.6-3.9V317.3z"/>
	<path class="st6" d="M408,308.4l-8.6,3.9l8.6,5.1V308.4z"/>
</g>
<path class="st12" d="M48,312c0-13.3-10.7-24-24-24S0,298.7,0,312s10.7,24,24,24S48,325.3,48,312z"/>
<path class="st13" d="M24,290c12.1,0,22,9.9,22,22s-9.9,22-22,22s-22-9.9-22-22S11.9,290,24,290 M24,288c-13.3,0-24,10.7-24,24
	s10.7,24,24,24s24-10.7,24-24S37.3,288,24,288L24,288z"/>
<path class="st5" d="M24,292c-11,0-20,9-20,20s9,20,20,20s20-9,20-20S35,292,24,292z M24,330c-9.9,0-18-8.1-18-18s8.1-18,18-18
	s18,8.1,18,18S33.9,330,24,330z"/>
<g>
	<path class="st6" d="M32.6,312.3L24,298l-0.2,0.6v18.5l0.2,0.2L32.6,312.3z"/>
	<path class="st7" d="M24,317.3V298l-8.6,14.3L24,317.3z"/>
	<path class="st8" d="M23.9,325.7L24,326l8.6-12.1L24,319l-0.1,0.1V325.7z"/>
	<path class="st7" d="M24,319l-8.6-5.1L24,326V319z"/>
	<path class="st9" d="M24,317.3l8.6-5.1l-8.6-3.9C24,308.3,24,317.3,24,317.3z"/>
	<path class="st6" d="M24,308.4l-8.6,3.9l8.6,5.1V308.4z"/>
</g>
</svg>
