<?xml version="1.0" encoding="utf-8"?>
<!-- Generator: Adobe Illustrator 21.1.0, SVG Export Plug-In . SVG Version: 6.00 Build 0)  -->
<svg version="1.1" id="Layer_1" xmlns="http://www.w3.org/2000/svg" xmlns:xlink="http://www.w3.org/1999/xlink" x="0px" y="0px"
	 viewBox="0 0 528 240" style="enable-background:new 0 0 528 240;" xml:space="preserve">
<style type="text/css">
	.st0{fill:none;}
	.st1{display:none;fill:#F2F2F2;}
	.st2{fill:#555555;}
	.st3{opacity:0.15;fill:#5AC8FA;enable-background:new    ;}
	.st4{fill:#5AC8FA;}
	.st5{opacity:0.14;enable-background:new    ;}
	.st6{fill:#CECECE;}
	.st7{fill:#F9F9F9;}
	.st8{fill:#D0D0D0;}
	.st9{fill:#B1B1B1;}
	.st10{opacity:0.14;fill:#FFE620;enable-background:new    ;}
	.st11{fill:#FFE620;}
	.st12{opacity:0.14;fill:#04DE71;enable-background:new    ;}
	.st13{fill:#04DE71;}
	.st14{display:none;fill:#D2D2D2;}
	.st15{fill:#888888;}
	.st16{display:none;fill:#888888;enable-background:new    ;}
	.st17{font-family:'ProximaNova-Semibold';}
	.st18{font-size:36px;}
	.st19{enable-background:new    ;}
	.st20{font-size:12px;}
	.st21{font-family:'ProximaNova-Bold';}
	.st22{font-size:24px;}
</style>
<rect class="st0" width="528" height="240"/>
<rect class="st1" width="528" height="240"/>
<g>
	<rect x="263" y="46" class="st2" width="2" height="52"/>
</g>
<g>
	<rect x="263" y="142" class="st2" width="2" height="52"/>
</g>
<path class="st2" d="M247.8,134.8l-64.9,64.9c0.5,0.4,1,0.9,1.4,1.4l64.9-64.9C248.7,135.8,248.2,135.3,247.8,134.8z"/>
<path class="st3" d="M288,24c0-13.3-10.7-24-24-24c-13.3,0-24,10.7-24,24s10.7,24,24,24C277.3,48,288,37.3,288,24z"/>
<path class="st4" d="M264,2c12.1,0,22,9.9,22,22s-9.9,22-22,22s-22-9.9-22-22S251.9,2,264,2 M264,0c-13.3,0-24,10.7-24,24
	s10.7,24,24,24c13.3,0,24-10.7,24-24S277.3,0,264,0L264,0z"/>
<path class="st5" d="M264,4c-11,0-20,9-20,20s9,20,20,20s20-9,20-20S275,4,264,4z M264,42c-9.9,0-18-8.1-18-18s8.1-18,18-18
	s18,8.1,18,18S273.9,42,264,42z"/>
<g>
	<path class="st6" d="M272.6,24.3L264,10l-0.2,0.6v18.5l0.2,0.2L272.6,24.3z"/>
	<path class="st7" d="M264,29.3V10l-8.6,14.3L264,29.3z"/>
	<path class="st8" d="M263.9,37.7L264,38l8.6-12.1L264,31l-0.1,0.1V37.7z"/>
	<path class="st7" d="M264,31l-8.6-5.1L264,38V31z"/>
	<path class="st9" d="M264,29.3l8.6-5.1l-8.6-3.8V29.3z"/>
	<path class="st6" d="M264,20.4l-8.6,3.9l8.6,5.1V20.4z"/>
</g>
<path class="st10" d="M288,120c0-13.3-10.7-24-24-24c-13.3,0-24,10.7-24,24s10.7,24,24,24C277.3,144,288,133.3,288,120z"/>
<path class="st11" d="M264,98c12.1,0,22,9.9,22,22s-9.9,22-22,22s-22-9.9-22-22S251.9,98,264,98 M264,96c-13.3,0-24,10.7-24,24
	s10.7,24,24,24c13.3,0,24-10.7,24-24S277.3,96,264,96L264,96z"/>
<path class="st5" d="M264,100c-11,0-20,9-20,20s9,20,20,20s20-9,20-20S275,100,264,100z M264,138c-9.9,0-18-8.1-18-18s8.1-18,18-18
	s18,8.1,18,18S273.9,138,264,138z"/>
<g>
	<path class="st6" d="M272.6,120.3L264,106l-0.2,0.6v18.5l0.2,0.2L272.6,120.3z"/>
	<path class="st7" d="M264,125.3V106l-8.6,14.3L264,125.3z"/>
	<path class="st8" d="M263.9,133.7l0.1,0.3l8.6-12.1L264,127l-0.1,0.1V133.7z"/>
	<path class="st7" d="M264,127l-8.6-5.1L264,134V127z"/>
	<path class="st9" d="M264,125.3l8.6-5.1l-8.6-3.9V125.3z"/>
	<path class="st6" d="M264,116.4l-8.6,3.9l8.6,5.1V116.4z"/>
</g>
<path class="st12" d="M288,216c0-13.3-10.7-24-24-24c-13.3,0-24,10.7-24,24s10.7,24,24,24C277.3,240,288,229.3,288,216z"/>
<path class="st13" d="M264,194c12.1,0,22,9.9,22,22s-9.9,22-22,22s-22-9.9-22-22S251.9,194,264,194 M264,192c-13.3,0-24,10.7-24,24
	s10.7,24,24,24c13.3,0,24-10.7,24-24S277.3,192,264,192L264,192z"/>
<path class="st5" d="M264,196c-11,0-20,9-20,20s9,20,20,20s20-9,20-20S275,196,264,196z M264,234c-9.9,0-18-8.1-18-18s8.1-18,18-18
	s18,8.1,18,18S273.9,234,264,234z"/>
<g>
	<path class="st6" d="M272.6,216.3L264,202l-0.2,0.6v18.5l0.2,0.2L272.6,216.3z"/>
	<path class="st7" d="M264,221.3V202l-8.6,14.3L264,221.3z"/>
	<path class="st8" d="M263.9,229.7l0.1,0.3l8.6-12.1L264,223l-0.1,0.1V229.7z"/>
	<path class="st7" d="M264,223l-8.6-5.1L264,230V223z"/>
	<path class="st9" d="M264,221.3l8.6-5.1l-8.6-3.9V221.3z"/>
	<path class="st6" d="M264,212.4l-8.6,3.9l8.6,5.1V212.4z"/>
</g>
<path class="st12" d="M192,216c0-13.3-10.7-24-24-24s-24,10.7-24,24s10.7,24,24,24S192,229.3,192,216z"/>
<path class="st13" d="M168,194c12.1,0,22,9.9,22,22s-9.9,22-22,22s-22-9.9-22-22S155.9,194,168,194 M168,192c-13.3,0-24,10.7-24,24
	s10.7,24,24,24s24-10.7,24-24S181.3,192,168,192L168,192z"/>
<path class="st5" d="M168,196c-11,0-20,9-20,20s9,20,20,20s20-9,20-20S179,196,168,196z M168,234c-9.9,0-18-8.1-18-18s8.1-18,18-18
	s18,8.1,18,18S177.9,234,168,234z"/>
<g>
	<path class="st6" d="M176.6,216.3L168,202l-0.2,0.6v18.5l0.2,0.2L176.6,216.3z"/>
	<path class="st7" d="M168,221.3V202l-8.6,14.3L168,221.3z"/>
	<path class="st8" d="M167.9,229.7l0.1,0.3l8.6-12.1L168,223l-0.1,0.1V229.7z"/>
	<path class="st7" d="M168,223l-8.6-5.1L168,230V223z"/>
	<path class="st9" d="M168,221.3l8.6-5.1l-8.6-3.9V221.3z"/>
	<path class="st6" d="M168,212.4l-8.6,3.9l8.6,5.1V212.4z"/>
</g>
<polygon class="st14" points="306,120 312,126 312,114 "/>
<path class="st14" d="M312,119v2c26,0,47,21,47,47h2C361,140.9,339.1,119,312,119z"/>
<path class="st14" d="M312,215v2c27.1,0,49-21.9,49-49h-2C359,194,338,215,312,215z"/>
<path class="st15" d="M312,119v-5l-6,6l6,6v-5c26,0,47,21,47,47s-21,47-47,47v2c27.1,0,49-21.9,49-49S339.1,119,312,119z"/>
<text transform="matrix(1 0 0 1 371.8728 191.7036)" class="st16 st17 st18">0.16 ETH</text>
<g class="st19">
	<path class="st15" d="M373.3,183.5c-0.2-1.2-0.3-2.4-0.3-3.6s0.1-2.5,0.3-3.6s0.6-2.3,1.1-3.3s1.1-2,1.9-2.8s1.6-1.4,2.7-1.9
		s2.3-0.7,3.6-0.7s2.5,0.2,3.6,0.7s2,1.1,2.7,1.9c0.7,0.8,1.4,1.7,1.9,2.8s0.9,2.2,1.1,3.3s0.3,2.4,0.3,3.6s-0.1,2.5-0.3,3.6
		c-0.2,1.2-0.6,2.3-1.1,3.4c-0.5,1.1-1.1,2-1.9,2.8c-0.7,0.8-1.6,1.4-2.7,1.9s-2.3,0.7-3.6,0.7s-2.5-0.2-3.6-0.7s-2-1.1-2.7-1.9
		c-0.7-0.8-1.4-1.7-1.9-2.8C373.9,185.7,373.6,184.6,373.3,183.5z M377.6,176.5c-0.2,1-0.3,2.1-0.3,3.3s0.1,2.3,0.3,3.3
		c0.2,1,0.5,1.9,0.9,2.8c0.4,0.8,1,1.5,1.7,1.9s1.5,0.7,2.5,0.7c0.9,0,1.8-0.2,2.5-0.7s1.3-1.1,1.7-1.9c0.4-0.8,0.7-1.7,0.9-2.8
		c0.2-1,0.3-2.1,0.3-3.3s-0.1-2.3-0.3-3.3c-0.2-1-0.5-1.9-0.9-2.7s-1-1.5-1.7-1.9c-0.7-0.5-1.5-0.7-2.5-0.7c-0.9,0-1.8,0.2-2.5,0.7
		s-1.3,1.1-1.7,1.9C378.1,174.6,377.8,175.5,377.6,176.5z"/>
	<path class="st15" d="M394.7,189.9c0-0.6,0.2-1.2,0.7-1.6s1-0.7,1.7-0.7c0.6,0,1.2,0.2,1.7,0.7s0.7,1,0.7,1.6s-0.2,1.2-0.7,1.7
		s-1,0.7-1.7,0.7s-1.2-0.2-1.7-0.7C394.9,191.1,394.7,190.5,394.7,189.9z"/>
	<path class="st15" d="M398.9,174.8l6.9-7h3.7v24h-4.2v-18.5l-3.9,4.1L398.9,174.8z"/>
	<path class="st15" d="M413.5,179.9c0-2.4,0.4-4.5,1.2-6.3s2-3.3,3.6-4.4c1.6-1.1,3.5-1.7,5.8-1.7c2.8,0,5.1,0.9,6.9,2.6l-2,3.2
		c-0.7-0.7-1.4-1.2-2.2-1.6c-0.8-0.3-1.7-0.5-2.8-0.5c-1.3,0-2.4,0.4-3.4,1.1c-1,0.7-1.7,1.7-2.2,2.9s-0.7,2.5-0.7,3.9
		c0,0.3,0,0.6,0,0.7c0.6-0.9,1.5-1.7,2.7-2.4s2.4-1,3.8-1c1.1,0,2.1,0.2,3.1,0.5s1.8,0.8,2.5,1.5c0.7,0.6,1.3,1.5,1.8,2.5
		c0.4,1,0.6,2.1,0.6,3.4c0,2.3-0.8,4.2-2.5,5.7c-1.6,1.5-3.8,2.3-6.4,2.3c-1.4,0-2.6-0.2-3.7-0.7s-2-1-2.8-1.8s-1.4-1.7-1.9-2.7
		c-0.5-1.1-0.9-2.2-1.1-3.4C413.6,182.5,413.5,181.2,413.5,179.9z M417.8,182.9c0,0.6,0.1,1.1,0.3,1.6s0.4,1,0.6,1.5
		c0.3,0.5,0.6,0.9,1,1.3c0.4,0.4,0.9,0.7,1.5,0.9s1.2,0.3,2,0.3c1.5,0,2.7-0.4,3.5-1.3c0.9-0.9,1.3-1.8,1.3-2.9
		c0-1.4-0.5-2.5-1.4-3.2s-2.1-1.1-3.5-1.1c-1,0-2,0.3-2.9,0.8C419.2,181.3,418.4,182,417.8,182.9z"/>
	<path class="st15" d="M445.5,191.8v-24H462v3.7h-12.2v6.2h12v3.7h-12v6.7H462v3.7L445.5,191.8L445.5,191.8z"/>
	<path class="st15" d="M464.7,171.5v-3.7h18.8v3.7h-7.3v20.3H472v-20.3H464.7z"/>
	<path class="st15" d="M487,191.8v-24h4.2v9.8h12.5v-9.8h4.2v24h-4.2v-10.5h-12.5v10.5H487z"/>
</g>
<text transform="matrix(1 0 0 1 371.8728 151.7036)" class="st16 st17 st20">0.08 ETH × 2</text>
<g class="st19">
	<path class="st15" d="M373.1,149.2c-0.1-0.4-0.1-0.8-0.1-1.2s0-0.8,0.1-1.2s0.2-0.8,0.4-1.1c0.2-0.4,0.4-0.7,0.6-0.9
		s0.5-0.5,0.9-0.6c0.4-0.2,0.8-0.2,1.2-0.2s0.8,0.1,1.2,0.2c0.4,0.2,0.7,0.4,0.9,0.6s0.5,0.6,0.6,0.9c0.2,0.4,0.3,0.7,0.4,1.1
		c0.1,0.4,0.1,0.8,0.1,1.2s0,0.8-0.1,1.2s-0.2,0.8-0.4,1.1c-0.2,0.4-0.4,0.7-0.6,0.9c-0.2,0.3-0.5,0.5-0.9,0.6
		c-0.4,0.2-0.8,0.2-1.2,0.2s-0.8-0.1-1.2-0.2c-0.4-0.2-0.7-0.4-0.9-0.6c-0.2-0.3-0.5-0.6-0.6-0.9C373.3,150,373.2,149.6,373.1,149.2
		z M374.5,146.9c-0.1,0.3-0.1,0.7-0.1,1.1c0,0.4,0,0.8,0.1,1.1s0.2,0.6,0.3,0.9c0.1,0.3,0.3,0.5,0.6,0.7c0.2,0.2,0.5,0.2,0.8,0.2
		s0.6-0.1,0.8-0.2c0.2-0.2,0.4-0.4,0.6-0.7c0.1-0.3,0.2-0.6,0.3-0.9c0.1-0.3,0.1-0.7,0.1-1.1c0-0.4,0-0.8-0.1-1.1s-0.2-0.6-0.3-0.9
		c-0.1-0.3-0.3-0.5-0.6-0.6c-0.2-0.2-0.5-0.2-0.8-0.2s-0.6,0.1-0.8,0.2c-0.2,0.2-0.4,0.4-0.6,0.6
		C374.7,146.3,374.6,146.6,374.5,146.9z"/>
	<path class="st15" d="M380.2,151.3c0-0.2,0.1-0.4,0.2-0.5c0.2-0.2,0.3-0.2,0.6-0.2c0.2,0,0.4,0.1,0.6,0.2c0.2,0.2,0.2,0.3,0.2,0.5
		s-0.1,0.4-0.2,0.6c-0.2,0.2-0.3,0.2-0.6,0.2c-0.2,0-0.4-0.1-0.6-0.2C380.3,151.7,380.2,151.6,380.2,151.3z"/>
	<path class="st15" d="M382.8,149.2c-0.1-0.4-0.1-0.8-0.1-1.2s0-0.8,0.1-1.2s0.2-0.8,0.4-1.1c0.2-0.4,0.4-0.7,0.6-0.9
		s0.5-0.5,0.9-0.6c0.4-0.2,0.8-0.2,1.2-0.2s0.8,0.1,1.2,0.2c0.4,0.2,0.7,0.4,0.9,0.6s0.5,0.6,0.6,0.9c0.2,0.4,0.3,0.7,0.4,1.1
		c0.1,0.4,0.1,0.8,0.1,1.2s0,0.8-0.1,1.2s-0.2,0.8-0.4,1.1c-0.2,0.4-0.4,0.7-0.6,0.9c-0.2,0.3-0.5,0.5-0.9,0.6
		c-0.4,0.2-0.8,0.2-1.2,0.2s-0.8-0.1-1.2-0.2c-0.4-0.2-0.7-0.4-0.9-0.6c-0.2-0.3-0.5-0.6-0.6-0.9C383,150,382.9,149.6,382.8,149.2z
		 M384.3,146.9c-0.1,0.3-0.1,0.7-0.1,1.1c0,0.4,0,0.8,0.1,1.1s0.2,0.6,0.3,0.9c0.1,0.3,0.3,0.5,0.6,0.7c0.2,0.2,0.5,0.2,0.8,0.2
		s0.6-0.1,0.8-0.2c0.2-0.2,0.4-0.4,0.6-0.7c0.1-0.3,0.2-0.6,0.3-0.9c0.1-0.3,0.1-0.7,0.1-1.1c0-0.4,0-0.8-0.1-1.1s-0.2-0.6-0.3-0.9
		c-0.1-0.3-0.3-0.5-0.6-0.6c-0.2-0.2-0.5-0.2-0.8-0.2s-0.6,0.1-0.8,0.2c-0.2,0.2-0.4,0.4-0.6,0.6
		C384.4,146.3,384.3,146.6,384.3,146.9z"/>
	<path class="st15" d="M390.1,149.9c0-0.5,0.2-0.9,0.5-1.3c0.3-0.4,0.8-0.6,1.3-0.8c-0.5-0.2-0.9-0.4-1.2-0.7
		c-0.3-0.3-0.5-0.7-0.5-1.2c0-0.4,0.1-0.7,0.3-0.9c0.2-0.3,0.4-0.5,0.7-0.7s0.6-0.3,0.9-0.4s0.7-0.1,1.1-0.1c0.3,0,0.6,0,0.8,0.1
		c0.3,0,0.5,0.1,0.8,0.2c0.3,0.1,0.5,0.2,0.7,0.4s0.3,0.4,0.5,0.6c0.1,0.2,0.2,0.5,0.2,0.8c0,0.5-0.2,0.9-0.5,1.2s-0.7,0.6-1.2,0.7
		c0.5,0.2,1,0.4,1.3,0.8c0.3,0.4,0.5,0.8,0.5,1.3s-0.1,0.9-0.4,1.2s-0.7,0.6-1.1,0.8c-0.5,0.2-1,0.2-1.5,0.2c-0.6,0-1.1-0.1-1.5-0.2
		c-0.5-0.2-0.8-0.4-1.1-0.7C390.3,150.8,390.1,150.4,390.1,149.9z M391.5,149.8c0,0.3,0.2,0.6,0.5,0.8s0.7,0.3,1.2,0.3
		s0.9-0.1,1.2-0.3c0.3-0.2,0.5-0.5,0.5-0.8c0-0.2-0.1-0.4-0.2-0.5s-0.3-0.3-0.5-0.4c-0.2-0.1-0.4-0.2-0.5-0.2s-0.3-0.1-0.5-0.1
		c-0.1,0-0.2,0-0.4,0.1c-0.1,0-0.3,0.1-0.4,0.2s-0.3,0.2-0.4,0.2c-0.1,0.1-0.2,0.2-0.3,0.3C391.6,149.5,391.5,149.6,391.5,149.8z
		 M391.7,146.2c0,0.2,0.1,0.3,0.2,0.5c0.1,0.1,0.2,0.3,0.4,0.3s0.3,0.2,0.5,0.2c0.1,0,0.3,0.1,0.5,0.1s0.3-0.1,0.4-0.1
		s0.3-0.1,0.5-0.2s0.3-0.2,0.4-0.3s0.2-0.3,0.2-0.5c0-0.3-0.1-0.6-0.4-0.8s-0.6-0.3-1.1-0.3c-0.4,0-0.8,0.1-1.1,0.3
		C391.8,145.6,391.7,145.8,391.7,146.2z"/>
	<path class="st15" d="M400.7,152v-8h5.5v1.2h-4.1v2.1h4v1.2h-4v2.2h4.1v1.2h-5.5V152z"/>
	<path class="st15" d="M407.1,145.2V144h6.3v1.2H411v6.8h-1.4v-6.8H407.1z"/>
	<path class="st15" d="M414.5,152v-8h1.4v3.3h4.2V144h1.4v8h-1.4v-3.5h-4.2v3.5H414.5z"/>
	<path class="st15" d="M426.1,149.7l1.7-1.7l-1.7-1.7l0.6-0.6l1.7,1.7l1.7-1.7l0.6,0.6L429,148l1.7,1.7l-0.6,0.6l-1.7-1.7l-1.7,1.7
		L426.1,149.7z"/>
	<path class="st15" d="M435,145.1c0.3-0.4,0.8-0.7,1.3-0.9s1.1-0.3,1.6-0.3s1,0.1,1.4,0.3s0.8,0.5,1,0.8c0.3,0.4,0.4,0.8,0.4,1.3
		c0,0.4-0.1,0.7-0.2,1.1s-0.4,0.7-0.7,1.1s-0.7,0.7-1.1,1.1s-0.9,0.7-1.5,1.2h3.6v1.2H435v-1.1c0.6-0.4,1-0.8,1.4-1.1
		s0.7-0.6,1.1-0.9c0.4-0.3,0.6-0.6,0.8-0.8s0.4-0.4,0.6-0.6s0.3-0.4,0.3-0.6c0.1-0.2,0.1-0.4,0.1-0.6c0-0.4-0.1-0.7-0.4-0.9
		s-0.6-0.3-1-0.3c-0.9,0-1.6,0.3-2.2,1L435,145.1z"/>
</g>
<path class="st15" d="M107.2,207c-2.2,0-4,1.8-4,4s1.8,4,4,4s4-1.8,4-4S109.4,207,107.2,207z M104,218.4c-2.8,0.6-5.8,2-5.8,4.1v2.5
	h18v-2.5c0-2.1-3-3.5-5.8-4.1c-0.7,1-1.9,1.6-3.2,1.6S104.7,219.4,104,218.4z"/>
<text transform="matrix(1 0 0 1 119.1 224.3999)" class="st16 st21 st22">2</text>
<g>
	<path class="st15" d="M119.9,210.8c0.8-0.9,1.7-1.5,2.8-1.9c1.1-0.4,2.2-0.7,3.4-0.7c1.1,0,2.2,0.2,3.1,0.6c0.9,0.4,1.7,1,2.2,1.8
		s0.8,1.7,0.8,2.7c0,1.3-0.5,2.6-1.6,3.9s-2.7,2.7-4.9,4.3h6.5v3h-12v-2.7c1.4-1.1,2.6-1.9,3.4-2.6c0.9-0.7,1.6-1.3,2.4-1.9
		s1.3-1.1,1.6-1.6s0.6-0.8,0.8-1.2s0.3-0.8,0.3-1.2c0-0.7-0.3-1.2-0.8-1.5c-0.5-0.4-1.1-0.5-1.8-0.5c-1.7,0-3.1,0.6-4.3,1.8
		L119.9,210.8z"/>
</g>
</svg>
