<?xml version="1.0" encoding="utf-8"?>
<!-- Generator: Adobe Illustrator 21.1.0, SVG Export Plug-In . SVG Version: 6.00 Build 0)  -->
<svg version="1.1" id="Layer_1" xmlns="http://www.w3.org/2000/svg" xmlns:xlink="http://www.w3.org/1999/xlink" x="0px" y="0px"
	 viewBox="0 0 528 432" style="enable-background:new 0 0 528 432;" xml:space="preserve">
<style type="text/css">
	.st0{fill:none;}
	.st1{display:none;fill:#333333;}
	.st2{display:none;fill:#F2F2F2;}
	.st3{fill:#555555;}
	.st4{opacity:0.15;fill:#5AC8FA;enable-background:new    ;}
	.st5{fill:#5AC8FA;}
	.st6{opacity:0.14;enable-background:new    ;}
	.st7{fill:#CECECE;}
	.st8{fill:#F9F9F9;}
	.st9{fill:#D0D0D0;}
	.st10{fill:#B1B1B1;}
	.st11{opacity:0.14;fill:#FFE620;enable-background:new    ;}
	.st12{fill:#FFE620;}
	.st13{opacity:0.14;fill:#04DE71;enable-background:new    ;}
	.st14{fill:#04DE71;}
	.st15{fill:#888888;}
	.st16{display:none;fill:#888888;enable-background:new    ;}
	.st17{font-family:'ProximaNova-Semibold';}
	.st18{font-size:12px;}
	.st19{enable-background:new    ;}
	.st20{font-size:36px;}
	.st21{font-size:24px;}
</style>
<rect class="st0" width="528" height="432"/>
<rect class="st1" width="528" height="432"/>
<rect class="st2" width="528" height="432"/>
<g>
	<rect x="263" y="142" class="st3" width="2" height="52"/>
</g>
<g>
	<rect x="263" y="46" class="st3" width="2" height="52"/>
</g>
<g>
	<rect x="263" y="238" class="st3" width="2" height="52"/>
</g>
<g>
	<rect x="263" y="334" class="st3" width="2" height="52"/>
</g>
<g>
	<rect x="167" y="334" class="st3" width="2" height="52"/>
</g>
<g>
	<path class="st3" d="M151.8,326.8l-64.9,64.9c0.5,0.4,1,0.9,1.4,1.4l64.9-64.9C152.7,327.8,152.2,327.3,151.8,326.8z"/>
	<path class="st3" d="M247.8,230.8l-64.9,64.9c0.5,0.4,1,0.9,1.4,1.4l64.9-64.9C248.7,231.8,248.2,231.3,247.8,230.8z"/>
</g>
<path class="st4" d="M288,120c0-13.3-10.7-24-24-24c-13.3,0-24,10.7-24,24s10.7,24,24,24C277.3,144,288,133.3,288,120z"/>
<path class="st5" d="M264,98c12.1,0,22,9.9,22,22s-9.9,22-22,22s-22-9.9-22-22S251.9,98,264,98 M264,96c-13.3,0-24,10.7-24,24
	s10.7,24,24,24c13.3,0,24-10.7,24-24S277.3,96,264,96L264,96z"/>
<path class="st6" d="M264,100c-11,0-20,9-20,20s9,20,20,20s20-9,20-20S275,100,264,100z M264,138c-9.9,0-18-8.1-18-18s8.1-18,18-18
	s18,8.1,18,18S273.9,138,264,138z"/>
<g>
	<path class="st7" d="M272.6,120.3L264,106l-0.2,0.6v18.5l0.2,0.2L272.6,120.3z"/>
	<path class="st8" d="M264,125.3V106l-8.6,14.3L264,125.3z"/>
	<path class="st9" d="M263.9,133.7l0.1,0.3l8.6-12.1L264,127l-0.1,0.1V133.7z"/>
	<path class="st8" d="M264,127l-8.6-5.1L264,134V127z"/>
	<path class="st10" d="M264,125.3l8.6-5.1l-8.6-3.8V125.3z"/>
	<path class="st7" d="M264,116.4l-8.6,3.9l8.6,5.1V116.4z"/>
</g>
<path class="st4" d="M288,24c0-13.3-10.7-24-24-24c-13.3,0-24,10.7-24,24s10.7,24,24,24C277.3,48,288,37.3,288,24z"/>
<path class="st5" d="M264,2c12.1,0,22,9.9,22,22s-9.9,22-22,22s-22-9.9-22-22S251.9,2,264,2 M264,0c-13.3,0-24,10.7-24,24
	s10.7,24,24,24c13.3,0,24-10.7,24-24S277.3,0,264,0L264,0z"/>
<path class="st6" d="M264,4c-11,0-20,9-20,20s9,20,20,20s20-9,20-20S275,4,264,4z M264,42c-9.9,0-18-8.1-18-18s8.1-18,18-18
	s18,8.1,18,18S273.9,42,264,42z"/>
<g>
	<path class="st7" d="M272.6,24.3L264,10l-0.2,0.6v18.5l0.2,0.2L272.6,24.3z"/>
	<path class="st8" d="M264,29.3V10l-8.6,14.3L264,29.3z"/>
	<path class="st9" d="M263.9,37.7L264,38l8.6-12.1L264,31l-0.1,0.1V37.7z"/>
	<path class="st8" d="M264,31l-8.6-5.1L264,38V31z"/>
	<path class="st10" d="M264,29.3l8.6-5.1l-8.6-3.8V29.3z"/>
	<path class="st7" d="M264,20.4l-8.6,3.9l8.6,5.1V20.4z"/>
</g>
<path class="st11" d="M288,216c0-13.3-10.7-24-24-24c-13.3,0-24,10.7-24,24s10.7,24,24,24C277.3,240,288,229.3,288,216z"/>
<path class="st12" d="M264,194c12.1,0,22,9.9,22,22s-9.9,22-22,22s-22-9.9-22-22S251.9,194,264,194 M264,192c-13.3,0-24,10.7-24,24
	s10.7,24,24,24c13.3,0,24-10.7,24-24S277.3,192,264,192L264,192z"/>
<path class="st6" d="M264,196c-11,0-20,9-20,20s9,20,20,20s20-9,20-20S275,196,264,196z M264,234c-9.9,0-18-8.1-18-18s8.1-18,18-18
	s18,8.1,18,18S273.9,234,264,234z"/>
<g>
	<path class="st7" d="M272.6,216.3L264,202l-0.2,0.6v18.5l0.2,0.2L272.6,216.3z"/>
	<path class="st8" d="M264,221.3V202l-8.6,14.3L264,221.3z"/>
	<path class="st9" d="M263.9,229.7l0.1,0.3l8.6-12.1L264,223l-0.1,0.1V229.7z"/>
	<path class="st8" d="M264,223l-8.6-5.1L264,230V223z"/>
	<path class="st10" d="M264,221.3l8.6-5.1l-8.6-3.9V221.3z"/>
	<path class="st7" d="M264,212.4l-8.6,3.9l8.6,5.1V212.4z"/>
</g>
<path class="st13" d="M288,312c0-13.3-10.7-24-24-24c-13.3,0-24,10.7-24,24s10.7,24,24,24C277.3,336,288,325.3,288,312z"/>
<path class="st14" d="M264,290c12.1,0,22,9.9,22,22s-9.9,22-22,22s-22-9.9-22-22S251.9,290,264,290 M264,288c-13.3,0-24,10.7-24,24
	s10.7,24,24,24c13.3,0,24-10.7,24-24S277.3,288,264,288L264,288z"/>
<path class="st6" d="M264,292c-11,0-20,9-20,20s9,20,20,20s20-9,20-20S275,292,264,292z M264,330c-9.9,0-18-8.1-18-18s8.1-18,18-18
	s18,8.1,18,18S273.9,330,264,330z"/>
<g>
	<path class="st7" d="M272.6,312.3L264,298l-0.2,0.6v18.5l0.2,0.2L272.6,312.3z"/>
	<path class="st8" d="M264,317.3V298l-8.6,14.3L264,317.3z"/>
	<path class="st9" d="M263.9,325.7l0.1,0.3l8.6-12.1L264,319l-0.1,0.1V325.7z"/>
	<path class="st8" d="M264,319l-8.6-5.1L264,326V319z"/>
	<path class="st10" d="M264,317.3l8.6-5.1l-8.6-3.9V317.3z"/>
	<path class="st7" d="M264,308.4l-8.6,3.9l8.6,5.1V308.4z"/>
</g>
<path class="st13" d="M192,312c0-13.3-10.7-24-24-24s-24,10.7-24,24s10.7,24,24,24S192,325.3,192,312z"/>
<path class="st14" d="M168,290c12.1,0,22,9.9,22,22s-9.9,22-22,22s-22-9.9-22-22S155.9,290,168,290 M168,288c-13.3,0-24,10.7-24,24
	s10.7,24,24,24s24-10.7,24-24S181.3,288,168,288L168,288z"/>
<path class="st6" d="M168,292c-11,0-20,9-20,20s9,20,20,20s20-9,20-20S179,292,168,292z M168,330c-9.9,0-18-8.1-18-18s8.1-18,18-18
	s18,8.1,18,18S177.9,330,168,330z"/>
<g>
	<path class="st7" d="M176.6,312.3L168,298l-0.2,0.6v18.5l0.2,0.2L176.6,312.3z"/>
	<path class="st8" d="M168,317.3V298l-8.6,14.3L168,317.3z"/>
	<path class="st9" d="M167.9,325.7l0.1,0.3l8.6-12.1L168,319l-0.1,0.1V325.7z"/>
	<path class="st8" d="M168,319l-8.6-5.1L168,326V319z"/>
	<path class="st10" d="M168,317.3l8.6-5.1l-8.6-3.9V317.3z"/>
	<path class="st7" d="M168,308.4l-8.6,3.9l8.6,5.1V308.4z"/>
</g>
<path class="st13" d="M288,408c0-13.3-10.7-24-24-24c-13.3,0-24,10.7-24,24s10.7,24,24,24C277.3,432,288,421.3,288,408z"/>
<path class="st14" d="M264,386c12.1,0,22,9.9,22,22s-9.9,22-22,22s-22-9.9-22-22S251.9,386,264,386 M264,384c-13.3,0-24,10.7-24,24
	s10.7,24,24,24c13.3,0,24-10.7,24-24S277.3,384,264,384L264,384z"/>
<path class="st6" d="M264,388c-11,0-20,9-20,20s9,20,20,20s20-9,20-20S275,388,264,388z M264,426c-9.9,0-18-8.1-18-18s8.1-18,18-18
	s18,8.1,18,18S273.9,426,264,426z"/>
<g>
	<path class="st7" d="M272.6,408.3L264,394l-0.2,0.6v18.5l0.2,0.2L272.6,408.3z"/>
	<path class="st8" d="M264,413.3V394l-8.6,14.3L264,413.3z"/>
	<path class="st9" d="M263.9,421.7l0.1,0.3l8.6-12.1L264,415l-0.1,0.1V421.7z"/>
	<path class="st8" d="M264,415l-8.6-5.1L264,422V415z"/>
	<path class="st10" d="M264,413.3l8.6-5.1l-8.6-3.9V413.3z"/>
	<path class="st7" d="M264,404.4l-8.6,3.9l8.6,5.1V404.4z"/>
</g>
<path class="st13" d="M96,408c0-13.3-10.7-24-24-24s-24,10.7-24,24s10.7,24,24,24S96,421.3,96,408z"/>
<path class="st14" d="M72,386c12.1,0,22,9.9,22,22s-9.9,22-22,22s-22-9.9-22-22S59.9,386,72,386 M72,384c-13.3,0-24,10.7-24,24
	s10.7,24,24,24s24-10.7,24-24S85.3,384,72,384L72,384z"/>
<path class="st6" d="M72,388c-11,0-20,9-20,20s9,20,20,20s20-9,20-20S83,388,72,388z M72,426c-9.9,0-18-8.1-18-18s8.1-18,18-18
	s18,8.1,18,18S81.9,426,72,426z"/>
<g>
	<path class="st7" d="M80.6,408.3L72,394l-0.2,0.6v18.5l0.2,0.2L80.6,408.3z"/>
	<path class="st8" d="M72,413.3V394l-8.6,14.3L72,413.3z"/>
	<path class="st9" d="M71.9,421.7L72,422l8.6-12.1L72,415l-0.1,0.1V421.7z"/>
	<path class="st8" d="M72,415l-8.6-5.1L72,422V415z"/>
	<path class="st10" d="M72,413.3l8.6-5.1l-8.6-3.9V413.3z"/>
	<path class="st7" d="M72,404.4l-8.6,3.9l8.6,5.1V404.4z"/>
</g>
<path class="st13" d="M192,408c0-13.3-10.7-24-24-24s-24,10.7-24,24s10.7,24,24,24S192,421.3,192,408z"/>
<path class="st14" d="M168,386c12.1,0,22,9.9,22,22s-9.9,22-22,22s-22-9.9-22-22S155.9,386,168,386 M168,384c-13.3,0-24,10.7-24,24
	s10.7,24,24,24s24-10.7,24-24S181.3,384,168,384L168,384z"/>
<path class="st6" d="M168,388c-11,0-20,9-20,20s9,20,20,20s20-9,20-20S179,388,168,388z M168,426c-9.9,0-18-8.1-18-18s8.1-18,18-18
	s18,8.1,18,18S177.9,426,168,426z"/>
<g>
	<path class="st7" d="M176.6,408.3L168,394l-0.2,0.6v18.5l0.2,0.2L176.6,408.3z"/>
	<path class="st8" d="M168,413.3V394l-8.6,14.3L168,413.3z"/>
	<path class="st9" d="M167.9,421.7l0.1,0.3l8.6-12.1L168,415l-0.1,0.1V421.7z"/>
	<path class="st8" d="M168,415l-8.6-5.1L168,422V415z"/>
	<path class="st10" d="M168,413.3l8.6-5.1l-8.6-3.9V413.3z"/>
	<path class="st7" d="M168,404.4l-8.6,3.9l8.6,5.1V404.4z"/>
</g>
<path class="st15" d="M312,215v-5l-6,6l6,6v-5c26,0,47,21,47,47v96c0,26-21,47-47,47v2c27.1,0,49-21.9,49-49v-96
	C361,236.9,339.1,215,312,215z"/>
<path class="st15" d="M216,23v-5l6,6l-6,6v-5c-26,0-47,21-47,47v96c0,26,21,47,47,47v2c-27.1,0-49-21.9-49-49V72
	C167,44.9,188.9,23,216,23z"/>
<path class="st15" d="M10.6,399c-2.2,0-4,1.8-4,4s1.8,4,4,4s4-1.8,4-4S12.8,399,10.6,399z M7.4,410.4c-2.8,0.6-5.8,2-5.8,4.1v2.5h18
	v-2.5c0-2.1-3-3.5-5.8-4.1c-0.7,1-1.9,1.6-3.2,1.6S8.1,411.4,7.4,410.4z"/>
<text transform="matrix(1 0 0 1 372.8728 281.7036)" class="st16 st17 st18">0.16 ETH × 4</text>
<g class="st19">
	<path class="st15" d="M373.5,293.1c-0.1-0.4-0.1-0.8-0.1-1.2c0-0.4,0-0.8,0.1-1.2c0.1-0.4,0.2-0.8,0.4-1.1c0.2-0.4,0.4-0.7,0.6-0.9
		s0.5-0.5,0.9-0.6c0.4-0.2,0.8-0.2,1.2-0.2s0.8,0.1,1.2,0.2c0.4,0.2,0.7,0.4,0.9,0.6s0.5,0.6,0.6,0.9c0.2,0.4,0.3,0.7,0.4,1.1
		c0.1,0.4,0.1,0.8,0.1,1.2c0,0.4,0,0.8-0.1,1.2c-0.1,0.4-0.2,0.8-0.4,1.1c-0.2,0.4-0.4,0.7-0.6,0.9c-0.2,0.3-0.5,0.5-0.9,0.6
		c-0.4,0.2-0.8,0.2-1.2,0.2s-0.8-0.1-1.2-0.2c-0.4-0.2-0.7-0.4-0.9-0.6c-0.2-0.3-0.5-0.6-0.6-0.9
		C373.7,293.8,373.6,293.4,373.5,293.1z M374.9,290.7c-0.1,0.3-0.1,0.7-0.1,1.1c0,0.4,0,0.8,0.1,1.1c0.1,0.3,0.2,0.6,0.3,0.9
		c0.1,0.3,0.3,0.5,0.6,0.7c0.2,0.2,0.5,0.2,0.8,0.2c0.3,0,0.6-0.1,0.8-0.2c0.2-0.2,0.4-0.4,0.6-0.7c0.1-0.3,0.2-0.6,0.3-0.9
		c0.1-0.3,0.1-0.7,0.1-1.1c0-0.4,0-0.8-0.1-1.1c-0.1-0.3-0.2-0.6-0.3-0.9c-0.1-0.3-0.3-0.5-0.6-0.6c-0.2-0.2-0.5-0.2-0.8-0.2
		c-0.3,0-0.6,0.1-0.8,0.2c-0.2,0.2-0.4,0.4-0.6,0.6C375.1,290.1,375,290.4,374.9,290.7z"/>
	<path class="st15" d="M380.6,295.2c0-0.2,0.1-0.4,0.2-0.5c0.2-0.2,0.3-0.2,0.6-0.2c0.2,0,0.4,0.1,0.6,0.2c0.2,0.2,0.2,0.3,0.2,0.5
		s-0.1,0.4-0.2,0.6c-0.2,0.2-0.3,0.2-0.6,0.2c-0.2,0-0.4-0.1-0.6-0.2C380.7,295.6,380.6,295.4,380.6,295.2z"/>
	<path class="st15" d="M382,290.2l2.3-2.3h1.2v8h-1.4v-6.2l-1.3,1.4L382,290.2z"/>
	<path class="st15" d="M386.9,291.9c0-0.8,0.1-1.5,0.4-2.1c0.3-0.6,0.7-1.1,1.2-1.5s1.2-0.6,1.9-0.6c0.9,0,1.7,0.3,2.3,0.9l-0.7,1.1
		c-0.2-0.2-0.5-0.4-0.7-0.5c-0.3-0.1-0.6-0.2-0.9-0.2c-0.4,0-0.8,0.1-1.1,0.4c-0.3,0.2-0.6,0.6-0.7,1s-0.2,0.8-0.2,1.3
		c0,0.1,0,0.2,0,0.2c0.2-0.3,0.5-0.6,0.9-0.8c0.4-0.2,0.8-0.3,1.3-0.3c0.4,0,0.7,0.1,1,0.2c0.3,0.1,0.6,0.3,0.8,0.5s0.4,0.5,0.6,0.8
		c0.1,0.3,0.2,0.7,0.2,1.1c0,0.8-0.3,1.4-0.8,1.9c-0.5,0.5-1.3,0.8-2.1,0.8c-0.5,0-0.9-0.1-1.2-0.2s-0.7-0.3-0.9-0.6
		c-0.3-0.3-0.5-0.6-0.6-0.9c-0.2-0.4-0.3-0.7-0.4-1.1C386.9,292.7,386.9,292.3,386.9,291.9z M388.3,292.9c0,0.2,0,0.4,0.1,0.5
		c0,0.2,0.1,0.3,0.2,0.5c0.1,0.2,0.2,0.3,0.3,0.4c0.1,0.1,0.3,0.2,0.5,0.3c0.2,0.1,0.4,0.1,0.7,0.1c0.5,0,0.9-0.1,1.2-0.4
		c0.3-0.3,0.4-0.6,0.4-1c0-0.5-0.2-0.8-0.5-1.1c-0.3-0.2-0.7-0.4-1.2-0.4c-0.3,0-0.7,0.1-1,0.3C388.8,292.3,388.5,292.6,388.3,292.9
		z"/>
	<path class="st15" d="M397.5,295.8v-8h5.5v1.2h-4.1v2.1h4v1.2h-4v2.2h4.1v1.2H397.5z"/>
	<path class="st15" d="M403.9,289.1v-1.2h6.3v1.2h-2.4v6.8h-1.4v-6.8H403.9z"/>
	<path class="st15" d="M411.4,295.8v-8h1.4v3.3h4.2v-3.3h1.4v8h-1.4v-3.5h-4.2v3.5H411.4z"/>
	<path class="st15" d="M423,293.6l1.7-1.7l-1.7-1.7l0.6-0.6l1.7,1.7l1.7-1.7l0.6,0.6l-1.7,1.7l1.7,1.7l-0.6,0.6l-1.7-1.7l-1.7,1.7
		L423,293.6z"/>
	<path class="st15" d="M431.7,294v-1.1l3.3-5.1h1.9v5h1.1v1.2h-1.1v1.8h-1.4V294H431.7z M433.1,292.8h2.4v-3.7L433.1,292.8z"/>
</g>
<text transform="matrix(1 0 0 1 373.8728 335.7036)" class="st16 st17 st20">0.64 ETH</text>
<g class="st19">
	<path class="st15" d="M373.6,328.1c-0.2-1.2-0.3-2.4-0.3-3.6s0.1-2.5,0.3-3.6s0.6-2.3,1.1-3.3s1.1-2,1.9-2.8s1.6-1.4,2.7-1.9
		c1.1-0.5,2.3-0.7,3.6-0.7s2.5,0.2,3.6,0.7s2,1.1,2.7,1.9c0.7,0.8,1.4,1.7,1.9,2.8s0.9,2.2,1.1,3.3s0.3,2.4,0.3,3.6
		s-0.1,2.5-0.3,3.6c-0.2,1.2-0.6,2.3-1.1,3.4c-0.5,1.1-1.1,2-1.9,2.8c-0.7,0.8-1.6,1.4-2.7,1.9c-1.1,0.5-2.3,0.7-3.6,0.7
		s-2.5-0.2-3.6-0.7c-1.1-0.5-2-1.1-2.7-1.9c-0.7-0.8-1.4-1.7-1.9-2.8C374.2,330.4,373.8,329.3,373.6,328.1z M377.8,321.2
		c-0.2,1-0.3,2.1-0.3,3.3s0.1,2.3,0.3,3.3c0.2,1,0.5,1.9,0.9,2.8c0.4,0.8,1,1.5,1.7,1.9s1.5,0.7,2.5,0.7c0.9,0,1.8-0.2,2.5-0.7
		c0.7-0.5,1.3-1.1,1.7-1.9c0.4-0.8,0.7-1.7,0.9-2.8c0.2-1,0.3-2.1,0.3-3.3s-0.1-2.3-0.3-3.3c-0.2-1-0.5-1.9-0.9-2.7
		c-0.4-0.8-1-1.5-1.7-1.9c-0.7-0.5-1.5-0.7-2.5-0.7c-0.9,0-1.8,0.2-2.5,0.7s-1.3,1.1-1.7,1.9C378.3,319.2,378,320.2,377.8,321.2z"/>
	<path class="st15" d="M394.9,334.5c0-0.6,0.2-1.2,0.7-1.6s1-0.7,1.7-0.7c0.6,0,1.2,0.2,1.7,0.7c0.5,0.5,0.7,1,0.7,1.6
		s-0.2,1.2-0.7,1.7c-0.5,0.5-1,0.7-1.7,0.7s-1.2-0.2-1.7-0.7C395.1,335.7,394.9,335.1,394.9,334.5z"/>
	<path class="st15" d="M402.4,324.5c0-2.4,0.4-4.5,1.2-6.3s2-3.3,3.6-4.4c1.6-1.1,3.5-1.7,5.8-1.7c2.8,0,5.1,0.9,6.9,2.6l-2,3.2
		c-0.7-0.7-1.4-1.2-2.2-1.6c-0.8-0.3-1.7-0.5-2.8-0.5c-1.3,0-2.4,0.4-3.4,1.1c-1,0.7-1.7,1.7-2.2,2.9s-0.7,2.5-0.7,3.9
		c0,0.3,0,0.6,0,0.7c0.6-0.9,1.5-1.7,2.7-2.4c1.2-0.7,2.4-1,3.8-1c1.1,0,2.1,0.2,3.1,0.5c1,0.3,1.8,0.8,2.5,1.5
		c0.7,0.6,1.3,1.5,1.8,2.5c0.4,1,0.6,2.1,0.6,3.4c0,2.3-0.8,4.2-2.5,5.7c-1.6,1.5-3.8,2.3-6.4,2.3c-1.4,0-2.6-0.2-3.7-0.7
		s-2-1-2.8-1.8c-0.8-0.8-1.4-1.7-1.9-2.7c-0.5-1.1-0.9-2.2-1.1-3.4C402.5,327.1,402.4,325.9,402.4,324.5z M406.7,327.5
		c0,0.6,0.1,1.1,0.3,1.6s0.4,1,0.6,1.5c0.3,0.5,0.6,0.9,1,1.3c0.4,0.4,0.9,0.7,1.5,0.9c0.6,0.2,1.2,0.3,2,0.3c1.5,0,2.7-0.4,3.5-1.3
		c0.9-0.9,1.3-1.8,1.3-2.9c0-1.4-0.5-2.5-1.4-3.2c-0.9-0.7-2.1-1.1-3.5-1.1c-1,0-2,0.3-2.9,0.8C408.1,326,407.3,326.7,406.7,327.5z"
		/>
	<path class="st15" d="M423.6,331v-3.4l9.9-15.2h5.8v14.9h3.2v3.7h-3.2v5.4H435V331H423.6z M427.7,327.3h7.3v-11.1L427.7,327.3z"/>
	<path class="st15" d="M455.2,336.4v-24h16.5v3.7h-12.2v6.2h12v3.7h-12v6.7h12.2v3.7H455.2z"/>
	<path class="st15" d="M474.4,316.1v-3.7h18.8v3.7h-7.3v20.3h-4.2v-20.3H474.4z"/>
	<path class="st15" d="M496.7,336.4v-24h4.2v9.8h12.5v-9.8h4.2v24h-4.2V326H501v10.5H496.7z"/>
</g>
<text transform="matrix(1 0 0 1 108.1892 123.7036)" class="st16 st17 st18">0.16 ETH</text>
<g class="st19">
	<path class="st15" d="M110.2,120.9c-0.1-0.4-0.1-0.8-0.1-1.2s0-0.8,0.1-1.2c0.1-0.4,0.2-0.8,0.4-1.1c0.2-0.4,0.4-0.7,0.6-0.9
		s0.5-0.5,0.9-0.6c0.4-0.2,0.8-0.2,1.2-0.2s0.8,0.1,1.2,0.2c0.4,0.2,0.7,0.4,0.9,0.6s0.5,0.6,0.6,0.9c0.2,0.4,0.3,0.7,0.4,1.1
		c0.1,0.4,0.1,0.8,0.1,1.2s0,0.8-0.1,1.2c-0.1,0.4-0.2,0.8-0.4,1.1c-0.2,0.4-0.4,0.7-0.6,0.9c-0.2,0.3-0.5,0.5-0.9,0.6
		c-0.4,0.2-0.8,0.2-1.2,0.2s-0.8-0.1-1.2-0.2c-0.4-0.2-0.7-0.4-0.9-0.6c-0.2-0.3-0.5-0.6-0.6-0.9
		C110.4,121.7,110.2,121.3,110.2,120.9z M111.6,118.6c-0.1,0.3-0.1,0.7-0.1,1.1s0,0.8,0.1,1.1c0.1,0.3,0.2,0.6,0.3,0.9
		s0.3,0.5,0.6,0.6c0.2,0.2,0.5,0.2,0.8,0.2c0.3,0,0.6-0.1,0.8-0.2c0.2-0.2,0.4-0.4,0.6-0.6c0.1-0.3,0.2-0.6,0.3-0.9s0.1-0.7,0.1-1.1
		s0-0.8-0.1-1.1s-0.2-0.6-0.3-0.9c-0.1-0.3-0.3-0.5-0.6-0.6c-0.2-0.2-0.5-0.2-0.8-0.2c-0.3,0-0.6,0.1-0.8,0.2
		c-0.2,0.2-0.4,0.4-0.6,0.6S111.7,118.3,111.6,118.6z"/>
	<path class="st15" d="M117.3,123.1c0-0.2,0.1-0.4,0.2-0.5c0.2-0.2,0.3-0.2,0.6-0.2c0.2,0,0.4,0.1,0.6,0.2c0.2,0.2,0.2,0.3,0.2,0.5
		c0,0.2-0.1,0.4-0.2,0.6c-0.2,0.2-0.3,0.2-0.6,0.2c-0.2,0-0.4-0.1-0.6-0.2C117.4,123.5,117.3,123.3,117.3,123.1z"/>
	<path class="st15" d="M118.7,118l2.3-2.3h1.2v8h-1.4v-6.2l-1.3,1.4L118.7,118z"/>
	<path class="st15" d="M123.6,119.7c0-0.8,0.1-1.5,0.4-2.1c0.3-0.6,0.7-1.1,1.2-1.5s1.2-0.6,1.9-0.6c0.9,0,1.7,0.3,2.3,0.9l-0.7,1.1
		c-0.2-0.2-0.5-0.4-0.7-0.5s-0.6-0.2-0.9-0.2c-0.4,0-0.8,0.1-1.1,0.4c-0.3,0.2-0.6,0.6-0.7,1s-0.2,0.8-0.2,1.3c0,0.1,0,0.2,0,0.2
		c0.2-0.3,0.5-0.6,0.9-0.8c0.4-0.2,0.8-0.3,1.3-0.3c0.4,0,0.7,0.1,1,0.2s0.6,0.3,0.8,0.5s0.4,0.5,0.6,0.8c0.1,0.3,0.2,0.7,0.2,1.1
		c0,0.8-0.3,1.4-0.8,1.9c-0.5,0.5-1.3,0.8-2.1,0.8c-0.5,0-0.9-0.1-1.2-0.2s-0.7-0.3-0.9-0.6c-0.3-0.3-0.5-0.6-0.6-0.9
		c-0.2-0.4-0.3-0.7-0.4-1.1C123.6,120.6,123.6,120.2,123.6,119.7z M125,120.7c0,0.2,0,0.4,0.1,0.5c0,0.2,0.1,0.3,0.2,0.5
		c0.1,0.2,0.2,0.3,0.3,0.4c0.1,0.1,0.3,0.2,0.5,0.3c0.2,0.1,0.4,0.1,0.7,0.1c0.5,0,0.9-0.1,1.2-0.4c0.3-0.3,0.4-0.6,0.4-1
		c0-0.5-0.2-0.8-0.5-1.1c-0.3-0.2-0.7-0.4-1.2-0.4c-0.3,0-0.7,0.1-1,0.3C125.5,120.2,125.2,120.4,125,120.7z"/>
	<path class="st15" d="M134.2,123.7v-8h5.5v1.2h-4.1v2.1h4v1.2h-4v2.2h4.1v1.2H134.2z"/>
	<path class="st15" d="M140.6,116.9v-1.2h6.3v1.2h-2.4v6.8H143v-6.8H140.6z"/>
	<path class="st15" d="M148.1,123.7v-8h1.4v3.3h4.2v-3.3h1.4v8h-1.4v-3.5h-4.2v3.5H148.1z"/>
</g>
<text transform="matrix(1 0 0 1 21.1 390.3999)" class="st16 st17 st21">4</text>
<g class="st19">
	<path class="st15" d="M23.8,412.4v-2.3l6.6-10.1h3.9v9.9h2.1v2.5h-2.1v3.6h-2.8v-3.6H23.8z M26.5,409.9h4.9v-7.4L26.5,409.9z"/>
</g>
<path class="st15" d="M210,406c-1.1,0-2,0.9-2,2s0.9,2,2,2s2-0.9,2-2S211.1,406,210,406z M216,406c-1.1,0-2,0.9-2,2s0.9,2,2,2
	s2-0.9,2-2S217.1,406,216,406z M222,406c-1.1,0-2,0.9-2,2s0.9,2,2,2s2-0.9,2-2S223.1,406,222,406z"/>
<path class="st15" d="M210,310c-1.1,0-2,0.9-2,2s0.9,2,2,2s2-0.9,2-2S211.1,310,210,310z M216,310c-1.1,0-2,0.9-2,2s0.9,2,2,2
	s2-0.9,2-2S217.1,310,216,310z M222,310c-1.1,0-2,0.9-2,2s0.9,2,2,2s2-0.9,2-2S223.1,310,222,310z"/>
</svg>
