<?xml version="1.0" encoding="utf-8"?>
<!-- Generator: Adobe Illustrator 21.1.0, SVG Export Plug-In . SVG Version: 6.00 Build 0)  -->
<svg version="1.1" id="Layer_1" xmlns="http://www.w3.org/2000/svg" xmlns:xlink="http://www.w3.org/1999/xlink" x="0px" y="0px"
	 viewBox="0 0 624 624" style="enable-background:new 0 0 624 624;" xml:space="preserve">
<style type="text/css">
	.st0{display:none;fill:#F2F2F2;}
	.st1{fill:#555555;}
	.st2{opacity:0.15;fill:#5AC8FA;enable-background:new    ;}
	.st3{fill:#5AC8FA;}
	.st4{opacity:0.14;enable-background:new    ;}
	.st5{fill:#CECECE;}
	.st6{fill:#F9F9F9;}
	.st7{fill:#D0D0D0;}
	.st8{fill:#B1B1B1;}
	.st9{opacity:0.14;fill:#FFE620;enable-background:new    ;}
	.st10{fill:#FFE620;}
	.st11{opacity:0.14;fill:#04DE71;enable-background:new    ;}
	.st12{fill:#04DE71;}
	.st13{display:none;fill:#666666;enable-background:new    ;}
	.st14{font-family:'ProximaNova-Semibold';}
	.st15{font-size:12px;}
	.st16{display:none;enable-background:new    ;}
	.st17{display:inline;fill:#666666;}
	.st18{fill:#D2D2D2;}
	.st19{fill:#888888;}
	.st20{enable-background:new    ;}
</style>
<rect class="st0" width="624" height="624"/>
<g>
	<rect x="311" y="238" class="st1" width="2" height="52"/>
</g>
<g>
	<rect x="311" y="142" class="st1" width="2" height="52"/>
</g>
<g>
	<rect x="311" y="46" class="st1" width="2" height="52"/>
</g>
<g>
	<rect x="311" y="334" class="st1" width="2" height="52"/>
</g>
<g>
	<rect x="311" y="430" class="st1" width="2" height="52"/>
</g>
<g>
	<rect x="215" y="430" class="st1" width="2" height="52"/>
</g>
<g>
	<rect x="311" y="526" class="st1" width="2" height="52"/>
</g>
<g>
	<path class="st1" d="M199.8,518.8l-64.9,64.9c0.5,0.4,1,0.9,1.4,1.4l64.9-64.9C200.7,519.8,200.2,519.3,199.8,518.8z"/>
	<path class="st1" d="M295.8,326.8l-64.9,64.9c0.5,0.4,1,0.9,1.4,1.4l64.9-64.9C296.7,327.8,296.2,327.3,295.8,326.8z"/>
</g>
<g>
	<rect x="215" y="526" class="st1" width="2" height="52"/>
</g>
<path class="st2" d="M336,216c0-13.3-10.7-24-24-24s-24,10.7-24,24s10.7,24,24,24S336,229.3,336,216z"/>
<path class="st3" d="M312,194c12.1,0,22,9.9,22,22s-9.9,22-22,22s-22-9.9-22-22S299.9,194,312,194 M312,192c-13.3,0-24,10.7-24,24
	s10.7,24,24,24s24-10.7,24-24S325.3,192,312,192L312,192z"/>
<path class="st4" d="M312,196c-11,0-20,9-20,20s9,20,20,20s20-9,20-20S323,196,312,196z M312,234c-9.9,0-18-8.1-18-18s8.1-18,18-18
	s18,8.1,18,18S321.9,234,312,234z"/>
<g>
	<path class="st5" d="M320.6,216.3L312,202l-0.2,0.6v18.5l0.2,0.2L320.6,216.3z"/>
	<path class="st6" d="M312,221.3V202l-8.6,14.3L312,221.3z"/>
	<path class="st7" d="M311.9,229.7l0.1,0.3l8.6-12.1L312,223l-0.1,0.1V229.7z"/>
	<path class="st6" d="M312,223l-8.6-5.1L312,230V223z"/>
	<path class="st8" d="M312,221.3l8.6-5.1l-8.6-3.8V221.3z"/>
	<path class="st5" d="M312,212.4l-8.6,3.9l8.6,5.1V212.4z"/>
</g>
<path class="st2" d="M336,120c0-13.3-10.7-24-24-24s-24,10.7-24,24s10.7,24,24,24S336,133.3,336,120z"/>
<path class="st3" d="M312,98c12.1,0,22,9.9,22,22s-9.9,22-22,22s-22-9.9-22-22S299.9,98,312,98 M312,96c-13.3,0-24,10.7-24,24
	s10.7,24,24,24s24-10.7,24-24S325.3,96,312,96L312,96z"/>
<path class="st4" d="M312,100c-11,0-20,9-20,20s9,20,20,20s20-9,20-20S323,100,312,100z M312,138c-9.9,0-18-8.1-18-18s8.1-18,18-18
	s18,8.1,18,18S321.9,138,312,138z"/>
<g>
	<path class="st5" d="M320.6,120.3L312,106l-0.2,0.6v18.5l0.2,0.2L320.6,120.3z"/>
	<path class="st6" d="M312,125.3V106l-8.6,14.3L312,125.3z"/>
	<path class="st7" d="M311.9,133.7l0.1,0.3l8.6-12.1L312,127l-0.1,0.1V133.7z"/>
	<path class="st6" d="M312,127l-8.6-5.1L312,134V127z"/>
	<path class="st8" d="M312,125.3l8.6-5.1l-8.6-3.8V125.3z"/>
	<path class="st5" d="M312,116.4l-8.6,3.9l8.6,5.1V116.4z"/>
</g>
<path class="st2" d="M336,24c0-13.3-10.7-24-24-24s-24,10.7-24,24s10.7,24,24,24S336,37.3,336,24z"/>
<path class="st3" d="M312,2c12.1,0,22,9.9,22,22s-9.9,22-22,22s-22-9.9-22-22S299.9,2,312,2 M312,0c-13.3,0-24,10.7-24,24
	s10.7,24,24,24s24-10.7,24-24S325.3,0,312,0L312,0z"/>
<path class="st4" d="M312,4c-11,0-20,9-20,20s9,20,20,20s20-9,20-20S323,4,312,4z M312,42c-9.9,0-18-8.1-18-18s8.1-18,18-18
	s18,8.1,18,18S321.9,42,312,42z"/>
<g>
	<path class="st5" d="M320.6,24.3L312,10l-0.2,0.6v18.5l0.2,0.2L320.6,24.3z"/>
	<path class="st6" d="M312,29.3V10l-8.6,14.3L312,29.3z"/>
	<path class="st7" d="M311.9,37.7L312,38l8.6-12.1L312,31l-0.1,0.1V37.7z"/>
	<path class="st6" d="M312,31l-8.6-5.1L312,38V31z"/>
	<path class="st8" d="M312,29.3l8.6-5.1l-8.6-3.8V29.3z"/>
	<path class="st5" d="M312,20.4l-8.6,3.9l8.6,5.1V20.4z"/>
</g>
<path class="st9" d="M336,312c0-13.3-10.7-24-24-24s-24,10.7-24,24s10.7,24,24,24S336,325.3,336,312z"/>
<path class="st10" d="M312,290c12.1,0,22,9.9,22,22s-9.9,22-22,22s-22-9.9-22-22S299.9,290,312,290 M312,288c-13.3,0-24,10.7-24,24
	s10.7,24,24,24s24-10.7,24-24S325.3,288,312,288L312,288z"/>
<path class="st4" d="M312,292c-11,0-20,9-20,20s9,20,20,20s20-9,20-20S323,292,312,292z M312,330c-9.9,0-18-8.1-18-18s8.1-18,18-18
	s18,8.1,18,18S321.9,330,312,330z"/>
<g>
	<path class="st5" d="M320.6,312.3L312,298l-0.2,0.6v18.5l0.2,0.2L320.6,312.3z"/>
	<path class="st6" d="M312,317.3V298l-8.6,14.3L312,317.3z"/>
	<path class="st7" d="M311.9,325.7l0.1,0.3l8.6-12.1L312,319l-0.1,0.1V325.7z"/>
	<path class="st6" d="M312,319l-8.6-5.1L312,326V319z"/>
	<path class="st8" d="M312,317.3l8.6-5.1l-8.6-3.9V317.3z"/>
	<path class="st5" d="M312,308.4l-8.6,3.9l8.6,5.1V308.4z"/>
</g>
<path class="st11" d="M336,408c0-13.3-10.7-24-24-24s-24,10.7-24,24s10.7,24,24,24S336,421.3,336,408z"/>
<path class="st12" d="M312,386c12.1,0,22,9.9,22,22s-9.9,22-22,22s-22-9.9-22-22S299.9,386,312,386 M312,384c-13.3,0-24,10.7-24,24
	s10.7,24,24,24s24-10.7,24-24S325.3,384,312,384L312,384z"/>
<path class="st4" d="M312,388c-11,0-20,9-20,20s9,20,20,20s20-9,20-20S323,388,312,388z M312,426c-9.9,0-18-8.1-18-18s8.1-18,18-18
	s18,8.1,18,18S321.9,426,312,426z"/>
<g>
	<path class="st5" d="M320.6,408.3L312,394l-0.2,0.6v18.5l0.2,0.2L320.6,408.3z"/>
	<path class="st6" d="M312,413.3V394l-8.6,14.3L312,413.3z"/>
	<path class="st7" d="M311.9,421.7l0.1,0.3l8.6-12.1L312,415l-0.1,0.1V421.7z"/>
	<path class="st6" d="M312,415l-8.6-5.1L312,422V415z"/>
	<path class="st8" d="M312,413.3l8.6-5.1l-8.6-3.9V413.3z"/>
	<path class="st5" d="M312,404.4l-8.6,3.9l8.6,5.1V404.4z"/>
</g>
<path class="st11" d="M240,408c0-13.3-10.7-24-24-24s-24,10.7-24,24s10.7,24,24,24S240,421.3,240,408z"/>
<path class="st12" d="M216,386c12.1,0,22,9.9,22,22s-9.9,22-22,22s-22-9.9-22-22S203.9,386,216,386 M216,384c-13.3,0-24,10.7-24,24
	s10.7,24,24,24s24-10.7,24-24S229.3,384,216,384L216,384z"/>
<path class="st4" d="M216,388c-11,0-20,9-20,20s9,20,20,20s20-9,20-20S227,388,216,388z M216,426c-9.9,0-18-8.1-18-18s8.1-18,18-18
	s18,8.1,18,18S225.9,426,216,426z"/>
<g>
	<path class="st5" d="M224.6,408.3L216,394l-0.2,0.6v18.5l0.2,0.2L224.6,408.3z"/>
	<path class="st6" d="M216,413.3V394l-8.6,14.3L216,413.3z"/>
	<path class="st7" d="M215.9,421.7l0.1,0.3l8.6-12.1L216,415l-0.1,0.1V421.7z"/>
	<path class="st6" d="M216,415l-8.6-5.1L216,422V415z"/>
	<path class="st8" d="M216,413.3l8.6-5.1l-8.6-3.9V413.3z"/>
	<path class="st5" d="M216,404.4l-8.6,3.9l8.6,5.1V404.4z"/>
</g>
<path class="st11" d="M336,504c0-13.3-10.7-24-24-24s-24,10.7-24,24s10.7,24,24,24S336,517.3,336,504z"/>
<path class="st12" d="M312,482c12.1,0,22,9.9,22,22c0,12.1-9.9,22-22,22s-22-9.9-22-22S299.9,482,312,482 M312,480
	c-13.3,0-24,10.7-24,24s10.7,24,24,24s24-10.7,24-24S325.3,480,312,480L312,480z"/>
<path class="st4" d="M312,484c-11,0-20,9-20,20s9,20,20,20s20-9,20-20S323,484,312,484z M312,522c-9.9,0-18-8.1-18-18
	c0-9.9,8.1-18,18-18s18,8.1,18,18C330,513.9,321.9,522,312,522z"/>
<g>
	<path class="st5" d="M320.6,504.3L312,490l-0.2,0.6v18.5l0.2,0.2L320.6,504.3z"/>
	<path class="st6" d="M312,509.3V490l-8.6,14.3L312,509.3z"/>
	<path class="st7" d="M311.9,517.7l0.1,0.3l8.6-12.1L312,511l-0.1,0.1V517.7z"/>
	<path class="st6" d="M312,511l-8.6-5.1L312,518V511z"/>
	<path class="st8" d="M312,509.3l8.6-5.1l-8.6-3.9V509.3z"/>
	<path class="st5" d="M312,500.4l-8.6,3.9l8.6,5.1V500.4z"/>
</g>
<path class="st11" d="M240,504c0-13.3-10.7-24-24-24s-24,10.7-24,24s10.7,24,24,24S240,517.3,240,504z"/>
<path class="st12" d="M216,482c12.1,0,22,9.9,22,22c0,12.1-9.9,22-22,22s-22-9.9-22-22S203.9,482,216,482 M216,480
	c-13.3,0-24,10.7-24,24s10.7,24,24,24s24-10.7,24-24S229.3,480,216,480L216,480z"/>
<path class="st4" d="M216,484c-11,0-20,9-20,20s9,20,20,20s20-9,20-20S227,484,216,484z M216,522c-9.9,0-18-8.1-18-18
	c0-9.9,8.1-18,18-18s18,8.1,18,18C234,513.9,225.9,522,216,522z"/>
<g>
	<path class="st5" d="M224.6,504.3L216,490l-0.2,0.6v18.5l0.2,0.2L224.6,504.3z"/>
	<path class="st6" d="M216,509.3V490l-8.6,14.3L216,509.3z"/>
	<path class="st7" d="M215.9,517.7l0.1,0.3l8.6-12.1L216,511l-0.1,0.1V517.7z"/>
	<path class="st6" d="M216,511l-8.6-5.1L216,518V511z"/>
	<path class="st8" d="M216,509.3l8.6-5.1l-8.6-3.9V509.3z"/>
	<path class="st5" d="M216,500.4l-8.6,3.9l8.6,5.1V500.4z"/>
</g>
<path class="st11" d="M336,600c0-13.3-10.7-24-24-24s-24,10.7-24,24s10.7,24,24,24S336,613.3,336,600z"/>
<path class="st12" d="M312,578c12.1,0,22,9.9,22,22s-9.9,22-22,22s-22-9.9-22-22S299.9,578,312,578 M312,576c-13.3,0-24,10.7-24,24
	s10.7,24,24,24s24-10.7,24-24S325.3,576,312,576L312,576z"/>
<path class="st4" d="M312,580c-11,0-20,9-20,20s9,20,20,20s20-9,20-20S323,580,312,580z M312,618c-9.9,0-18-8.1-18-18s8.1-18,18-18
	s18,8.1,18,18S321.9,618,312,618z"/>
<g>
	<path class="st5" d="M320.6,600.3L312,586l-0.2,0.6v18.5l0.2,0.2L320.6,600.3z"/>
	<path class="st6" d="M312,605.3V586l-8.6,14.3L312,605.3z"/>
	<path class="st7" d="M311.9,613.7l0.1,0.3l8.6-12.1L312,607l-0.1,0.1V613.7z"/>
	<path class="st6" d="M312,607l-8.6-5.1L312,614V607z"/>
	<path class="st8" d="M312,605.3l8.6-5.1l-8.6-3.9V605.3z"/>
	<path class="st5" d="M312,596.4l-8.6,3.9l8.6,5.1V596.4z"/>
</g>
<path class="st11" d="M144,600c0-13.3-10.7-24-24-24s-24,10.7-24,24s10.7,24,24,24S144,613.3,144,600z"/>
<path class="st12" d="M120,578c12.1,0,22,9.9,22,22s-9.9,22-22,22s-22-9.9-22-22S107.9,578,120,578 M120,576c-13.3,0-24,10.7-24,24
	s10.7,24,24,24s24-10.7,24-24S133.3,576,120,576L120,576z"/>
<path class="st4" d="M120,580c-11,0-20,9-20,20s9,20,20,20s20-9,20-20S131,580,120,580z M120,618c-9.9,0-18-8.1-18-18s8.1-18,18-18
	s18,8.1,18,18S129.9,618,120,618z"/>
<g>
	<path class="st5" d="M128.6,600.3L120,586l-0.2,0.6v18.5l0.2,0.2L128.6,600.3z"/>
	<path class="st6" d="M120,605.3V586l-8.6,14.3L120,605.3z"/>
	<path class="st7" d="M119.9,613.7l0.1,0.3l8.6-12.1L120,607l-0.1,0.1V613.7z"/>
	<path class="st6" d="M120,607l-8.6-5.1L120,614V607z"/>
	<path class="st8" d="M120,605.3l8.6-5.1l-8.6-3.9C120,596.3,120,605.3,120,605.3z"/>
	<path class="st5" d="M120,596.4l-8.6,3.9l8.6,5.1V596.4z"/>
</g>
<path class="st11" d="M240,600c0-13.3-10.7-24-24-24s-24,10.7-24,24s10.7,24,24,24S240,613.3,240,600z"/>
<path class="st12" d="M216,578c12.1,0,22,9.9,22,22s-9.9,22-22,22s-22-9.9-22-22S203.9,578,216,578 M216,576c-13.3,0-24,10.7-24,24
	s10.7,24,24,24s24-10.7,24-24S229.3,576,216,576L216,576z"/>
<path class="st4" d="M216,580c-11,0-20,9-20,20s9,20,20,20s20-9,20-20S227,580,216,580z M216,618c-9.9,0-18-8.1-18-18s8.1-18,18-18
	s18,8.1,18,18S225.9,618,216,618z"/>
<g>
	<path class="st5" d="M224.6,600.3L216,586l-0.2,0.6v18.5l0.2,0.2L224.6,600.3z"/>
	<path class="st6" d="M216,605.3V586l-8.6,14.3L216,605.3z"/>
	<path class="st7" d="M215.9,613.7l0.1,0.3l8.6-12.1L216,607l-0.1,0.1V613.7z"/>
	<path class="st6" d="M216,607l-8.6-5.1L216,614V607z"/>
	<path class="st8" d="M216,605.3l8.6-5.1l-8.6-3.9V605.3z"/>
	<path class="st5" d="M216,596.4l-8.6,3.9l8.6,5.1V596.4z"/>
</g>
<text transform="matrix(1 0 0 1 288.8728 260.7036)" class="st13 st14 st15">0.05 ETH</text>
<g class="st16">
	<path class="st17" d="M421.1,361.1c-0.1-0.4-0.1-0.8-0.1-1.2c0-0.4,0-0.8,0.1-1.2c0.1-0.4,0.2-0.8,0.4-1.1c0.2-0.4,0.4-0.7,0.6-0.9
		c0.2-0.2,0.5-0.5,0.9-0.6c0.4-0.2,0.8-0.2,1.2-0.2c0.4,0,0.8,0.1,1.2,0.2c0.4,0.2,0.7,0.4,0.9,0.6c0.2,0.2,0.5,0.6,0.6,0.9
		c0.2,0.4,0.3,0.7,0.4,1.1s0.1,0.8,0.1,1.2c0,0.4,0,0.8-0.1,1.2c-0.1,0.4-0.2,0.8-0.4,1.1c-0.2,0.4-0.4,0.7-0.6,0.9
		c-0.2,0.3-0.5,0.5-0.9,0.6c-0.4,0.2-0.8,0.2-1.2,0.2c-0.4,0-0.8-0.1-1.2-0.2c-0.4-0.2-0.7-0.4-0.9-0.6c-0.2-0.3-0.5-0.6-0.6-0.9
		C421.3,362,421.2,361.6,421.1,361.1z M422.6,358.9c-0.1,0.3-0.1,0.7-0.1,1.1s0,0.8,0.1,1.1c0.1,0.3,0.2,0.6,0.3,0.9
		c0.1,0.3,0.3,0.5,0.6,0.6c0.2,0.2,0.5,0.2,0.8,0.2s0.6-0.1,0.8-0.2c0.2-0.2,0.4-0.4,0.6-0.6c0.1-0.3,0.2-0.6,0.3-0.9
		c0.1-0.3,0.1-0.7,0.1-1.1s0-0.8-0.1-1.1c-0.1-0.3-0.2-0.6-0.3-0.9c-0.1-0.3-0.3-0.5-0.6-0.6c-0.2-0.2-0.5-0.2-0.8-0.2
		s-0.6,0.1-0.8,0.2c-0.2,0.2-0.4,0.4-0.6,0.6C422.7,358.1,422.6,358.6,422.6,358.9z"/>
	<path class="st17" d="M428.2,363.2c0-0.2,0.1-0.4,0.2-0.5c0.2-0.2,0.3-0.2,0.6-0.2c0.2,0,0.4,0.1,0.6,0.2c0.2,0.2,0.2,0.3,0.2,0.5
		s-0.1,0.4-0.2,0.6c-0.2,0.2-0.3,0.2-0.6,0.2c-0.2,0-0.4-0.1-0.6-0.2C428.3,363.6,428.2,363.5,428.2,363.2z"/>
	<path class="st17" d="M430.9,361.1c-0.1-0.4-0.1-0.8-0.1-1.2c0-0.4,0-0.8,0.1-1.2s0.2-0.8,0.4-1.1c0.2-0.4,0.4-0.7,0.6-0.9
		c0.2-0.2,0.5-0.5,0.9-0.6c0.4-0.2,0.8-0.2,1.2-0.2s0.8,0.1,1.2,0.2c0.4,0.2,0.7,0.4,0.9,0.6c0.2,0.2,0.5,0.6,0.6,0.9
		c0.2,0.4,0.3,0.7,0.4,1.1s0.1,0.8,0.1,1.2c0,0.4,0,0.8-0.1,1.2c-0.1,0.4-0.2,0.8-0.4,1.1c-0.2,0.4-0.4,0.7-0.6,0.9
		c-0.2,0.3-0.5,0.5-0.9,0.6c-0.4,0.2-0.8,0.2-1.2,0.2s-0.8-0.1-1.2-0.2c-0.4-0.2-0.7-0.4-0.9-0.6c-0.2-0.3-0.5-0.6-0.6-0.9
		C431.1,362,430.9,361.6,430.9,361.1z M432.3,358.9c-0.1,0.3-0.1,0.7-0.1,1.1s0,0.8,0.1,1.1c0.1,0.3,0.2,0.6,0.3,0.9
		c0.1,0.3,0.3,0.5,0.6,0.6c0.2,0.2,0.5,0.2,0.8,0.2s0.6-0.1,0.8-0.2c0.2-0.2,0.4-0.4,0.6-0.6c0.1-0.3,0.2-0.6,0.3-0.9
		c0.1-0.3,0.1-0.7,0.1-1.1s0-0.8-0.1-1.1c-0.1-0.3-0.2-0.6-0.4-0.9c-0.1-0.3-0.3-0.5-0.6-0.6c-0.2-0.2-0.5-0.2-0.8-0.2
		s-0.6,0.1-0.8,0.2c-0.2,0.2-0.4,0.4-0.6,0.6C432.3,358.1,432.3,358.6,432.3,358.9z"/>
	<path class="st17" d="M438.3,362.9l0.8-1c0.6,0.6,1.3,1,2.2,1c0.5,0,0.9-0.1,1.2-0.4c0.3-0.3,0.5-0.6,0.5-1s-0.1-0.8-0.4-1
		c-0.4-0.3-0.8-0.5-1.3-0.5c-0.7,0-1.3,0.2-1.8,0.7l-1-0.3V356h5.2v1.2h-3.8v2.3c0.2-0.2,0.5-0.4,0.8-0.5s0.7-0.2,1-0.2
		c0.5,0,0.9,0.1,1.2,0.3c0.4,0.2,0.7,0.5,0.9,0.9c0.2,0.4,0.4,0.9,0.4,1.4c0,0.8-0.3,1.5-0.8,2s-1.3,0.7-2.2,0.7
		C440,364,439,363.6,438.3,362.9z"/>
	<path class="st17" d="M448.8,364v-8h5.5v1.2h-4.1v2.1h4v1.2h-4v2.2h4.1v1.3L448.8,364L448.8,364z"/>
	<path class="st17" d="M455.2,357.1V356h6.3v1.2h-2.4v6.8h-1.4v-6.8h-2.5V357.1z"/>
	<path class="st17" d="M462.6,364v-8h1.4v3.3h4.2V356h1.4v8h-1.4v-3.5H464v3.5H462.6z"/>
</g>
<path class="st18" d="M360,599v2c27.1,0,49-21.9,49-49h-2C407,578,386,599,360,599z"/>
<rect x="407" y="360" class="st18" width="2" height="192"/>
<path class="st19" d="M360,311v2c26,0,47,21,47,47h2C409,332.9,387.1,311,360,311z"/>
<polygon class="st18" points="354,312 360,318 360,306 "/>
<path class="st19" d="M360,311v-5l-6,6l6,6v-5c26,0,47,21,47,47v192c0,26-21,47-47,47v2c27.1,0,49-21.9,49-49V360
	C409,332.9,387.1,311,360,311z"/>
<path class="st19" d="M264,23v-5l6,6l-6,6v-5c-26,0-47,21-47,47v192c0,26,21,47,47,47v2c-27.1,0-49-21.9-49-49V72
	C215,44.9,236.9,23,264,23z"/>
<path class="st19" d="M59.4,595c-2.2,0-4,1.8-4,4s1.8,4,4,4s4-1.8,4-4S61.6,595,59.4,595z M56.2,606.4c-2.8,0.6-5.8,2-5.8,4.1v2.5
	h18v-2.5c0-2.1-3-3.5-5.8-4.1c-0.7,1-1.9,1.6-3.2,1.6S56.9,607.4,56.2,606.4z"/>
<path class="st19" d="M258,598c-1.1,0-2,0.9-2,2s0.9,2,2,2s2-0.9,2-2S259.1,598,258,598z M264,598c-1.1,0-2,0.9-2,2s0.9,2,2,2
	s2-0.9,2-2S265.1,598,264,598z M270,598c-1.1,0-2,0.9-2,2s0.9,2,2,2s2-0.9,2-2S271.1,598,270,598z"/>
<path class="st19" d="M258,502c-1.1,0-2,0.9-2,2s0.9,2,2,2s2-0.9,2-2S259.1,502,258,502z M264,502c-1.1,0-2,0.9-2,2s0.9,2,2,2
	s2-0.9,2-2S265.1,502,264,502z M270,502c-1.1,0-2,0.9-2,2s0.9,2,2,2s2-0.9,2-2S271.1,502,270,502z"/>
<path class="st19" d="M258,406c-1.1,0-2,0.9-2,2s0.9,2,2,2s2-0.9,2-2S259.1,406,258,406z M264,406c-1.1,0-2,0.9-2,2s0.9,2,2,2
	s2-0.9,2-2S265.1,406,264,406z M270,406c-1.1,0-2,0.9-2,2s0.9,2,2,2s2-0.9,2-2S271.1,406,270,406z"/>
<g class="st20">
	<path class="st19" d="M72.1,608.3c0-1,0.3-1.8,1-2.6c0.7-0.7,1.5-1.3,2.6-1.6c-1-0.3-1.8-0.8-2.4-1.4c-0.6-0.6-0.9-1.4-0.9-2.4
		c0-0.7,0.2-1.3,0.5-1.9c0.3-0.6,0.8-1,1.4-1.3s1.2-0.6,1.9-0.7c0.7-0.2,1.4-0.2,2.1-0.2c0.6,0,1.1,0,1.7,0.1s1.1,0.3,1.6,0.5
		s1,0.5,1.3,0.8c0.4,0.3,0.7,0.7,0.9,1.2c0.2,0.5,0.3,1,0.3,1.6c0,1-0.3,1.7-0.9,2.4s-1.4,1.1-2.4,1.4c1,0.3,1.9,0.9,2.6,1.6
		s1,1.6,1,2.6c0,0.9-0.3,1.7-0.9,2.4s-1.3,1.2-2.2,1.5s-1.9,0.5-3,0.5s-2.1-0.2-3-0.5s-1.6-0.8-2.2-1.5S72.1,609.2,72.1,608.3z
		 M74.9,608c0,0.7,0.3,1.2,0.9,1.6c0.6,0.4,1.4,0.6,2.3,0.6s1.7-0.2,2.4-0.6c0.6-0.4,1-1,1-1.6c0-0.4-0.1-0.8-0.4-1.1
		c-0.2-0.3-0.6-0.6-0.9-0.8c-0.4-0.2-0.7-0.3-1.1-0.5s-0.7-0.2-0.9-0.2c-0.2,0-0.5,0.1-0.7,0.1s-0.6,0.2-0.9,0.3s-0.6,0.3-0.8,0.5
		c-0.2,0.2-0.5,0.4-0.6,0.7C75,607.3,74.9,607.6,74.9,608z M75.2,600.8c0,0.4,0.1,0.7,0.3,1c0.2,0.3,0.5,0.5,0.8,0.7s0.7,0.3,1,0.4
		c0.3,0.1,0.6,0.2,0.9,0.2s0.6-0.1,0.9-0.2c0.3-0.1,0.6-0.2,1-0.4c0.3-0.2,0.6-0.4,0.8-0.7c0.2-0.3,0.3-0.6,0.3-1
		c0-0.7-0.3-1.2-0.9-1.6c-0.6-0.4-1.3-0.6-2.2-0.6c-0.9,0-1.6,0.2-2.2,0.6C75.5,599.6,75.2,600.1,75.2,600.8z"/>
</g>
<g class="st20">
	<path class="st19" d="M154.8,168.9c-0.1-0.4-0.1-0.8-0.1-1.2s0-0.8,0.1-1.2s0.2-0.8,0.4-1.1c0.2-0.4,0.4-0.7,0.6-0.9
		s0.5-0.5,0.9-0.6c0.4-0.2,0.8-0.2,1.2-0.2s0.8,0.1,1.2,0.2c0.4,0.2,0.7,0.4,0.9,0.6s0.5,0.6,0.6,0.9c0.2,0.4,0.3,0.7,0.4,1.1
		c0.1,0.4,0.1,0.8,0.1,1.2s0,0.8-0.1,1.2s-0.2,0.8-0.4,1.1c-0.2,0.4-0.4,0.7-0.6,0.9c-0.2,0.3-0.5,0.5-0.9,0.6
		c-0.4,0.2-0.8,0.2-1.2,0.2s-0.8-0.1-1.2-0.2c-0.4-0.2-0.7-0.4-0.9-0.6c-0.2-0.3-0.5-0.6-0.6-0.9C155,169.7,154.9,169.3,154.8,168.9
		z M156.3,166.6c-0.1,0.3-0.1,0.7-0.1,1.1s0,0.8,0.1,1.1s0.2,0.6,0.3,0.9s0.3,0.5,0.6,0.6c0.2,0.2,0.5,0.2,0.8,0.2s0.6-0.1,0.8-0.2
		c0.2-0.2,0.4-0.4,0.6-0.6c0.1-0.3,0.2-0.6,0.3-0.9s0.1-0.7,0.1-1.1s0-0.8-0.1-1.1s-0.2-0.6-0.3-0.9c-0.1-0.3-0.3-0.5-0.6-0.6
		c-0.2-0.2-0.5-0.2-0.8-0.2s-0.6,0.1-0.8,0.2c-0.2,0.2-0.4,0.4-0.6,0.6S156.3,166.3,156.3,166.6z"/>
	<path class="st19" d="M161.9,171.1c0-0.2,0.1-0.4,0.2-0.5c0.2-0.2,0.3-0.2,0.6-0.2c0.2,0,0.4,0.1,0.6,0.2c0.2,0.2,0.2,0.3,0.2,0.5
		s-0.1,0.4-0.2,0.6c-0.2,0.2-0.3,0.2-0.6,0.2c-0.2,0-0.4-0.1-0.6-0.2C162,171.5,161.9,171.3,161.9,171.1z"/>
	<path class="st19" d="M164.5,170.6l0.8-0.9c0.3,0.3,0.6,0.5,1,0.7s0.8,0.3,1.2,0.3c0.5,0,0.9-0.1,1.2-0.3s0.4-0.5,0.4-0.9
		c0-0.8-0.6-1.1-1.8-1.1c-0.5,0-0.8,0-0.9,0V167c0.1,0,0.4,0,0.9,0s0.9-0.1,1.2-0.3s0.4-0.4,0.4-0.8c0-0.4-0.2-0.6-0.5-0.8
		s-0.7-0.3-1.2-0.3c-0.8,0-1.5,0.3-2.1,0.9l-0.7-0.9c0.3-0.4,0.7-0.7,1.2-0.9s1.1-0.3,1.7-0.3c0.9,0,1.6,0.2,2.1,0.6
		s0.8,0.9,0.8,1.6c0,0.3-0.1,0.5-0.2,0.7s-0.2,0.4-0.4,0.6s-0.4,0.3-0.6,0.4c-0.2,0.1-0.4,0.2-0.6,0.2c0.2,0,0.4,0.1,0.6,0.2
		c0.2,0.1,0.4,0.2,0.6,0.4c0.2,0.2,0.3,0.4,0.5,0.6s0.2,0.5,0.2,0.8c0,0.7-0.3,1.2-0.8,1.7s-1.3,0.6-2.2,0.6c-0.7,0-1.3-0.1-1.8-0.4
		S164.8,170.9,164.5,170.6z"/>
	<path class="st19" d="M171.6,164.9c0.3-0.4,0.8-0.7,1.3-0.9s1.1-0.3,1.6-0.3s1,0.1,1.4,0.3s0.8,0.5,1,0.8c0.3,0.4,0.4,0.8,0.4,1.3
		c0,0.4-0.1,0.7-0.2,1.1s-0.4,0.7-0.7,1.1s-0.7,0.7-1.1,1.1s-0.9,0.7-1.5,1.2h3.6v1.2h-5.8v-1.1c0.6-0.4,1-0.8,1.4-1.1
		s0.7-0.6,1.1-0.9c0.4-0.3,0.6-0.6,0.8-0.8s0.4-0.4,0.6-0.6s0.3-0.4,0.3-0.6c0.1-0.2,0.1-0.4,0.1-0.6c0-0.4-0.1-0.7-0.4-0.9
		s-0.6-0.3-1-0.3c-0.9,0-1.6,0.3-2.2,1L171.6,164.9z"/>
	<path class="st19" d="M182.2,171.7v-8h5.5v1.2h-4.1v2.1h4v1.2h-4v2.2h4.1v1.2h-5.5V171.7z"/>
	<path class="st19" d="M188.6,164.9v-1.2h6.3v1.2h-2.4v6.8H191v-6.8H188.6z"/>
	<path class="st19" d="M196.1,171.7v-8h1.4v3.3h4.2v-3.3h1.4v8h-1.4v-3.5h-4.2v3.5H196.1z"/>
</g>
<g class="st20">
	<path class="st19" d="M419.3,459.2c1-1.2,2.3-2.2,3.9-2.8c1.6-0.7,3.2-1,4.9-1c1.6,0,3,0.3,4.3,0.8s2.3,1.4,3.1,2.5s1.2,2.5,1.2,4
		c0,1.1-0.2,2.2-0.7,3.2s-1.2,2.2-2.2,3.3s-2.1,2.2-3.3,3.2s-2.7,2.2-4.4,3.5H437v3.7h-17.4v-3.3c1.7-1.3,3.1-2.4,4.2-3.2
		c1.1-0.9,2.2-1.8,3.3-2.7c1.1-0.9,1.9-1.7,2.5-2.3c0.6-0.6,1.2-1.3,1.7-1.9s0.8-1.3,1-1.8c0.2-0.6,0.3-1.1,0.3-1.7
		c0-1.2-0.4-2.1-1.3-2.7s-1.9-1-3.1-1c-2.6,0-4.8,1-6.5,2.9L419.3,459.2z"/>
	<path class="st19" d="M441.1,477.8c0-0.6,0.2-1.2,0.7-1.6s1-0.7,1.7-0.7c0.6,0,1.2,0.2,1.7,0.7s0.7,1,0.7,1.6s-0.2,1.2-0.7,1.7
		s-1,0.7-1.7,0.7s-1.2-0.2-1.7-0.7C441.4,479,441.1,478.4,441.1,477.8z"/>
	<path class="st19" d="M450.1,476.5l2.4-2.9c1.7,1.9,3.8,2.9,6.5,2.9c1.5,0,2.7-0.4,3.6-1.2c0.9-0.8,1.4-1.8,1.4-3
		c0-1.3-0.4-2.3-1.3-3.1c-0.9-0.8-2-1.2-3.5-1.2c-2,0-3.8,0.7-5.3,2.1l-3-0.9v-13.4h15.7v3.7h-11.5v6.9c0.6-0.6,1.4-1.1,2.4-1.5
		s2-0.6,3.1-0.6c1.4,0,2.6,0.3,3.7,0.9s2.1,1.5,2.8,2.7c0.7,1.2,1.1,2.6,1.1,4.2c0,2.5-0.8,4.4-2.5,5.9s-3.9,2.2-6.6,2.2
		C455.2,480.1,452.2,478.9,450.1,476.5z"/>
	<path class="st19" d="M471.2,467.7c0-2.4,0.4-4.5,1.2-6.3s2-3.3,3.6-4.4s3.5-1.7,5.8-1.7c2.8,0,5.1,0.9,6.9,2.6l-2,3.2
		c-0.7-0.7-1.4-1.2-2.2-1.6c-0.8-0.3-1.7-0.5-2.8-0.5c-1.3,0-2.4,0.4-3.4,1.1s-1.7,1.7-2.2,2.9s-0.7,2.5-0.7,3.9c0,0.3,0,0.6,0,0.7
		c0.6-0.9,1.5-1.7,2.7-2.4c1.2-0.7,2.4-1,3.8-1c1.1,0,2.1,0.2,3.1,0.5s1.8,0.8,2.5,1.5c0.7,0.6,1.3,1.5,1.8,2.5
		c0.4,1,0.6,2.1,0.6,3.4c0,2.3-0.8,4.2-2.5,5.7c-1.6,1.5-3.8,2.3-6.4,2.3c-1.4,0-2.6-0.2-3.7-0.7s-2-1-2.8-1.8s-1.4-1.7-1.9-2.7
		c-0.5-1.1-0.9-2.2-1.1-3.4C471.3,470.4,471.2,469.1,471.2,467.7z M475.4,470.8c0,0.6,0.1,1.1,0.3,1.6s0.4,1,0.6,1.5
		c0.3,0.5,0.6,0.9,1,1.3s0.9,0.7,1.5,0.9c0.6,0.2,1.2,0.3,2,0.3c1.5,0,2.7-0.4,3.5-1.3c0.9-0.9,1.3-1.8,1.3-2.9
		c0-1.4-0.5-2.5-1.4-3.2s-2.1-1.1-3.5-1.1c-1,0-2,0.3-2.9,0.8C476.8,469.2,476.1,469.9,475.4,470.8z"/>
	<path class="st19" d="M503.1,479.7v-24h16.5v3.7h-12.2v6.2h12v3.7h-12v6.7h12.2v3.7L503.1,479.7L503.1,479.7z"/>
	<path class="st19" d="M522.3,459.4v-3.7h18.8v3.7h-7.3v20.3h-4.2v-20.3H522.3z"/>
	<path class="st19" d="M544.6,479.7v-24h4.2v9.8h12.5v-9.8h4.2v24h-4.2v-10.5h-12.5v10.5H544.6z"/>
</g>
<g>
	<polygon class="st19" points="446.5,439.6 452,439.6 452,438.4 447.9,438.4 447.9,436.2 451.9,436.2 451.9,435 447.9,435 
		447.9,432.9 452,432.9 452,431.7 446.5,431.7 	"/>
	<polygon class="st19" points="452.9,432.9 455.4,432.9 455.4,439.7 456.8,439.7 456.8,432.9 459.2,432.9 459.2,431.7 452.9,431.7 	
		"/>
	<polygon class="st19" points="466,435 461.8,435 461.8,431.7 460.4,431.7 460.4,439.7 461.8,439.7 461.8,436.2 466,436.2 
		466,439.7 467.4,439.7 467.4,431.7 466,431.7 	"/>
	<polygon class="st19" points="476,433.4 474.3,435.1 472.6,433.4 472,434 473.7,435.7 472,437.4 472.6,438 474.3,436.3 476,438 
		476.6,437.4 474.9,435.7 476.6,434 	"/>
	<path class="st19" d="M486.6,436.4c-0.3-0.4-0.8-0.6-1.3-0.8c0.5-0.1,0.9-0.4,1.2-0.7c0.3-0.3,0.5-0.7,0.5-1.2
		c0-0.3-0.1-0.6-0.2-0.8c-0.2-0.2-0.3-0.4-0.5-0.6c-0.2-0.2-0.4-0.3-0.7-0.4c-0.3-0.1-0.5-0.2-0.8-0.2c-0.2-0.1-0.5-0.1-0.8-0.1
		c-0.4,0-0.8,0-1.1,0.1c-0.3,0.1-0.6,0.2-0.9,0.4c-0.3,0.2-0.5,0.4-0.7,0.7c-0.2,0.2-0.3,0.5-0.3,0.9c0,0.5,0.2,0.9,0.5,1.2
		s0.7,0.5,1.2,0.7c-0.5,0.2-1,0.4-1.3,0.8c-0.3,0.4-0.5,0.8-0.5,1.3c0,0.4,0.1,0.8,0.6,1.3c0.3,0.3,0.6,0.5,1.1,0.7
		c0.4,0.1,0.9,0.2,1.5,0.2c0.5,0,1,0,1.5-0.2c0.4-0.2,0.8-0.5,1.1-0.8c0.3-0.3,0.4-0.7,0.4-1.2S486.9,436.8,486.6,436.4z
		 M482.6,434.4c-0.1-0.2-0.2-0.3-0.2-0.5c0-0.3,0.1-0.6,0.5-0.8c0.3-0.2,0.7-0.3,1.1-0.3c0.5,0,0.8,0.1,1.1,0.3s0.4,0.5,0.4,0.8
		c0,0.2-0.1,0.4-0.2,0.5c-0.1,0.1-0.2,0.2-0.4,0.3c-0.2,0.1-0.4,0.2-0.5,0.2c-0.1,0-0.2,0.1-0.4,0.1s-0.4-0.1-0.5-0.1
		c-0.2,0-0.3-0.2-0.5-0.2C482.8,434.7,482.7,434.5,482.6,434.4z M485.2,438.3c-0.3,0.2-0.7,0.3-1.2,0.3s-0.9-0.1-1.2-0.3
		s-0.5-0.5-0.5-0.8c0-0.2,0-0.3,0.2-0.4c0.1-0.1,0.2-0.2,0.3-0.3c0.1,0,0.3-0.1,0.4-0.2c0.1-0.1,0.3-0.2,0.4-0.2
		c0.2-0.1,0.3-0.1,0.4-0.1c0.2,0,0.4,0.1,0.5,0.1c0.1,0,0.3,0.1,0.5,0.2c0.2,0.1,0.4,0.3,0.5,0.4c0.1,0.1,0.2,0.3,0.2,0.5
		C485.7,437.8,485.5,438.1,485.2,438.3z"/>
	<path class="st19" d="M425.4,433.4c-0.2-0.4-0.4-0.7-0.6-0.9s-0.5-0.5-0.9-0.6s-0.8-0.2-1.2-0.2s-0.8,0.1-1.2,0.2s-0.7,0.4-0.9,0.6
		s-0.5,0.6-0.6,0.9c-0.2,0.4-0.3,0.7-0.4,1.1c-0.1,0.4-0.1,0.8-0.1,1.2s0,0.8,0.1,1.2c0.1,0.4,0.2,0.8,0.4,1.1
		c0.2,0.4,0.4,0.7,0.6,0.9c0.2,0.3,0.5,0.5,0.9,0.6c0.4,0.2,0.8,0.2,1.2,0.2s0.8-0.1,1.2-0.2c0.4-0.2,0.7-0.4,0.9-0.6
		c0.2-0.3,0.5-0.6,0.6-0.9c0.2-0.4,0.3-0.7,0.4-1.1c0.1-0.4,0.1-0.8,0.1-1.2s0-0.8-0.1-1.2C425.7,434.1,425.6,433.7,425.4,433.4z
		 M424.4,436.8c-0.1,0.3-0.2,0.6-0.3,0.9c-0.1,0.3-0.3,0.5-0.6,0.6c-0.2,0.2-0.5,0.2-0.8,0.2s-0.6-0.1-0.8-0.2
		c-0.2-0.2-0.4-0.4-0.6-0.6c-0.1-0.3-0.2-0.6-0.3-0.9s-0.1-0.7-0.1-1.1s0-0.8,0.1-1.1s0.2-0.6,0.3-0.9c0.1-0.3,0.3-0.5,0.6-0.6
		c0.2-0.2,0.5-0.2,0.8-0.2s0.6,0.1,0.8,0.2c0.2,0.2,0.4,0.4,0.6,0.6c0.1,0.3,0.2,0.6,0.3,0.9s0.1,0.7,0.1,1.1
		S424.5,436.5,424.4,436.8z"/>
	<path class="st19" d="M427.5,438.3c-0.2,0-0.4,0.1-0.6,0.2c-0.2,0.2-0.2,0.3-0.2,0.5c0,0.2,0.1,0.4,0.2,0.6
		c0.2,0.2,0.3,0.2,0.6,0.2c0.2,0,0.4-0.1,0.6-0.2c0.2-0.2,0.2-0.3,0.2-0.6c0-0.2-0.1-0.4-0.2-0.5
		C427.9,438.4,427.7,438.3,427.5,438.3z"/>
	<path class="st19" d="M434.7,436.1c-0.2-0.2-0.4-0.3-0.6-0.4c-0.2-0.1-0.4-0.1-0.6-0.2c0.2,0,0.4-0.1,0.6-0.2
		c0.2-0.1,0.4-0.2,0.6-0.4s0.3-0.3,0.4-0.6s0.2-0.5,0.2-0.7c0-0.7-0.3-1.2-0.8-1.6s-1.2-0.6-2.1-0.6c-0.6,0-1.2,0.1-1.7,0.3
		c-0.5,0.2-0.9,0.5-1.2,0.9l0.7,0.9c0.6-0.6,1.3-0.9,2.1-0.9c0.5,0,0.9,0.1,1.2,0.3c0.3,0.2,0.5,0.5,0.5,0.8c0,0.4-0.1,0.6-0.4,0.8
		c-0.3,0.2-0.7,0.3-1.2,0.3c-0.5,0-0.8,0-0.9,0v1.3c0.1,0,0.4,0,0.9,0c1.2,0,1.8,0.4,1.8,1.1c0,0.4-0.1,0.7-0.4,0.9
		s-0.7,0.3-1.2,0.3c-0.4,0-0.8-0.1-1.2-0.3s-0.7-0.4-1-0.7l-0.8,0.9c0.3,0.4,0.7,0.7,1.2,0.9s1.1,0.4,1.8,0.4c0.9,0,1.6-0.2,2.2-0.6
		s0.8-1,0.8-1.7c0-0.3-0.1-0.6-0.2-0.8S434.9,436.3,434.7,436.1z"/>
	<path class="st19" d="M440.2,437.3c0.4-0.3,0.8-0.7,1.1-1.1s0.6-0.7,0.7-1.1s0.2-0.7,0.2-1.1c0-0.5-0.1-1-0.4-1.3
		c-0.3-0.4-0.6-0.7-1-0.8c-0.4-0.2-0.9-0.3-1.4-0.3c-0.6,0-1.1,0.1-1.6,0.3s-1,0.5-1.3,0.9l0.8,0.9c0.6-0.6,1.3-1,2.2-1
		c0.4,0,0.7,0.1,1,0.3s0.4,0.5,0.4,0.9c0,0.2,0,0.4-0.1,0.6c-0.1,0.2-0.2,0.4-0.3,0.6s-0.3,0.4-0.6,0.6s-0.5,0.5-0.8,0.8
		c-0.4,0.3-0.7,0.6-1.1,0.9c-0.4,0.3-0.8,0.6-1.4,1.1v1.1h5.8v-1.2h-3.6C439.3,438,439.8,437.6,440.2,437.3z"/>
</g>
</svg>
