<?xml version="1.0" encoding="utf-8"?>
<!-- Generator: Adobe Illustrator 21.1.0, SVG Export Plug-In . SVG Version: 6.00 Build 0)  -->
<svg version="1.1" id="Layer_1" xmlns="http://www.w3.org/2000/svg" xmlns:xlink="http://www.w3.org/1999/xlink" x="0px" y="0px"
	 viewBox="0 0 624 816" style="enable-background:new 0 0 624 816;" xml:space="preserve">
<style type="text/css">
	.st0{fill:none;}
	.st1{display:none;fill:#F2F2F2;}
	.st2{fill:#555555;}
	.st3{opacity:0.15;fill:#5AC8FA;enable-background:new    ;}
	.st4{fill:#5AC8FA;}
	.st5{opacity:0.14;enable-background:new    ;}
	.st6{fill:#CECECE;}
	.st7{fill:#F9F9F9;}
	.st8{fill:#D0D0D0;}
	.st9{fill:#B1B1B1;}
	.st10{opacity:0.14;fill:#FFE620;enable-background:new    ;}
	.st11{fill:#FFE620;}
	.st12{opacity:0.14;fill:#04DE71;enable-background:new    ;}
	.st13{fill:#04DE71;}
	.st14{display:none;fill:#666666;enable-background:new    ;}
	.st15{font-family:'ProximaNova-Semibold';}
	.st16{font-size:12px;}
	.st17{display:none;enable-background:new    ;}
	.st18{display:inline;fill:#666666;}
	.st19{fill:#D2D2D2;}
	.st20{display:none;fill:#D2D2D2;}
	.st21{fill:#888888;}
	.st22{display:none;fill:#888888;enable-background:new    ;}
	.st23{font-size:24px;}
	.st24{enable-background:new    ;}
	.st25{font-size:36px;}
</style>
<rect class="st0" width="624" height="816"/>
<rect class="st1" width="624" height="816"/>
<g>
	<rect x="311" y="334" class="st2" width="2" height="52"/>
</g>
<g>
	<rect x="311" y="240" class="st2" width="2" height="50"/>
</g>
<g>
	<rect x="311" y="142" class="st2" width="2" height="50"/>
</g>
<g>
	<rect x="311" y="430" class="st2" width="2" height="52"/>
</g>
<g>
	<rect x="311" y="624" class="st2" width="2" height="50"/>
</g>
<g>
	<rect x="215" y="624" class="st2" width="2" height="50"/>
</g>
<g>
	<rect x="311" y="526" class="st2" width="2" height="50"/>
</g>
<g>
	<rect x="215" y="526" class="st2" width="2" height="50"/>
</g>
<g>
	<rect x="311" y="718" class="st2" width="2" height="52"/>
</g>
<g>
	<rect x="215" y="718" class="st2" width="2" height="52"/>
</g>
<g>
	<rect x="311" y="46" class="st2" width="2" height="52"/>
</g>
<g>
	<path class="st2" d="M199.8,710.8l-64.9,64.9c0.5,0.4,1,0.9,1.4,1.4l64.9-64.9C200.7,711.8,200.2,711.3,199.8,710.8z"/>
	<path class="st2" d="M295.8,422.8l-64.9,64.9c0.5,0.4,1,0.9,1.4,1.4l64.9-64.9C296.7,423.8,296.2,423.3,295.8,422.8z"/>
</g>
<path class="st3" d="M336,312c0-13.3-10.7-24-24-24s-24,10.7-24,24s10.7,24,24,24S336,325.3,336,312z"/>
<path class="st4" d="M312,290c12.1,0,22,9.9,22,22s-9.9,22-22,22s-22-9.9-22-22S299.9,290,312,290 M312,288c-13.3,0-24,10.7-24,24
	s10.7,24,24,24s24-10.7,24-24S325.3,288,312,288L312,288z"/>
<path class="st5" d="M312,292c-11,0-20,9-20,20s9,20,20,20s20-9,20-20S323,292,312,292z M312,330c-9.9,0-18-8.1-18-18s8.1-18,18-18
	s18,8.1,18,18S321.9,330,312,330z"/>
<g>
	<path class="st6" d="M320.6,312.3L312,298l-0.2,0.6v18.5l0.2,0.2L320.6,312.3z"/>
	<path class="st7" d="M312,317.3V298l-8.6,14.3L312,317.3z"/>
	<path class="st8" d="M311.9,325.7l0.1,0.3l8.6-12.1L312,319l-0.1,0.1V325.7z"/>
	<path class="st7" d="M312,319l-8.6-5.1L312,326V319z"/>
	<path class="st9" d="M312,317.3l8.6-5.1l-8.6-3.8V317.3z"/>
	<path class="st6" d="M312,308.4l-8.6,3.9l8.6,5.1V308.4z"/>
</g>
<path class="st3" d="M336,120c0-13.3-10.7-24-24-24s-24,10.7-24,24s10.7,24,24,24S336,133.3,336,120z"/>
<path class="st4" d="M312,98c12.1,0,22,9.9,22,22s-9.9,22-22,22s-22-9.9-22-22S299.9,98,312,98 M312,96c-13.3,0-24,10.7-24,24
	s10.7,24,24,24s24-10.7,24-24S325.3,96,312,96L312,96z"/>
<path class="st5" d="M312,100c-11,0-20,9-20,20s9,20,20,20s20-9,20-20S323,100,312,100z M312,138c-9.9,0-18-8.1-18-18s8.1-18,18-18
	s18,8.1,18,18S321.9,138,312,138z"/>
<g>
	<path class="st6" d="M320.6,120.3L312,106l-0.2,0.6v18.5l0.2,0.2L320.6,120.3z"/>
	<path class="st7" d="M312,125.3V106l-8.6,14.3L312,125.3z"/>
	<path class="st8" d="M311.9,133.7l0.1,0.3l8.6-12.1L312,127l-0.1,0.1V133.7z"/>
	<path class="st7" d="M312,127l-8.6-5.1L312,134V127z"/>
	<path class="st9" d="M312,125.3l8.6-5.1l-8.6-3.8V125.3z"/>
	<path class="st6" d="M312,116.4l-8.6,3.9l8.6,5.1V116.4z"/>
</g>
<path class="st3" d="M336,24c0-13.3-10.7-24-24-24s-24,10.7-24,24s10.7,24,24,24S336,37.3,336,24z"/>
<path class="st4" d="M312,2c12.1,0,22,9.9,22,22s-9.9,22-22,22s-22-9.9-22-22S299.9,2,312,2 M312,0c-13.3,0-24,10.7-24,24
	s10.7,24,24,24s24-10.7,24-24S325.3,0,312,0L312,0z"/>
<path class="st5" d="M312,4c-11,0-20,9-20,20s9,20,20,20s20-9,20-20S323,4,312,4z M312,42c-9.9,0-18-8.1-18-18s8.1-18,18-18
	s18,8.1,18,18S321.9,42,312,42z"/>
<g>
	<path class="st6" d="M320.6,24.3L312,10l-0.2,0.6v18.5l0.2,0.2L320.6,24.3z"/>
	<path class="st7" d="M312,29.3V10l-8.6,14.3L312,29.3z"/>
	<path class="st8" d="M311.9,37.7L312,38l8.6-12.1L312,31l-0.1,0.1V37.7z"/>
	<path class="st7" d="M312,31l-8.6-5.1L312,38V31z"/>
	<path class="st9" d="M312,29.3l8.6-5.1l-8.6-3.8V29.3z"/>
	<path class="st6" d="M312,20.4l-8.6,3.9l8.6,5.1V20.4z"/>
</g>
<path class="st10" d="M336,408c0-13.3-10.7-24-24-24s-24,10.7-24,24s10.7,24,24,24S336,421.3,336,408z"/>
<path class="st11" d="M312,386c12.1,0,22,9.9,22,22s-9.9,22-22,22s-22-9.9-22-22S299.9,386,312,386 M312,384c-13.3,0-24,10.7-24,24
	s10.7,24,24,24s24-10.7,24-24S325.3,384,312,384L312,384z"/>
<path class="st5" d="M312,388c-11,0-20,9-20,20s9,20,20,20s20-9,20-20S323,388,312,388z M312,426c-9.9,0-18-8.1-18-18s8.1-18,18-18
	s18,8.1,18,18S321.9,426,312,426z"/>
<g>
	<path class="st6" d="M320.6,408.3L312,394l-0.2,0.6v18.5l0.2,0.2L320.6,408.3z"/>
	<path class="st7" d="M312,413.3V394l-8.6,14.3L312,413.3z"/>
	<path class="st8" d="M311.9,421.7l0.1,0.3l8.6-12.1L312,415l-0.1,0.1V421.7z"/>
	<path class="st7" d="M312,415l-8.6-5.1L312,422V415z"/>
	<path class="st9" d="M312,413.3l8.6-5.1l-8.6-3.9V413.3z"/>
	<path class="st6" d="M312,404.4l-8.6,3.9l8.6,5.1V404.4z"/>
</g>
<path class="st12" d="M336,504c0-13.3-10.7-24-24-24s-24,10.7-24,24s10.7,24,24,24S336,517.3,336,504z"/>
<path class="st13" d="M312,482c12.1,0,22,9.9,22,22c0,12.1-9.9,22-22,22s-22-9.9-22-22S299.9,482,312,482 M312,480
	c-13.3,0-24,10.7-24,24s10.7,24,24,24s24-10.7,24-24S325.3,480,312,480L312,480z"/>
<path class="st5" d="M312,484c-11,0-20,9-20,20s9,20,20,20s20-9,20-20S323,484,312,484z M312,522c-9.9,0-18-8.1-18-18
	c0-9.9,8.1-18,18-18s18,8.1,18,18C330,513.9,321.9,522,312,522z"/>
<g>
	<path class="st6" d="M320.6,504.3L312,490l-0.2,0.6v18.5l0.2,0.2L320.6,504.3z"/>
	<path class="st7" d="M312,509.3V490l-8.6,14.3L312,509.3z"/>
	<path class="st8" d="M311.9,517.7l0.1,0.3l8.6-12.1L312,511l-0.1,0.1V517.7z"/>
	<path class="st7" d="M312,511l-8.6-5.1L312,518V511z"/>
	<path class="st9" d="M312,509.3l8.6-5.1l-8.6-3.9V509.3z"/>
	<path class="st6" d="M312,500.4l-8.6,3.9l8.6,5.1V500.4z"/>
</g>
<path class="st12" d="M240,504c0-13.3-10.7-24-24-24s-24,10.7-24,24s10.7,24,24,24S240,517.3,240,504z"/>
<path class="st13" d="M216,482c12.1,0,22,9.9,22,22c0,12.1-9.9,22-22,22s-22-9.9-22-22S203.9,482,216,482 M216,480
	c-13.3,0-24,10.7-24,24s10.7,24,24,24s24-10.7,24-24S229.3,480,216,480L216,480z"/>
<path class="st5" d="M216,484c-11,0-20,9-20,20s9,20,20,20s20-9,20-20S227,484,216,484z M216,522c-9.9,0-18-8.1-18-18
	c0-9.9,8.1-18,18-18s18,8.1,18,18C234,513.9,225.9,522,216,522z"/>
<g>
	<path class="st6" d="M224.6,504.3L216,490l-0.2,0.6v18.5l0.2,0.2L224.6,504.3z"/>
	<path class="st7" d="M216,509.3V490l-8.6,14.3L216,509.3z"/>
	<path class="st8" d="M215.9,517.7l0.1,0.3l8.6-12.1L216,511l-0.1,0.1V517.7z"/>
	<path class="st7" d="M216,511l-8.6-5.1L216,518V511z"/>
	<path class="st9" d="M216,509.3l8.6-5.1l-8.6-3.9V509.3z"/>
	<path class="st6" d="M216,500.4l-8.6,3.9l8.6,5.1V500.4z"/>
</g>
<path class="st12" d="M336,696c0-13.3-10.7-24-24-24s-24,10.7-24,24s10.7,24,24,24S336,709.3,336,696z"/>
<path class="st13" d="M312,674c12.1,0,22,9.9,22,22s-9.9,22-22,22s-22-9.9-22-22S299.9,674,312,674 M312,672c-13.3,0-24,10.7-24,24
	s10.7,24,24,24s24-10.7,24-24S325.3,672,312,672L312,672z"/>
<path class="st5" d="M312,676c-11,0-20,9-20,20s9,20,20,20s20-9,20-20S323,676,312,676z M312,714c-9.9,0-18-8.1-18-18s8.1-18,18-18
	s18,8.1,18,18S321.9,714,312,714z"/>
<g>
	<path class="st6" d="M320.6,696.3L312,682l-0.2,0.6v18.5l0.2,0.2L320.6,696.3z"/>
	<path class="st7" d="M312,701.3V682l-8.6,14.3L312,701.3z"/>
	<path class="st8" d="M311.9,709.7l0.1,0.3l8.6-12.1L312,703l-0.1,0.1V709.7z"/>
	<path class="st7" d="M312,703l-8.6-5.1L312,710V703z"/>
	<path class="st9" d="M312,701.3l8.6-5.1l-8.6-3.9V701.3z"/>
	<path class="st6" d="M312,692.4l-8.6,3.9l8.6,5.1V692.4z"/>
</g>
<path class="st12" d="M240,696c0-13.3-10.7-24-24-24s-24,10.7-24,24s10.7,24,24,24S240,709.3,240,696z"/>
<path class="st13" d="M216,674c12.1,0,22,9.9,22,22s-9.9,22-22,22s-22-9.9-22-22S203.9,674,216,674 M216,672c-13.3,0-24,10.7-24,24
	s10.7,24,24,24s24-10.7,24-24S229.3,672,216,672L216,672z"/>
<path class="st5" d="M216,676c-11,0-20,9-20,20s9,20,20,20s20-9,20-20S227,676,216,676z M216,714c-9.9,0-18-8.1-18-18s8.1-18,18-18
	s18,8.1,18,18S225.9,714,216,714z"/>
<g>
	<path class="st6" d="M224.6,696.3L216,682l-0.2,0.6v18.5l0.2,0.2L224.6,696.3z"/>
	<path class="st7" d="M216,701.3V682l-8.6,14.3L216,701.3z"/>
	<path class="st8" d="M215.9,709.7l0.1,0.3l8.6-12.1L216,703l-0.1,0.1V709.7z"/>
	<path class="st7" d="M216,703l-8.6-5.1L216,710V703z"/>
	<path class="st9" d="M216,701.3l8.6-5.1l-8.6-3.9V701.3z"/>
	<path class="st6" d="M216,692.4l-8.6,3.9l8.6,5.1V692.4z"/>
</g>
<path class="st12" d="M336,792c0-13.3-10.7-24-24-24s-24,10.7-24,24s10.7,24,24,24S336,805.3,336,792z"/>
<path class="st13" d="M312,770c12.1,0,22,9.9,22,22s-9.9,22-22,22s-22-9.9-22-22S299.9,770,312,770 M312,768c-13.3,0-24,10.7-24,24
	s10.7,24,24,24s24-10.7,24-24S325.3,768,312,768L312,768z"/>
<path class="st5" d="M312,772c-11,0-20,9-20,20s9,20,20,20s20-9,20-20S323,772,312,772z M312,810c-9.9,0-18-8.1-18-18s8.1-18,18-18
	s18,8.1,18,18S321.9,810,312,810z"/>
<g>
	<path class="st6" d="M320.6,792.3L312,778l-0.2,0.6v18.5l0.2,0.2L320.6,792.3z"/>
	<path class="st7" d="M312,797.3V778l-8.6,14.3L312,797.3z"/>
	<path class="st8" d="M311.9,805.7l0.1,0.3l8.6-12.1L312,799l-0.1,0.1V805.7z"/>
	<path class="st7" d="M312,799l-8.6-5.1L312,806V799z"/>
	<path class="st9" d="M312,797.3l8.6-5.1l-8.6-3.9V797.3z"/>
	<path class="st6" d="M312,788.4l-8.6,3.9l8.6,5.1V788.4z"/>
</g>
<path class="st12" d="M144,792c0-13.3-10.7-24-24-24s-24,10.7-24,24s10.7,24,24,24S144,805.3,144,792z"/>
<path class="st13" d="M120,770c12.1,0,22,9.9,22,22s-9.9,22-22,22s-22-9.9-22-22S107.9,770,120,770 M120,768c-13.3,0-24,10.7-24,24
	s10.7,24,24,24s24-10.7,24-24S133.3,768,120,768L120,768z"/>
<path class="st5" d="M120,772c-11,0-20,9-20,20s9,20,20,20s20-9,20-20S131,772,120,772z M120,810c-9.9,0-18-8.1-18-18s8.1-18,18-18
	s18,8.1,18,18S129.9,810,120,810z"/>
<g>
	<path class="st6" d="M128.6,792.3L120,778l-0.2,0.6v18.5l0.2,0.2L128.6,792.3z"/>
	<path class="st7" d="M120,797.3V778l-8.6,14.3L120,797.3z"/>
	<path class="st8" d="M119.9,805.7l0.1,0.3l8.6-12.1L120,799l-0.1,0.1V805.7z"/>
	<path class="st7" d="M120,799l-8.6-5.1L120,806V799z"/>
	<path class="st9" d="M120,797.3l8.6-5.1l-8.6-3.9C120,788.3,120,797.3,120,797.3z"/>
	<path class="st6" d="M120,788.4l-8.6,3.9l8.6,5.1V788.4z"/>
</g>
<path class="st12" d="M240,792c0-13.3-10.7-24-24-24s-24,10.7-24,24s10.7,24,24,24S240,805.3,240,792z"/>
<path class="st13" d="M216,770c12.1,0,22,9.9,22,22s-9.9,22-22,22s-22-9.9-22-22S203.9,770,216,770 M216,768c-13.3,0-24,10.7-24,24
	s10.7,24,24,24s24-10.7,24-24S229.3,768,216,768L216,768z"/>
<path class="st5" d="M216,772c-11,0-20,9-20,20s9,20,20,20s20-9,20-20S227,772,216,772z M216,810c-9.9,0-18-8.1-18-18s8.1-18,18-18
	s18,8.1,18,18S225.9,810,216,810z"/>
<g>
	<path class="st6" d="M224.6,792.3L216,778l-0.2,0.6v18.5l0.2,0.2L224.6,792.3z"/>
	<path class="st7" d="M216,797.3V778l-8.6,14.3L216,797.3z"/>
	<path class="st8" d="M215.9,805.7l0.1,0.3l8.6-12.1L216,799l-0.1,0.1V805.7z"/>
	<path class="st7" d="M216,799l-8.6-5.1L216,806V799z"/>
	<path class="st9" d="M216,797.3l8.6-5.1l-8.6-3.9V797.3z"/>
	<path class="st6" d="M216,788.4l-8.6,3.9l8.6,5.1V788.4z"/>
</g>
<text transform="matrix(1 0 0 1 288.8728 356.7036)" class="st14 st15 st16">0.05 ETH</text>
<g class="st17">
	<path class="st18" d="M421.1,457.1c-0.1-0.4-0.1-0.8-0.1-1.2c0-0.4,0-0.8,0.1-1.2c0.1-0.4,0.2-0.8,0.4-1.1c0.2-0.4,0.4-0.7,0.6-0.9
		c0.2-0.2,0.5-0.5,0.9-0.6c0.4-0.2,0.8-0.2,1.2-0.2c0.4,0,0.8,0.1,1.2,0.2c0.4,0.2,0.7,0.4,0.9,0.6c0.2,0.2,0.5,0.6,0.6,0.9
		c0.2,0.4,0.3,0.7,0.4,1.1s0.1,0.8,0.1,1.2c0,0.4,0,0.8-0.1,1.2c-0.1,0.4-0.2,0.8-0.4,1.1c-0.2,0.4-0.4,0.7-0.6,0.9
		c-0.2,0.3-0.5,0.5-0.9,0.6c-0.4,0.2-0.8,0.2-1.2,0.2c-0.4,0-0.8-0.1-1.2-0.2c-0.4-0.2-0.7-0.4-0.9-0.6c-0.2-0.3-0.5-0.6-0.6-0.9
		C421.3,458,421.2,457.6,421.1,457.1z M422.6,454.9c-0.1,0.3-0.1,0.7-0.1,1.1s0,0.8,0.1,1.1c0.1,0.3,0.2,0.6,0.3,0.9
		c0.1,0.3,0.3,0.5,0.6,0.6c0.2,0.2,0.5,0.2,0.8,0.2s0.6-0.1,0.8-0.2c0.2-0.2,0.4-0.4,0.6-0.6c0.1-0.3,0.2-0.6,0.3-0.9
		c0.1-0.3,0.1-0.7,0.1-1.1s0-0.8-0.1-1.1c-0.1-0.3-0.2-0.6-0.3-0.9c-0.1-0.3-0.3-0.5-0.6-0.6c-0.2-0.2-0.5-0.2-0.8-0.2
		s-0.6,0.1-0.8,0.2c-0.2,0.2-0.4,0.4-0.6,0.6C422.7,454.1,422.6,454.6,422.6,454.9z"/>
	<path class="st18" d="M428.2,459.2c0-0.2,0.1-0.4,0.2-0.5c0.2-0.2,0.3-0.2,0.6-0.2c0.2,0,0.4,0.1,0.6,0.2c0.2,0.2,0.2,0.3,0.2,0.5
		s-0.1,0.4-0.2,0.6c-0.2,0.2-0.3,0.2-0.6,0.2c-0.2,0-0.4-0.1-0.6-0.2C428.3,459.6,428.2,459.5,428.2,459.2z"/>
	<path class="st18" d="M430.9,457.1c-0.1-0.4-0.1-0.8-0.1-1.2c0-0.4,0-0.8,0.1-1.2s0.2-0.8,0.4-1.1c0.2-0.4,0.4-0.7,0.6-0.9
		c0.2-0.2,0.5-0.5,0.9-0.6c0.4-0.2,0.8-0.2,1.2-0.2s0.8,0.1,1.2,0.2c0.4,0.2,0.7,0.4,0.9,0.6c0.2,0.2,0.5,0.6,0.6,0.9
		c0.2,0.4,0.3,0.7,0.4,1.1s0.1,0.8,0.1,1.2c0,0.4,0,0.8-0.1,1.2c-0.1,0.4-0.2,0.8-0.4,1.1c-0.2,0.4-0.4,0.7-0.6,0.9
		c-0.2,0.3-0.5,0.5-0.9,0.6c-0.4,0.2-0.8,0.2-1.2,0.2s-0.8-0.1-1.2-0.2c-0.4-0.2-0.7-0.4-0.9-0.6c-0.2-0.3-0.5-0.6-0.6-0.9
		C431.1,458,430.9,457.6,430.9,457.1z M432.3,454.9c-0.1,0.3-0.1,0.7-0.1,1.1s0,0.8,0.1,1.1c0.1,0.3,0.2,0.6,0.3,0.9
		c0.1,0.3,0.3,0.5,0.6,0.6c0.2,0.2,0.5,0.2,0.8,0.2s0.6-0.1,0.8-0.2c0.2-0.2,0.4-0.4,0.6-0.6c0.1-0.3,0.2-0.6,0.3-0.9
		c0.1-0.3,0.1-0.7,0.1-1.1s0-0.8-0.1-1.1c-0.1-0.3-0.2-0.6-0.4-0.9c-0.1-0.3-0.3-0.5-0.6-0.6c-0.2-0.2-0.5-0.2-0.8-0.2
		s-0.6,0.1-0.8,0.2c-0.2,0.2-0.4,0.4-0.6,0.6C432.3,454.1,432.3,454.6,432.3,454.9z"/>
	<path class="st18" d="M438.3,458.9l0.8-1c0.6,0.6,1.3,1,2.2,1c0.5,0,0.9-0.1,1.2-0.4c0.3-0.3,0.5-0.6,0.5-1s-0.1-0.8-0.4-1
		c-0.4-0.3-0.8-0.5-1.3-0.5c-0.7,0-1.3,0.2-1.8,0.7l-1-0.3V452h5.2v1.2h-3.8v2.3c0.2-0.2,0.5-0.4,0.8-0.5s0.7-0.2,1-0.2
		c0.5,0,0.9,0.1,1.2,0.3c0.4,0.2,0.7,0.5,0.9,0.9c0.2,0.4,0.4,0.9,0.4,1.4c0,0.8-0.3,1.5-0.8,2s-1.3,0.7-2.2,0.7
		C440,460,439,459.6,438.3,458.9z"/>
	<path class="st18" d="M448.8,460v-8h5.5v1.2h-4.1v2.1h4v1.2h-4v2.2h4.1v1.3L448.8,460L448.8,460z"/>
	<path class="st18" d="M455.2,453.1V452h6.3v1.2h-2.4v6.8h-1.4v-6.8h-2.5V453.1z"/>
	<path class="st18" d="M462.6,460v-8h1.4v3.3h4.2V452h1.4v8h-1.4v-3.5H464v3.5H462.6z"/>
</g>
<path class="st19" d="M360,791v2c27.1,0,49-21.9,49-49h-2C407,770,386,791,360,791z"/>
<rect x="407" y="456" class="st20" width="2" height="288"/>
<path class="st20" d="M360,407v2c26,0,47,21,47,47h2C409,428.9,387.1,407,360,407z"/>
<polygon class="st20" points="354,408 360,414 360,402 "/>
<path class="st21" d="M360,407v-5l-6,6l6,6v-5c26,0,47,21,47,47v288c0,26-21,47-47,47v2c27.1,0,49-21.9,49-49V456
	C409,428.9,387.1,407,360,407z"/>
<path class="st21" d="M264,23v-5l6,6l-6,6v-5c-26,0-47,21-47,47v288c0,26,21,47,47,47v2c-27.1,0-49-21.9-49-49V72
	C215,44.9,236.9,23,264,23z"/>
<path class="st21" d="M33.4,786.1c-2.2,0-4,1.8-4,4s1.8,4,4,4s4-1.8,4-4C37.4,787.9,35.6,786.1,33.4,786.1z M30.2,797.5
	c-2.8,0.6-5.8,2-5.8,4.1v2.5h18v-2.5c0-2.1-3-3.5-5.8-4.1c-0.7,1-1.9,1.6-3.2,1.6S30.9,798.5,30.2,797.5z"/>
<path class="st21" d="M258,790c-1.1,0-2,0.9-2,2s0.9,2,2,2s2-0.9,2-2S259.1,790,258,790z M264,790c-1.1,0-2,0.9-2,2s0.9,2,2,2
	s2-0.9,2-2S265.1,790,264,790z M270,790c-1.1,0-2,0.9-2,2s0.9,2,2,2s2-0.9,2-2S271.1,790,270,790z"/>
<path class="st21" d="M258,694c-1.1,0-2,0.9-2,2s0.9,2,2,2s2-0.9,2-2S259.1,694,258,694z M264,694c-1.1,0-2,0.9-2,2s0.9,2,2,2
	s2-0.9,2-2S265.1,694,264,694z M270,694c-1.1,0-2,0.9-2,2s0.9,2,2,2s2-0.9,2-2S271.1,694,270,694z"/>
<path class="st21" d="M258,502c-1.1,0-2,0.9-2,2s0.9,2,2,2s2-0.9,2-2S259.1,502,258,502z M264,502c-1.1,0-2,0.9-2,2s0.9,2,2,2
	s2-0.9,2-2S265.1,502,264,502z M270,502c-1.1,0-2,0.9-2,2s0.9,2,2,2s2-0.9,2-2S271.1,502,270,502z"/>
<path class="st21" d="M306,598c-1.1,0-2,0.9-2,2s0.9,2,2,2s2-0.9,2-2S307.1,598,306,598z M312,598c-1.1,0-2,0.9-2,2s0.9,2,2,2
	s2-0.9,2-2S313.1,598,312,598z M318,598c-1.1,0-2,0.9-2,2s0.9,2,2,2s2-0.9,2-2S319.1,598,318,598z"/>
<path class="st21" d="M210,598c-1.1,0-2,0.9-2,2s0.9,2,2,2s2-0.9,2-2S211.1,598,210,598z M216,598c-1.1,0-2,0.9-2,2s0.9,2,2,2
	s2-0.9,2-2S217.1,598,216,598z M222,598c-1.1,0-2,0.9-2,2s0.9,2,2,2s2-0.9,2-2S223.1,598,222,598z"/>
<path class="st21" d="M306,214c-1.1,0-2,0.9-2,2s0.9,2,2,2s2-0.9,2-2S307.1,214,306,214z M312,214c-1.1,0-2,0.9-2,2s0.9,2,2,2
	s2-0.9,2-2S313.1,214,312,214z M318,214c-1.1,0-2,0.9-2,2s0.9,2,2,2s2-0.9,2-2S319.1,214,318,214z"/>
<text transform="matrix(1 0 0 1 46.1001 803.2998)" class="st22 st15 st23">128</text>
<g class="st24">
	<path class="st21" d="M46.5,791.9l4.6-4.7h2.4v16h-2.8v-12.4l-2.6,2.7L46.5,791.9z"/>
	<path class="st21" d="M56.2,789.6c0.7-0.8,1.6-1.5,2.6-1.9s2.2-0.7,3.3-0.7c1.1,0,2,0.2,2.9,0.6c0.9,0.4,1.6,0.9,2.1,1.7
		c0.5,0.8,0.8,1.7,0.8,2.7c0,0.7-0.2,1.4-0.5,2.2s-0.8,1.4-1.4,2.2s-1.4,1.5-2.2,2.2s-1.8,1.5-2.9,2.3H68v2.5H56.4v-2.2
		c1.1-0.9,2.1-1.6,2.8-2.2c0.7-0.6,1.5-1.2,2.2-1.8c0.7-0.6,1.3-1.1,1.7-1.5c0.4-0.4,0.8-0.9,1.1-1.3c0.3-0.4,0.6-0.8,0.7-1.2
		s0.2-0.8,0.2-1.1c0-0.8-0.3-1.4-0.9-1.8s-1.3-0.6-2.1-0.6c-1.8,0-3.2,0.6-4.3,1.9L56.2,789.6z"/>
	<path class="st21" d="M70.5,799.2c0-1,0.3-1.8,1-2.6c0.7-0.7,1.5-1.3,2.6-1.6c-1-0.3-1.8-0.8-2.4-1.4c-0.6-0.6-0.9-1.4-0.9-2.4
		c0-0.7,0.2-1.3,0.5-1.9c0.3-0.5,0.8-1,1.4-1.3c0.6-0.3,1.2-0.6,1.9-0.7c0.7-0.2,1.4-0.2,2.1-0.2c0.6,0,1.1,0,1.7,0.1
		s1.1,0.3,1.6,0.5s1,0.5,1.3,0.8c0.4,0.3,0.7,0.7,0.9,1.2c0.2,0.5,0.3,1,0.3,1.6c0,1-0.3,1.7-0.9,2.4s-1.4,1.1-2.4,1.4
		c1,0.3,1.9,0.9,2.6,1.6s1,1.6,1,2.6c0,0.9-0.3,1.7-0.9,2.4c-0.6,0.7-1.3,1.2-2.2,1.5c-0.9,0.3-1.9,0.5-3,0.5c-1.1,0-2.1-0.2-3-0.5
		c-0.9-0.3-1.6-0.8-2.2-1.5C70.8,800.9,70.5,800.1,70.5,799.2z M73.3,798.9c0,0.7,0.3,1.2,0.9,1.6c0.6,0.4,1.4,0.6,2.3,0.6
		c0.9,0,1.7-0.2,2.4-0.6c0.6-0.4,1-1,1-1.6c0-0.4-0.1-0.8-0.4-1.1c-0.2-0.3-0.6-0.6-0.9-0.8c-0.4-0.2-0.7-0.3-1.1-0.5
		s-0.7-0.2-0.9-0.2c-0.2,0-0.5,0.1-0.7,0.1s-0.6,0.2-0.9,0.3c-0.3,0.1-0.6,0.3-0.8,0.5c-0.2,0.2-0.5,0.4-0.6,0.7
		S73.3,798.5,73.3,798.9z M73.6,791.7c0,0.4,0.1,0.7,0.3,1c0.2,0.3,0.5,0.5,0.8,0.7c0.3,0.2,0.7,0.3,1,0.4c0.3,0.1,0.6,0.2,0.9,0.2
		c0.3,0,0.6-0.1,0.9-0.2c0.3-0.1,0.6-0.2,1-0.4c0.3-0.2,0.6-0.4,0.8-0.7c0.2-0.3,0.3-0.6,0.3-1c0-0.7-0.3-1.2-0.9-1.6
		s-1.3-0.6-2.2-0.6c-0.9,0-1.6,0.2-2.2,0.6C73.9,790.5,73.6,791,73.6,791.7z"/>
</g>
<text transform="matrix(1 0 0 1 156.4529 219.7036)" class="st22 st15 st16">5.12 ETH</text>
<g class="st24">
	<path class="st21" d="M158.2,218.6l0.8-1c0.6,0.6,1.3,1,2.2,1c0.5,0,0.9-0.1,1.2-0.4c0.3-0.3,0.5-0.6,0.5-1c0-0.4-0.1-0.8-0.4-1
		c-0.3-0.3-0.7-0.4-1.2-0.4c-0.7,0-1.3,0.2-1.8,0.7l-1-0.3v-4.5h5.2v1.2h-3.8v2.3c0.2-0.2,0.5-0.4,0.8-0.5c0.3-0.1,0.7-0.2,1-0.2
		c0.5,0,0.9,0.1,1.2,0.3c0.4,0.2,0.7,0.5,0.9,0.9c0.2,0.4,0.4,0.9,0.4,1.4c0,0.8-0.3,1.5-0.8,2s-1.3,0.7-2.2,0.7
		C159.9,219.9,158.9,219.4,158.2,218.6z"/>
	<path class="st21" d="M165.3,219.1c0-0.2,0.1-0.4,0.2-0.5c0.2-0.2,0.3-0.2,0.6-0.2c0.2,0,0.4,0.1,0.6,0.2c0.2,0.2,0.2,0.3,0.2,0.5
		c0,0.2-0.1,0.4-0.2,0.6c-0.2,0.2-0.3,0.2-0.6,0.2c-0.2,0-0.4-0.1-0.6-0.2C165.4,219.5,165.3,219.3,165.3,219.1z"/>
	<path class="st21" d="M166.8,214l2.3-2.3h1.2v8h-1.4v-6.2l-1.3,1.4L166.8,214z"/>
	<path class="st21" d="M171.6,212.9c0.3-0.4,0.8-0.7,1.3-0.9s1.1-0.3,1.6-0.3c0.5,0,1,0.1,1.4,0.3c0.4,0.2,0.8,0.5,1,0.8
		c0.3,0.4,0.4,0.8,0.4,1.3c0,0.4-0.1,0.7-0.2,1.1s-0.4,0.7-0.7,1.1s-0.7,0.7-1.1,1.1s-0.9,0.7-1.5,1.2h3.6v1.2h-5.8v-1.1
		c0.6-0.4,1-0.8,1.4-1.1c0.4-0.3,0.7-0.6,1.1-0.9c0.4-0.3,0.6-0.6,0.8-0.8s0.4-0.4,0.6-0.6s0.3-0.4,0.3-0.6c0.1-0.2,0.1-0.4,0.1-0.6
		c0-0.4-0.1-0.7-0.4-0.9s-0.6-0.3-1-0.3c-0.9,0-1.6,0.3-2.2,1L171.6,212.9z"/>
	<path class="st21" d="M182.2,219.7v-8h5.5v1.2h-4.1v2.1h4v1.2h-4v2.2h4.1v1.2H182.2z"/>
	<path class="st21" d="M188.6,212.9v-1.2h6.3v1.2h-2.4v6.8H191v-6.8H188.6z"/>
	<path class="st21" d="M196.1,219.7v-8h1.4v3.3h4.2v-3.3h1.4v8h-1.4v-3.5h-4.2v3.5H196.1z"/>
</g>
<text transform="matrix(1 0 0 1 420.8728 583.7036)" class="st22 st15 st16">5.12 ETH × 128</text>
<g class="st24">
	<path class="st21" d="M421.5,582.6l0.8-1c0.6,0.6,1.3,1,2.2,1c0.5,0,0.9-0.1,1.2-0.4c0.3-0.3,0.5-0.6,0.5-1c0-0.4-0.1-0.8-0.4-1
		c-0.3-0.3-0.7-0.4-1.2-0.4c-0.7,0-1.3,0.2-1.8,0.7l-1-0.3v-4.5h5.2v1.2h-3.8v2.3c0.2-0.2,0.5-0.4,0.8-0.5c0.3-0.1,0.7-0.2,1-0.2
		c0.5,0,0.9,0.1,1.2,0.3c0.4,0.2,0.7,0.5,0.9,0.9c0.2,0.4,0.4,0.9,0.4,1.4c0,0.8-0.3,1.5-0.8,2c-0.6,0.5-1.3,0.7-2.2,0.7
		C423.2,583.8,422.2,583.4,421.5,582.6z"/>
	<path class="st21" d="M428.7,583.1c0-0.2,0.1-0.4,0.2-0.5c0.2-0.2,0.3-0.2,0.6-0.2c0.2,0,0.4,0.1,0.6,0.2c0.2,0.2,0.2,0.3,0.2,0.5
		s-0.1,0.4-0.2,0.6c-0.2,0.2-0.3,0.2-0.6,0.2c-0.2,0-0.4-0.1-0.6-0.2C428.8,583.5,428.7,583.3,428.7,583.1z"/>
	<path class="st21" d="M430.1,578l2.3-2.3h1.2v8h-1.4v-6.2l-1.3,1.4L430.1,578z"/>
	<path class="st21" d="M435,576.9c0.3-0.4,0.8-0.7,1.3-0.9c0.5-0.2,1.1-0.3,1.6-0.3c0.5,0,1,0.1,1.4,0.3c0.4,0.2,0.8,0.5,1,0.8
		c0.3,0.4,0.4,0.8,0.4,1.3c0,0.4-0.1,0.7-0.2,1.1s-0.4,0.7-0.7,1.1s-0.7,0.7-1.1,1.1s-0.9,0.7-1.5,1.2h3.6v1.2h-5.8v-1.1
		c0.6-0.4,1-0.8,1.4-1.1c0.4-0.3,0.7-0.6,1.1-0.9c0.4-0.3,0.6-0.6,0.8-0.8s0.4-0.4,0.6-0.6s0.3-0.4,0.3-0.6c0.1-0.2,0.1-0.4,0.1-0.6
		c0-0.4-0.1-0.7-0.4-0.9c-0.3-0.2-0.6-0.3-1-0.3c-0.9,0-1.6,0.3-2.2,1L435,576.9z"/>
	<path class="st21" d="M445.6,583.7v-8h5.5v1.2H447v2.1h4v1.2h-4v2.2h4.1v1.2H445.6z"/>
	<path class="st21" d="M452,576.9v-1.2h6.3v1.2h-2.4v6.8h-1.4v-6.8H452z"/>
	<path class="st21" d="M459.4,583.7v-8h1.4v3.3h4.2v-3.3h1.4v8H465v-3.5h-4.2v3.5H459.4z"/>
	<path class="st21" d="M471,581.4l1.7-1.7L471,578l0.6-0.6l1.7,1.7l1.7-1.7l0.6,0.6l-1.7,1.7l1.7,1.7L475,582l-1.7-1.7l-1.7,1.7
		L471,581.4z"/>
	<path class="st21" d="M479.6,578l2.3-2.3h1.2v8h-1.4v-6.2l-1.3,1.4L479.6,578z"/>
	<path class="st21" d="M484.5,576.9c0.3-0.4,0.8-0.7,1.3-0.9c0.5-0.2,1.1-0.3,1.6-0.3c0.5,0,1,0.1,1.4,0.3c0.4,0.2,0.8,0.5,1,0.8
		c0.3,0.4,0.4,0.8,0.4,1.3c0,0.4-0.1,0.7-0.2,1.1s-0.4,0.7-0.7,1.1s-0.7,0.7-1.1,1.1s-0.9,0.7-1.5,1.2h3.6v1.2h-5.8v-1.1
		c0.6-0.4,1-0.8,1.4-1.1c0.4-0.3,0.7-0.6,1.1-0.9c0.4-0.3,0.6-0.6,0.8-0.8s0.4-0.4,0.6-0.6s0.3-0.4,0.3-0.6c0.1-0.2,0.1-0.4,0.1-0.6
		c0-0.4-0.1-0.7-0.4-0.9c-0.3-0.2-0.6-0.3-1-0.3c-0.9,0-1.6,0.3-2.2,1L484.5,576.9z"/>
	<path class="st21" d="M491.6,581.7c0-0.5,0.2-0.9,0.5-1.3c0.3-0.4,0.8-0.6,1.3-0.8c-0.5-0.2-0.9-0.4-1.2-0.7
		c-0.3-0.3-0.5-0.7-0.5-1.2c0-0.4,0.1-0.7,0.3-0.9c0.2-0.3,0.4-0.5,0.7-0.7s0.6-0.3,0.9-0.4s0.7-0.1,1.1-0.1c0.3,0,0.6,0,0.8,0.1
		c0.3,0,0.5,0.1,0.8,0.2c0.3,0.1,0.5,0.2,0.7,0.4s0.3,0.4,0.5,0.6c0.1,0.2,0.2,0.5,0.2,0.8c0,0.5-0.2,0.9-0.5,1.2
		c-0.3,0.3-0.7,0.6-1.2,0.7c0.5,0.2,1,0.4,1.3,0.8c0.3,0.4,0.5,0.8,0.5,1.3c0,0.5-0.1,0.9-0.4,1.2c-0.3,0.3-0.7,0.6-1.1,0.8
		c-0.5,0.2-1,0.2-1.5,0.2c-0.6,0-1.1-0.1-1.5-0.2c-0.5-0.2-0.8-0.4-1.1-0.7C491.7,582.5,491.6,582.1,491.6,581.7z M493,581.5
		c0,0.3,0.2,0.6,0.5,0.8c0.3,0.2,0.7,0.3,1.2,0.3c0.5,0,0.9-0.1,1.2-0.3c0.3-0.2,0.5-0.5,0.5-0.8c0-0.2-0.1-0.4-0.2-0.5
		s-0.3-0.3-0.5-0.4c-0.2-0.1-0.4-0.2-0.5-0.2s-0.3-0.1-0.5-0.1c-0.1,0-0.2,0-0.4,0.1c-0.1,0-0.3,0.1-0.4,0.2s-0.3,0.2-0.4,0.2
		c-0.1,0.1-0.2,0.2-0.3,0.3C493,581.2,493,581.3,493,581.5z M493.1,577.9c0,0.2,0.1,0.3,0.2,0.5c0.1,0.1,0.2,0.3,0.4,0.3
		s0.3,0.2,0.5,0.2c0.1,0,0.3,0.1,0.5,0.1c0.2,0,0.3-0.1,0.4-0.1s0.3-0.1,0.5-0.2s0.3-0.2,0.4-0.3c0.1-0.1,0.2-0.3,0.2-0.5
		c0-0.3-0.1-0.6-0.4-0.8c-0.3-0.2-0.6-0.3-1.1-0.3c-0.4,0-0.8,0.1-1.1,0.3C493.3,577.3,493.1,577.6,493.1,577.9z"/>
</g>
<text transform="matrix(1 0 0 1 420.8728 623.7036)" class="st22 st15 st25">655.36 ETH</text>
<g class="st24">
	<path class="st21" d="M422.3,611.7c0-2.4,0.4-4.5,1.2-6.3s2-3.3,3.6-4.4c1.6-1.1,3.5-1.7,5.8-1.7c2.8,0,5.1,0.9,6.9,2.6l-2,3.2
		c-0.7-0.7-1.4-1.2-2.2-1.6c-0.8-0.3-1.7-0.5-2.8-0.5c-1.3,0-2.4,0.4-3.4,1.1c-1,0.7-1.7,1.7-2.2,2.9s-0.7,2.5-0.7,3.9
		c0,0.3,0,0.6,0,0.7c0.6-0.9,1.5-1.7,2.7-2.4c1.2-0.7,2.4-1,3.8-1c1.1,0,2.1,0.2,3.1,0.5c1,0.3,1.8,0.8,2.5,1.5
		c0.7,0.6,1.3,1.5,1.8,2.5c0.4,1,0.6,2.1,0.6,3.4c0,2.3-0.8,4.2-2.5,5.7c-1.6,1.5-3.8,2.3-6.4,2.3c-1.4,0-2.6-0.2-3.7-0.7
		s-2-1-2.8-1.8c-0.8-0.8-1.4-1.7-1.9-2.7c-0.5-1.1-0.9-2.2-1.1-3.4C422.5,614.4,422.3,613.1,422.3,611.7z M426.6,614.8
		c0,0.6,0.1,1.1,0.3,1.6s0.4,1,0.6,1.5c0.3,0.5,0.6,0.9,1,1.3c0.4,0.4,0.9,0.7,1.5,0.9c0.6,0.2,1.2,0.3,2,0.3c1.5,0,2.7-0.4,3.5-1.3
		c0.9-0.9,1.3-1.8,1.3-2.9c0-1.4-0.5-2.5-1.4-3.2c-0.9-0.7-2.1-1.1-3.5-1.1c-1,0-2,0.3-2.9,0.8C428,613.2,427.3,613.9,426.6,614.8z"
		/>
	<path class="st21" d="M444.5,620.5l2.4-2.9c1.7,1.9,3.8,2.9,6.5,2.9c1.5,0,2.7-0.4,3.6-1.2c0.9-0.8,1.4-1.8,1.4-3
		c0-1.3-0.4-2.3-1.3-3.1c-0.9-0.8-2-1.2-3.5-1.2c-2,0-3.8,0.7-5.3,2.1l-3-0.9v-13.4H461v3.7h-11.5v6.9c0.6-0.6,1.4-1.1,2.4-1.5
		s2-0.6,3.1-0.6c1.4,0,2.6,0.3,3.7,0.9c1.1,0.6,2.1,1.5,2.8,2.7c0.7,1.2,1.1,2.6,1.1,4.2c0,2.5-0.8,4.4-2.5,5.9
		c-1.7,1.5-3.9,2.2-6.6,2.2C449.6,624.1,446.6,622.9,444.5,620.5z"/>
	<path class="st21" d="M466.1,620.5l2.4-2.9c1.7,1.9,3.8,2.9,6.5,2.9c1.5,0,2.7-0.4,3.6-1.2c0.9-0.8,1.4-1.8,1.4-3
		c0-1.3-0.4-2.3-1.3-3.1c-0.9-0.8-2-1.2-3.5-1.2c-2,0-3.8,0.7-5.3,2.1l-3-0.9v-13.4h15.7v3.7h-11.5v6.9c0.6-0.6,1.4-1.1,2.4-1.5
		s2-0.6,3.1-0.6c1.4,0,2.6,0.3,3.7,0.9c1.1,0.6,2.1,1.5,2.8,2.7c0.7,1.2,1.1,2.6,1.1,4.2c0,2.5-0.8,4.4-2.5,5.9
		c-1.7,1.5-3.9,2.2-6.6,2.2C471.2,624.1,468.2,622.9,466.1,620.5z"/>
	<path class="st21" d="M487.5,621.8c0-0.6,0.2-1.2,0.7-1.6s1-0.7,1.7-0.7c0.6,0,1.2,0.2,1.7,0.7c0.5,0.5,0.7,1,0.7,1.6
		s-0.2,1.2-0.7,1.7c-0.5,0.5-1,0.7-1.7,0.7s-1.2-0.2-1.7-0.7C487.8,623,487.5,622.4,487.5,621.8z"/>
	<path class="st21" d="M495.3,620.3l2.3-2.8c0.8,0.9,1.8,1.6,3,2.1c1.2,0.5,2.4,0.8,3.7,0.8c1.6,0,2.8-0.3,3.7-1
		c0.9-0.7,1.3-1.6,1.3-2.7c0-2.3-1.8-3.4-5.3-3.4c-1.6,0-2.5,0-2.8,0v-3.8c0.3,0,1.2,0,2.8,0c1.5,0,2.7-0.3,3.6-0.8
		c0.9-0.5,1.3-1.3,1.3-2.4c0-1.1-0.5-1.9-1.4-2.5s-2.1-0.9-3.5-0.9c-2.4,0-4.4,0.9-6.2,2.7l-2.1-2.6c1-1.1,2.2-2.1,3.7-2.7
		c1.5-0.7,3.2-1,5.1-1c2.6,0,4.7,0.6,6.3,1.7s2.4,2.7,2.4,4.7c0,0.8-0.2,1.5-0.5,2.1c-0.3,0.7-0.7,1.2-1.2,1.7
		c-0.5,0.4-1.1,0.8-1.7,1.1c-0.6,0.3-1.2,0.5-1.9,0.6c0.6,0.1,1.2,0.2,1.9,0.5c0.6,0.3,1.2,0.6,1.8,1.1c0.6,0.5,1,1.1,1.4,1.8
		c0.4,0.7,0.5,1.6,0.5,2.4c0,2.1-0.8,3.7-2.5,5s-3.9,1.9-6.6,1.9c-2,0-3.8-0.4-5.4-1.1S496.2,621.4,495.3,620.3z"/>
	<path class="st21" d="M516.6,611.7c0-2.4,0.4-4.5,1.2-6.3s2-3.3,3.6-4.4c1.6-1.1,3.5-1.7,5.8-1.7c2.8,0,5.1,0.9,6.9,2.6l-2,3.2
		c-0.7-0.7-1.4-1.2-2.2-1.6c-0.8-0.3-1.7-0.5-2.8-0.5c-1.3,0-2.4,0.4-3.4,1.1c-1,0.7-1.7,1.7-2.2,2.9s-0.7,2.5-0.7,3.9
		c0,0.3,0,0.6,0,0.7c0.6-0.9,1.5-1.7,2.7-2.4c1.2-0.7,2.4-1,3.8-1c1.1,0,2.1,0.2,3.1,0.5c1,0.3,1.8,0.8,2.5,1.5
		c0.7,0.6,1.3,1.5,1.8,2.5c0.4,1,0.6,2.1,0.6,3.4c0,2.3-0.8,4.2-2.5,5.7c-1.6,1.5-3.8,2.3-6.4,2.3c-1.4,0-2.6-0.2-3.7-0.7
		s-2-1-2.8-1.8c-0.8-0.8-1.4-1.7-1.9-2.7c-0.5-1.1-0.9-2.2-1.1-3.4C516.7,614.4,516.6,613.1,516.6,611.7z M520.9,614.8
		c0,0.6,0.1,1.1,0.3,1.6s0.4,1,0.6,1.5c0.3,0.5,0.6,0.9,1,1.3c0.4,0.4,0.9,0.7,1.5,0.9c0.6,0.2,1.2,0.3,2,0.3c1.5,0,2.7-0.4,3.5-1.3
		c0.9-0.9,1.3-1.8,1.3-2.9c0-1.4-0.5-2.5-1.4-3.2c-0.9-0.7-2.1-1.1-3.5-1.1c-1,0-2,0.3-2.9,0.8C522.3,613.2,521.5,613.9,520.9,614.8
		z"/>
	<path class="st21" d="M548.5,623.7v-24H565v3.7h-12.2v6.2h12v3.7h-12v6.7H565v3.7H548.5z"/>
	<path class="st21" d="M567.8,603.4v-3.7h18.8v3.7h-7.3v20.3H575v-20.3H567.8z"/>
	<path class="st21" d="M590.1,623.7v-24h4.2v9.8h12.5v-9.8h4.2v24h-4.2v-10.5h-12.5v10.5H590.1z"/>
</g>
</svg>
