<?xml version="1.0" encoding="utf-8"?>
<!-- Generator: Adobe Illustrator 21.1.0, SVG Export Plug-In . SVG Version: 6.00 Build 0)  -->
<svg version="1.1" id="Layer_1" xmlns="http://www.w3.org/2000/svg" xmlns:xlink="http://www.w3.org/1999/xlink" x="0px" y="0px"
	 viewBox="0 0 318 48" style="enable-background:new 0 0 318 48;" xml:space="preserve">
<style type="text/css">
	.st0{display:none;fill:#333333;}
	.st1{opacity:0.14;fill:#FFE620;enable-background:new    ;}
	.st2{fill:#FFE620;}
	.st3{opacity:0.14;enable-background:new    ;}
	.st4{fill:#CECECE;}
	.st5{fill:#F9F9F9;}
	.st6{fill:#D0D0D0;}
	.st7{fill:#B1B1B1;}
	.st8{display:none;fill:#DFDFDF;}
	.st9{display:none;fill:#F2F4FF;enable-background:new    ;}
	.st10{font-family:'ProximaNova-Semibold';}
	.st11{font-size:48px;}
	.st12{enable-background:new    ;}
	.st13{fill:#F2F4FF;}
</style>
<rect class="st0" width="318" height="48"/>
<path class="st1" d="M24,0C10.7,0,0,10.7,0,24s10.7,24,24,24s24-10.7,24-24S37.3,0,24,0z"/>
<path class="st2" d="M24,2c12.1,0,22,9.9,22,22s-9.9,22-22,22S2,36.1,2,24S11.9,2,24,2 M24,0C10.7,0,0,10.7,0,24s10.7,24,24,24
	s24-10.7,24-24S37.3,0,24,0L24,0z"/>
<g>
	<path class="st3" d="M24,4C13,4,4,13,4,24s9,20,20,20s20-9,20-20S35,4,24,4z M24,42c-9.9,0-18-8.1-18-18S14.1,6,24,6s18,8.1,18,18
		S33.9,42,24,42z"/>
	<path class="st4" d="M32.6,24.3L24,10l-0.2,0.6v18.5l0.2,0.2L32.6,24.3z"/>
	<path class="st5" d="M24,29.3V10l-8.6,14.3L24,29.3z"/>
	<path class="st6" d="M23.9,37.7L24,38l8.6-12.1L24,31l-0.1,0.1V37.7z"/>
	<path class="st5" d="M24,31l-8.6-5.1L24,38V31z"/>
	<path class="st7" d="M24,29.3l8.6-5.1L24,20.3V29.3z"/>
	<path class="st4" d="M24,20.4l-8.6,3.9l8.6,5.1V20.4z"/>
</g>
<polygon class="st8" points="223.5,0 129,0 34.5,0 -60,0 -60,48 34.5,48 129,48 223.5,48 318,48 318,0 "/>
<text transform="matrix(1 0 0 1 62.9672 40.0005)" class="st9 st10 st11">20,000 ETH</text>
<g class="st12">
	<path class="st13" d="M64.9,12.6c1.4-1.6,3.1-2.9,5.2-3.8s4.3-1.3,6.6-1.3c2.1,0,4,0.4,5.7,1.1c1.7,0.7,3.1,1.9,4.2,3.4
		c1.1,1.5,1.6,3.3,1.6,5.4c0,1.4-0.3,2.9-0.9,4.3s-1.6,2.9-2.9,4.4c-1.3,1.5-2.7,2.9-4.3,4.3s-3.5,3-5.9,4.7h14.2V40H65.2v-4.4
		c2.3-1.7,4.2-3.2,5.6-4.3c1.5-1.2,2.9-2.3,4.4-3.5s2.5-2.2,3.4-3.1c0.8-0.8,1.6-1.7,2.2-2.6s1.1-1.7,1.4-2.4s0.4-1.5,0.4-2.3
		c0-1.6-0.6-2.8-1.7-3.7s-2.5-1.3-4.1-1.3c-3.5,0-6.4,1.3-8.6,3.9L64.9,12.6z"/>
	<path class="st13" d="M93.9,28.9c-0.3-1.6-0.5-3.2-0.5-4.8c0-1.7,0.2-3.3,0.5-4.8c0.3-1.6,0.8-3,1.5-4.5c0.7-1.4,1.5-2.7,2.5-3.7
		c1-1.1,2.2-1.9,3.6-2.5c1.5-0.6,3-0.9,4.8-0.9s3.3,0.3,4.8,0.9c1.5,0.6,2.7,1.5,3.6,2.5c1,1.1,1.8,2.3,2.5,3.7
		c0.7,1.4,1.2,2.9,1.5,4.5c0.3,1.6,0.5,3.2,0.5,4.8c0,1.7-0.2,3.3-0.5,4.8c-0.3,1.6-0.8,3.1-1.5,4.5c-0.7,1.4-1.5,2.7-2.5,3.7
		c-1,1.1-2.2,1.9-3.6,2.6c-1.5,0.6-3,0.9-4.8,0.9s-3.3-0.3-4.8-0.9c-1.5-0.6-2.7-1.5-3.6-2.6c-1-1.1-1.8-2.3-2.5-3.7
		S94.2,30.4,93.9,28.9z M99.6,19.6c-0.3,1.3-0.4,2.8-0.4,4.4c0,1.6,0.1,3.1,0.4,4.4c0.3,1.3,0.7,2.6,1.2,3.7c0.5,1.1,1.3,2,2.2,2.6
		s2,0.9,3.3,0.9s2.4-0.3,3.3-0.9s1.7-1.5,2.2-2.6c0.5-1.1,0.9-2.3,1.2-3.7s0.4-2.8,0.4-4.4c0-1.6-0.1-3.1-0.4-4.4
		c-0.3-1.3-0.7-2.6-1.2-3.7c-0.5-1.1-1.3-2-2.2-2.6s-2-0.9-3.3-0.9s-2.4,0.3-3.3,0.9s-1.7,1.5-2.2,2.6
		C100.2,17.1,99.8,18.3,99.6,19.6z"/>
	<path class="st13" d="M122.3,37.2c0-0.9,0.3-1.7,1-2.3s1.4-1,2.3-1c1,0,1.9,0.4,2.6,1.2c0.7,0.8,1.1,1.8,1.1,3.1
		c0,1.6-0.4,3.1-1.2,4.6s-1.9,2.7-3.3,3.6l-2.2-1.9c0.8-0.5,1.5-1.1,2.2-2s1.1-1.7,1.3-2.5c-0.3,0.1-0.6,0.1-0.8,0.1
		c-0.8,0-1.5-0.3-2.1-0.8C122.5,38.8,122.3,38,122.3,37.2z"/>
	<path class="st13" d="M132.8,28.9c-0.3-1.6-0.5-3.2-0.5-4.8c0-1.7,0.2-3.3,0.5-4.8c0.3-1.6,0.8-3,1.5-4.5c0.7-1.4,1.5-2.7,2.5-3.7
		c1-1.1,2.2-1.9,3.6-2.5c1.5-0.6,3-0.9,4.8-0.9s3.3,0.3,4.8,0.9c1.5,0.6,2.7,1.5,3.6,2.5c1,1.1,1.8,2.3,2.5,3.7
		c0.7,1.4,1.2,2.9,1.5,4.5c0.3,1.6,0.5,3.2,0.5,4.8c0,1.7-0.2,3.3-0.5,4.8c-0.3,1.6-0.8,3.1-1.5,4.5c-0.7,1.4-1.5,2.7-2.5,3.7
		c-1,1.1-2.2,1.9-3.6,2.6c-1.5,0.6-3,0.9-4.8,0.9s-3.3-0.3-4.8-0.9c-1.5-0.6-2.7-1.5-3.6-2.6c-1-1.1-1.8-2.3-2.5-3.7
		S133.1,30.4,132.8,28.9z M138.5,19.6c-0.3,1.3-0.4,2.8-0.4,4.4c0,1.6,0.1,3.1,0.4,4.4c0.3,1.3,0.7,2.6,1.2,3.7
		c0.5,1.1,1.3,2,2.2,2.6s2,0.9,3.3,0.9s2.4-0.3,3.3-0.9s1.7-1.5,2.2-2.6c0.5-1.1,0.9-2.3,1.2-3.7s0.4-2.8,0.4-4.4
		c0-1.6-0.1-3.1-0.4-4.4c-0.3-1.3-0.7-2.6-1.2-3.7c-0.5-1.1-1.3-2-2.2-2.6s-2-0.9-3.3-0.9s-2.4,0.3-3.3,0.9s-1.7,1.5-2.2,2.6
		C139.1,17.1,138.7,18.3,138.5,19.6z"/>
	<path class="st13" d="M162.3,28.9c-0.3-1.6-0.5-3.2-0.5-4.8c0-1.7,0.2-3.3,0.5-4.8c0.3-1.6,0.8-3,1.5-4.5c0.7-1.4,1.5-2.7,2.5-3.7
		c1-1.1,2.2-1.9,3.6-2.5s3-0.9,4.8-0.9s3.3,0.3,4.8,0.9c1.5,0.6,2.7,1.5,3.6,2.5c1,1.1,1.8,2.3,2.5,3.7c0.7,1.4,1.2,2.9,1.5,4.5
		c0.3,1.6,0.5,3.2,0.5,4.8c0,1.7-0.2,3.3-0.5,4.8c-0.3,1.6-0.8,3.1-1.5,4.5c-0.7,1.4-1.5,2.7-2.5,3.7c-1,1.1-2.2,1.9-3.6,2.6
		c-1.5,0.6-3,0.9-4.8,0.9s-3.3-0.3-4.8-0.9c-1.5-0.6-2.7-1.5-3.6-2.6c-1-1.1-1.8-2.3-2.5-3.7C163.1,31.9,162.6,30.4,162.3,28.9z
		 M168,19.6c-0.3,1.3-0.4,2.8-0.4,4.4c0,1.6,0.1,3.1,0.4,4.4c0.3,1.3,0.7,2.6,1.2,3.7c0.5,1.1,1.3,2,2.2,2.6c0.9,0.6,2,0.9,3.3,0.9
		s2.4-0.3,3.3-0.9c0.9-0.6,1.7-1.5,2.2-2.6c0.5-1.1,0.9-2.3,1.2-3.7c0.3-1.3,0.4-2.8,0.4-4.4c0-1.6-0.1-3.1-0.4-4.4
		c-0.3-1.3-0.7-2.6-1.2-3.7c-0.5-1.1-1.3-2-2.2-2.6c-0.9-0.6-2-0.9-3.3-0.9s-2.4,0.3-3.3,0.9c-0.9,0.6-1.7,1.5-2.2,2.6
		C168.7,17.1,168.3,18.3,168,19.6z"/>
	<path class="st13" d="M191.9,28.9c-0.3-1.6-0.5-3.2-0.5-4.8c0-1.7,0.2-3.3,0.5-4.8c0.3-1.6,0.8-3,1.5-4.5c0.7-1.4,1.5-2.7,2.5-3.7
		c1-1.1,2.2-1.9,3.6-2.5s3-0.9,4.8-0.9s3.3,0.3,4.8,0.9c1.5,0.6,2.7,1.5,3.6,2.5c1,1.1,1.8,2.3,2.5,3.7c0.7,1.4,1.2,2.9,1.5,4.5
		c0.3,1.6,0.5,3.2,0.5,4.8c0,1.7-0.2,3.3-0.5,4.8c-0.3,1.6-0.8,3.1-1.5,4.5c-0.7,1.4-1.5,2.7-2.5,3.7c-1,1.1-2.2,1.9-3.6,2.6
		c-1.5,0.6-3,0.9-4.8,0.9s-3.3-0.3-4.8-0.9c-1.5-0.6-2.7-1.5-3.6-2.6c-1-1.1-1.8-2.3-2.5-3.7C192.7,31.9,192.2,30.4,191.9,28.9z
		 M197.6,19.6c-0.3,1.3-0.4,2.8-0.4,4.4c0,1.6,0.1,3.1,0.4,4.4c0.3,1.3,0.7,2.6,1.2,3.7c0.5,1.1,1.3,2,2.2,2.6
		c0.9,0.6,2,0.9,3.3,0.9s2.4-0.3,3.3-0.9c0.9-0.6,1.7-1.5,2.2-2.6c0.5-1.1,0.9-2.3,1.2-3.7c0.3-1.3,0.4-2.8,0.4-4.4
		c0-1.6-0.1-3.1-0.4-4.4c-0.3-1.3-0.7-2.6-1.2-3.7c-0.5-1.1-1.3-2-2.2-2.6c-0.9-0.6-2-0.9-3.3-0.9s-2.4,0.3-3.3,0.9
		c-0.9,0.6-1.7,1.5-2.2,2.6C198.2,17.1,197.8,18.3,197.6,19.6z"/>
	<path class="st13" d="M234.7,40V8h21.9v4.9h-16.3v8.3h16v4.9h-16v8.9h16.3V40H234.7z"/>
	<path class="st13" d="M260.3,12.9V8h25v4.9h-9.7V40H270V12.9H260.3z"/>
	<path class="st13" d="M290.1,40V8h5.6v13.1h16.7V8h5.6v32h-5.6V26h-16.7v14H290.1z"/>
</g>
</svg>
