<?xml version="1.0" encoding="utf-8"?>
<!-- Generator: Adobe Illustrator 21.1.0, SVG Export Plug-In . SVG Version: 6.00 Build 0)  -->
<svg version="1.1" id="Layer_1" xmlns="http://www.w3.org/2000/svg" xmlns:xlink="http://www.w3.org/1999/xlink" x="0px" y="0px"
	 viewBox="0 0 290 48" style="enable-background:new 0 0 290 48;" xml:space="preserve">
<style type="text/css">
	.st0{opacity:0.14;fill:#FFE620;enable-background:new    ;}
	.st1{fill:#FFE620;}
	.st2{opacity:0.14;enable-background:new    ;}
	.st3{fill:#CECECE;}
	.st4{fill:#F9F9F9;}
	.st5{fill:#D0D0D0;}
	.st6{fill:#B1B1B1;}
	.st7{display:none;fill:#DFDFDF;}
	.st8{display:none;fill:#666666;enable-background:new    ;}
	.st9{font-family:'ProximaNova-Semibold';}
	.st10{font-size:48px;}
	.st11{enable-background:new    ;}
	.st12{fill:#F2F4FF;}
</style>
<path class="st0" d="M24,0C10.7,0,0,10.7,0,24s10.7,24,24,24s24-10.7,24-24S37.3,0,24,0z"/>
<path class="st1" d="M24,2c12.1,0,22,9.9,22,22s-9.9,22-22,22S2,36.1,2,24S11.9,2,24,2 M24,0C10.7,0,0,10.7,0,24s10.7,24,24,24
	s24-10.7,24-24S37.3,0,24,0L24,0z"/>
<g>
	<path class="st2" d="M24,4C13,4,4,13,4,24s9,20,20,20s20-9,20-20S35,4,24,4z M24,42c-9.9,0-18-8.1-18-18S14.1,6,24,6s18,8.1,18,18
		S33.9,42,24,42z"/>
	<path class="st3" d="M32.6,24.3L24,10l-0.2,0.6v18.5l0.2,0.2L32.6,24.3z"/>
	<path class="st4" d="M24,29.3V10l-8.6,14.3L24,29.3z"/>
	<path class="st5" d="M23.9,37.7L24,38l8.6-12.1L24,31l-0.1,0.1V37.7z"/>
	<path class="st4" d="M24,31l-8.6-5.1L24,38V31z"/>
	<path class="st6" d="M24,29.3l8.6-5.1L24,20.3V29.3z"/>
	<path class="st3" d="M24,20.4l-8.6,3.9l8.6,5.1V20.4z"/>
</g>
<polygon class="st7" points="195.5,0 101,0 6.5,0 -88,0 -88,48 6.5,48 101,48 195.5,48 290,48 290,0 "/>
<text transform="matrix(1 0 0 1 63.77 40.0005)" class="st8 st9 st10">3,500 ETH</text>
<g class="st11">
	<path class="st12" d="M64.9,35.4l3-3.7c1,1.2,2.3,2.2,3.9,2.9c1.6,0.7,3.2,1,4.9,1c2.1,0,3.7-0.4,4.9-1.3s1.8-2.1,1.8-3.6
		c0-3-2.3-4.5-7-4.5c-2.2,0-3.4,0-3.7,0v-5c0.4,0,1.6,0,3.7,0c2,0,3.6-0.4,4.8-1.1c1.2-0.7,1.8-1.8,1.8-3.2c0-1.4-0.6-2.6-1.8-3.3
		s-2.8-1.2-4.7-1.2c-3.1,0-5.9,1.2-8.3,3.6l-2.9-3.5c1.3-1.5,2.9-2.7,4.9-3.7s4.2-1.4,6.8-1.4c3.5,0,6.3,0.8,8.4,2.3
		c2.1,1.5,3.2,3.6,3.2,6.3c0,1-0.2,2-0.6,2.9c-0.4,0.9-0.9,1.6-1.6,2.2s-1.4,1.1-2.2,1.5c-0.8,0.4-1.6,0.7-2.5,0.8
		c0.8,0.1,1.6,0.3,2.5,0.7c0.8,0.4,1.6,0.9,2.4,1.5c0.8,0.6,1.4,1.4,1.8,2.4c0.5,1,0.7,2.1,0.7,3.3c0,2.7-1.1,5-3.3,6.7
		s-5.1,2.6-8.8,2.6c-2.7,0-5.1-0.5-7.2-1.4C67.7,38.2,66.1,36.9,64.9,35.4z"/>
	<path class="st12" d="M93.8,37.2c0-0.9,0.3-1.7,1-2.3s1.4-1,2.3-1c1,0,1.9,0.4,2.6,1.2c0.7,0.8,1.1,1.8,1.1,3.1
		c0,1.6-0.4,3.1-1.2,4.6s-1.9,2.7-3.3,3.6l-2.2-1.9c0.8-0.5,1.5-1.1,2.2-2s1.1-1.7,1.3-2.5c-0.3,0.1-0.6,0.1-0.8,0.1
		c-0.8,0-1.5-0.3-2.1-0.8C94.1,38.8,93.8,38,93.8,37.2z"/>
	<path class="st12" d="M105.8,35.7l3.2-3.9c2.2,2.5,5.1,3.8,8.7,3.8c2,0,3.5-0.5,4.7-1.6c1.2-1.1,1.8-2.4,1.8-4
		c0-1.7-0.6-3.1-1.7-4.2c-1.2-1-2.7-1.6-4.7-1.6c-2.7,0-5.1,0.9-7,2.8l-4-1.2V8h21v4.9h-15.4v9.3c0.8-0.8,1.9-1.5,3.1-2
		s2.7-0.8,4.1-0.8c1.8,0,3.5,0.4,5,1.2c1.5,0.8,2.8,2,3.7,3.6c1,1.6,1.4,3.5,1.4,5.6c0,3.3-1.1,5.9-3.4,7.9c-2.2,2-5.2,2.9-8.8,2.9
		C112.5,40.6,108.6,39,105.8,35.7z"/>
	<path class="st12" d="M134.3,28.9c-0.3-1.6-0.5-3.2-0.5-4.8c0-1.7,0.2-3.3,0.5-4.8c0.3-1.6,0.8-3,1.5-4.5c0.7-1.4,1.5-2.7,2.5-3.7
		c1-1.1,2.2-1.9,3.6-2.5c1.5-0.6,3-0.9,4.8-0.9s3.3,0.3,4.8,0.9c1.5,0.6,2.7,1.5,3.6,2.5c1,1.1,1.8,2.3,2.5,3.7
		c0.7,1.4,1.2,2.9,1.5,4.5c0.3,1.6,0.5,3.2,0.5,4.8c0,1.7-0.2,3.3-0.5,4.8c-0.3,1.6-0.8,3.1-1.5,4.5c-0.7,1.4-1.5,2.7-2.5,3.7
		c-1,1.1-2.2,1.9-3.6,2.6c-1.5,0.6-3,0.9-4.8,0.9s-3.3-0.3-4.8-0.9c-1.5-0.6-2.7-1.5-3.6-2.6c-1-1.1-1.8-2.3-2.5-3.7
		S134.6,30.4,134.3,28.9z M140,19.6c-0.3,1.3-0.4,2.8-0.4,4.4c0,1.6,0.1,3.1,0.4,4.4c0.3,1.3,0.7,2.6,1.2,3.7c0.5,1.1,1.3,2,2.2,2.6
		s2,0.9,3.3,0.9s2.4-0.3,3.3-0.9s1.7-1.5,2.2-2.6c0.5-1.1,0.9-2.3,1.2-3.7s0.4-2.8,0.4-4.4c0-1.6-0.1-3.1-0.4-4.4
		c-0.3-1.3-0.7-2.6-1.2-3.7c-0.5-1.1-1.3-2-2.2-2.6s-2-0.9-3.3-0.9s-2.4,0.3-3.3,0.9s-1.7,1.5-2.2,2.6
		C140.6,17.1,140.2,18.3,140,19.6z"/>
	<path class="st12" d="M163.8,28.9c-0.3-1.6-0.5-3.2-0.5-4.8c0-1.7,0.2-3.3,0.5-4.8c0.3-1.6,0.8-3,1.5-4.5c0.7-1.4,1.5-2.7,2.5-3.7
		c1-1.1,2.2-1.9,3.6-2.5c1.5-0.6,3-0.9,4.8-0.9s3.3,0.3,4.8,0.9c1.5,0.6,2.7,1.5,3.6,2.5c1,1.1,1.8,2.3,2.5,3.7
		c0.7,1.4,1.2,2.9,1.5,4.5c0.3,1.6,0.5,3.2,0.5,4.8c0,1.7-0.2,3.3-0.5,4.8c-0.3,1.6-0.8,3.1-1.5,4.5c-0.7,1.4-1.5,2.7-2.5,3.7
		c-1,1.1-2.2,1.9-3.6,2.6c-1.5,0.6-3,0.9-4.8,0.9s-3.3-0.3-4.8-0.9c-1.5-0.6-2.7-1.5-3.6-2.6c-1-1.1-1.8-2.3-2.5-3.7
		S164.1,30.4,163.8,28.9z M169.5,19.6c-0.3,1.3-0.4,2.8-0.4,4.4c0,1.6,0.1,3.1,0.4,4.4c0.3,1.3,0.7,2.6,1.2,3.7
		c0.5,1.1,1.3,2,2.2,2.6s2,0.9,3.3,0.9s2.4-0.3,3.3-0.9s1.7-1.5,2.2-2.6c0.5-1.1,0.9-2.3,1.2-3.7s0.4-2.8,0.4-4.4
		c0-1.6-0.1-3.1-0.4-4.4c-0.3-1.3-0.7-2.6-1.2-3.7c-0.5-1.1-1.3-2-2.2-2.6s-2-0.9-3.3-0.9s-2.4,0.3-3.3,0.9s-1.7,1.5-2.2,2.6
		C170.2,17.1,169.8,18.3,169.5,19.6z"/>
	<path class="st12" d="M206.7,40V8h21.9v4.9h-16.3v8.3h16v4.9h-16v8.9h16.3V40H206.7z"/>
	<path class="st12" d="M232.3,12.9V8h25v4.9h-9.7V40H242V12.9H232.3z"/>
	<path class="st12" d="M262,40V8h5.6v13.1h16.7V8h5.6v32h-5.6V26h-16.7v14H262z"/>
</g>
</svg>
