<svg id="_ÎÓÈ_1" data-name="—ÎÓÈ_1" xmlns="http://www.w3.org/2000/svg" viewBox="0 0 1873.6 1000"><defs><style>.cls-1{opacity:0.01;}.cls-2{fill:#fff;}</style></defs><title>bg_eth</title><g class="cls-1"><polygon class="cls-2" points="94.1 167 48.3 195.5 48.3 232.8 94.1 167"/><polygon class="cls-2" points="45.6 195.6 0 167 45.6 233.1 45.6 195.6"/><polygon class="cls-2" points="45.6 145.7 45.6 87.7 1.3 158.4 45.6 145.7"/><polygon class="cls-2" points="2.1 161 45.6 188.6 45.6 148.5 2.1 161"/><polygon class="cls-2" points="48.3 145.7 48.3 87.7 92.6 158.4 48.3 145.7"/><polygon class="cls-2" points="91.8 161 48.3 188.6 48.3 148.5 91.8 161"/><polygon class="cls-2" points="408.1 167 362.3 195.5 362.3 232.8 408.1 167"/><polygon class="cls-2" points="359.5 195.6 314 167 359.5 233.1 359.5 195.6"/><polygon class="cls-2" points="359.5 145.7 359.5 87.7 315.2 158.4 359.5 145.7"/><polygon class="cls-2" points="316.1 161 359.5 188.6 359.5 148.5 316.1 161"/><polygon class="cls-2" points="362.3 145.7 362.3 87.7 406.6 158.4 362.3 145.7"/><polygon class="cls-2" points="405.7 161 362.3 188.6 362.3 148.5 405.7 161"/><polygon class="cls-2" points="722 167 676.2 195.5 676.2 232.8 722 167"/><polygon class="cls-2" points="673.5 195.6 627.9 167 673.5 233.1 673.5 195.6"/><polygon class="cls-2" points="673.5 145.7 673.5 87.7 629.2 158.4 673.5 145.7"/><polygon class="cls-2" points="630 161 673.5 188.6 673.5 148.5 630 161"/><polygon class="cls-2" points="676.2 145.7 676.2 87.7 720.5 158.4 676.2 145.7"/><polygon class="cls-2" points="719.7 161 676.2 188.6 676.2 148.5 719.7 161"/><polygon class="cls-2" points="94.1 500.3 48.3 528.8 48.3 566.2 94.1 500.3"/><polygon class="cls-2" points="45.6 528.9 0 500.3 45.6 566.4 45.6 528.9"/><polygon class="cls-2" points="45.6 479 45.6 421 1.3 491.8 45.6 479"/><polygon class="cls-2" points="2.1 494.3 45.6 521.9 45.6 481.8 2.1 494.3"/><polygon class="cls-2" points="48.3 479 48.3 421 92.6 491.8 48.3 479"/><polygon class="cls-2" points="91.8 494.3 48.3 521.9 48.3 481.8 91.8 494.3"/><polygon class="cls-2" points="408.1 500.3 362.3 528.8 362.3 566.2 408.1 500.3"/><polygon class="cls-2" points="359.5 528.9 314 500.3 359.5 566.4 359.5 528.9"/><polygon class="cls-2" points="359.5 479 359.5 421 315.2 491.8 359.5 479"/><polygon class="cls-2" points="316.1 494.3 359.5 521.9 359.5 481.8 316.1 494.3"/><polygon class="cls-2" points="362.3 479 362.3 421 406.6 491.8 362.3 479"/><polygon class="cls-2" points="405.7 494.3 362.3 521.9 362.3 481.8 405.7 494.3"/><polygon class="cls-2" points="722 500.3 676.2 528.8 676.2 566.2 722 500.3"/><polygon class="cls-2" points="673.5 528.9 627.9 500.3 673.5 566.4 673.5 528.9"/><polygon class="cls-2" points="673.5 479 673.5 421 629.2 491.8 673.5 479"/><polygon class="cls-2" points="630 494.3 673.5 521.9 673.5 481.8 630 494.3"/><polygon class="cls-2" points="676.2 479 676.2 421 720.5 491.8 676.2 479"/><polygon class="cls-2" points="719.7 494.3 676.2 521.9 676.2 481.8 719.7 494.3"/><polygon class="cls-2" points="94.1 833.6 48.3 862.1 48.3 899.5 94.1 833.6"/><polygon class="cls-2" points="45.6 862.2 0 833.6 45.6 899.8 45.6 862.2"/><polygon class="cls-2" points="45.6 812.3 45.6 754.4 1.3 825.1 45.6 812.3"/><polygon class="cls-2" points="2.1 827.7 45.6 855.3 45.6 815.1 2.1 827.7"/><polygon class="cls-2" points="48.3 812.3 48.3 754.4 92.6 825.1 48.3 812.3"/><polygon class="cls-2" points="91.8 827.7 48.3 855.3 48.3 815.1 91.8 827.7"/><polygon class="cls-2" points="408.1 833.6 362.3 862.1 362.3 899.5 408.1 833.6"/><polygon class="cls-2" points="359.5 862.2 314 833.6 359.5 899.8 359.5 862.2"/><polygon class="cls-2" points="359.5 812.3 359.5 754.4 315.2 825.1 359.5 812.3"/><polygon class="cls-2" points="316.1 827.7 359.5 855.3 359.5 815.1 316.1 827.7"/><polygon class="cls-2" points="362.3 812.3 362.3 754.4 406.6 825.1 362.3 812.3"/><polygon class="cls-2" points="405.7 827.7 362.3 855.3 362.3 815.1 405.7 827.7"/><polygon class="cls-2" points="722 833.6 676.2 862.1 676.2 899.5 722 833.6"/><polygon class="cls-2" points="673.5 862.2 627.9 833.6 673.5 899.8 673.5 862.2"/><polygon class="cls-2" points="673.5 812.3 673.5 754.4 629.2 825.1 673.5 812.3"/><polygon class="cls-2" points="630 827.7 673.5 855.3 673.5 815.1 630 827.7"/><polygon class="cls-2" points="676.2 812.3 676.2 754.4 720.5 825.1 676.2 812.3"/><polygon class="cls-2" points="719.7 827.7 676.2 855.3 676.2 815.1 719.7 827.7"/><polygon class="cls-2" points="224.9 328.9 194.2 348 194.2 373 224.9 328.9"/><polygon class="cls-2" points="192.4 348 161.9 328.9 192.4 373.2 192.4 348"/><polygon class="cls-2" points="192.4 314.6 192.4 275.8 162.7 323.2 192.4 314.6"/><polygon class="cls-2" points="163.3 324.9 192.4 343.4 192.4 316.5 163.3 324.9"/><polygon class="cls-2" points="194.3 314.6 194.3 275.8 223.9 323.2 194.3 314.6"/><polygon class="cls-2" points="223.4 324.9 194.3 343.4 194.3 316.5 223.4 324.9"/><polygon class="cls-2" points="549.3 328.9 518.6 348 518.6 373 549.3 328.9"/><polygon class="cls-2" points="516.7 348 486.2 328.9 516.7 373.2 516.7 348"/><polygon class="cls-2" points="516.7 314.6 516.7 275.8 487 323.2 516.7 314.6"/><polygon class="cls-2" points="487.6 324.9 516.7 343.4 516.7 316.5 487.6 324.9"/><polygon class="cls-2" points="518.6 314.6 518.6 275.8 548.3 323.2 518.6 314.6"/><polygon class="cls-2" points="547.7 324.9 518.6 343.4 518.6 316.5 547.7 324.9"/><polygon class="cls-2" points="873.6 328.9 842.9 348 842.9 373 873.6 328.9"/><polygon class="cls-2" points="841 348 810.5 328.9 841 373.2 841 348"/><polygon class="cls-2" points="841 314.6 841 275.8 811.4 323.2 841 314.6"/><polygon class="cls-2" points="811.9 324.9 841 343.4 841 316.5 811.9 324.9"/><polygon class="cls-2" points="842.9 314.6 842.9 275.8 872.6 323.2 842.9 314.6"/><polygon class="cls-2" points="872 324.9 842.9 343.4 842.9 316.5 872 324.9"/><polygon class="cls-2" points="224.9 662.2 194.2 681.3 194.2 706.3 224.9 662.2"/><polygon class="cls-2" points="192.4 681.4 161.9 662.2 192.4 706.5 192.4 681.4"/><polygon class="cls-2" points="192.4 648 192.4 609.1 162.7 656.5 192.4 648"/><polygon class="cls-2" points="163.3 658.2 192.4 676.7 192.4 649.8 163.3 658.2"/><polygon class="cls-2" points="194.3 648 194.3 609.1 223.9 656.5 194.3 648"/><polygon class="cls-2" points="223.4 658.2 194.3 676.7 194.3 649.8 223.4 658.2"/><polygon class="cls-2" points="549.3 662.2 518.6 681.3 518.6 706.3 549.3 662.2"/><polygon class="cls-2" points="516.7 681.4 486.2 662.2 516.7 706.5 516.7 681.4"/><polygon class="cls-2" points="516.7 648 516.7 609.1 487 656.5 516.7 648"/><polygon class="cls-2" points="487.6 658.2 516.7 676.7 516.7 649.8 487.6 658.2"/><polygon class="cls-2" points="518.6 648 518.6 609.1 548.3 656.5 518.6 648"/><polygon class="cls-2" points="547.7 658.2 518.6 676.7 518.6 649.8 547.7 658.2"/><polygon class="cls-2" points="873.6 662.2 842.9 681.3 842.9 706.3 873.6 662.2"/><polygon class="cls-2" points="841 681.4 810.5 662.2 841 706.5 841 681.4"/><polygon class="cls-2" points="841 648 841 609.1 811.4 656.5 841 648"/><polygon class="cls-2" points="811.9 658.2 841 676.7 841 649.8 811.9 658.2"/><polygon class="cls-2" points="842.9 648 842.9 609.1 872.6 656.5 842.9 648"/><polygon class="cls-2" points="872 658.2 842.9 676.7 842.9 649.8 872 658.2"/><polygon class="cls-2" points="217.8 1000 221.8 1000 224.9 995.5 217.8 1000"/><polygon class="cls-2" points="165 1000 169 1000 161.9 995.5 165 1000"/><polygon class="cls-2" points="192.4 981.3 192.4 942.5 162.7 989.8 192.4 981.3"/><polygon class="cls-2" points="163.3 991.5 176.6 1000 192.4 1000 192.4 983.2 163.3 991.5"/><polygon class="cls-2" points="194.3 981.3 194.3 942.5 223.9 989.8 194.3 981.3"/><polygon class="cls-2" points="194.3 983.2 194.3 1000 210.1 1000 223.4 991.5 194.3 983.2"/><polygon class="cls-2" points="542.1 1000 546.2 1000 549.3 995.5 542.1 1000"/><polygon class="cls-2" points="489.3 1000 493.3 1000 486.2 995.5 489.3 1000"/><polygon class="cls-2" points="516.7 981.3 516.7 942.5 487 989.8 516.7 981.3"/><polygon class="cls-2" points="487.6 991.5 500.9 1000 516.7 1000 516.7 983.2 487.6 991.5"/><polygon class="cls-2" points="518.6 981.3 518.6 942.5 548.3 989.8 518.6 981.3"/><polygon class="cls-2" points="518.6 983.2 518.6 1000 534.4 1000 547.7 991.5 518.6 983.2"/><polygon class="cls-2" points="866.4 1000 870.5 1000 873.6 995.5 866.4 1000"/><polygon class="cls-2" points="813.6 1000 817.6 1000 810.5 995.5 813.6 1000"/><polygon class="cls-2" points="841 981.3 841 942.5 811.4 989.8 841 981.3"/><polygon class="cls-2" points="811.9 991.5 825.2 1000 841 1000 841 983.2 811.9 991.5"/><polygon class="cls-2" points="842.9 981.3 842.9 942.5 872.6 989.8 842.9 981.3"/><polygon class="cls-2" points="842.9 983.2 842.9 1000 858.7 1000 872 991.5 842.9 983.2"/><polygon class="cls-2" points="194.2 39.7 221.8 0 217.8 0 194.2 14.6 194.2 39.7"/><polygon class="cls-2" points="192.4 14.7 169 0 165 0 192.4 39.8 192.4 14.7"/><polygon class="cls-2" points="192.4 0 176.6 0 192.4 10 192.4 0"/><polygon class="cls-2" points="210.1 0 194.3 0 194.3 10 210.1 0"/><polygon class="cls-2" points="518.6 39.7 546.2 0 542.1 0 518.6 14.6 518.6 39.7"/><polygon class="cls-2" points="516.7 14.7 493.3 0 489.3 0 516.7 39.8 516.7 14.7"/><polygon class="cls-2" points="516.7 0 500.9 0 516.7 10 516.7 0"/><polygon class="cls-2" points="534.4 0 518.6 0 518.6 10 534.4 0"/><polygon class="cls-2" points="842.9 39.7 870.5 0 866.4 0 842.9 14.6 842.9 39.7"/><polygon class="cls-2" points="841 14.7 817.6 0 813.6 0 841 39.8 841 14.7"/><polygon class="cls-2" points="841 0 825.2 0 841 10 841 0"/><polygon class="cls-2" points="858.7 0 842.9 0 842.9 10 858.7 0"/></g><g class="cls-1"><polygon class="cls-2" points="1094.1 167 1048.3 195.5 1048.3 232.8 1094.1 167"/><polygon class="cls-2" points="1045.6 195.6 1000 167 1045.6 233.1 1045.6 195.6"/><polygon class="cls-2" points="1045.6 145.7 1045.6 87.7 1001.3 158.4 1045.6 145.7"/><polygon class="cls-2" points="1002.1 161 1045.6 188.6 1045.6 148.5 1002.1 161"/><polygon class="cls-2" points="1048.3 145.7 1048.3 87.7 1092.6 158.4 1048.3 145.7"/><polygon class="cls-2" points="1091.8 161 1048.3 188.6 1048.3 148.5 1091.8 161"/><polygon class="cls-2" points="1408.1 167 1362.3 195.5 1362.3 232.8 1408.1 167"/><polygon class="cls-2" points="1359.5 195.6 1314 167 1359.5 233.1 1359.5 195.6"/><polygon class="cls-2" points="1359.5 145.7 1359.5 87.7 1315.2 158.4 1359.5 145.7"/><polygon class="cls-2" points="1316.1 161 1359.5 188.6 1359.5 148.5 1316.1 161"/><polygon class="cls-2" points="1362.3 145.7 1362.3 87.7 1406.6 158.4 1362.3 145.7"/><polygon class="cls-2" points="1405.7 161 1362.3 188.6 1362.3 148.5 1405.7 161"/><polygon class="cls-2" points="1722 167 1676.2 195.5 1676.2 232.8 1722 167"/><polygon class="cls-2" points="1673.5 195.6 1627.9 167 1673.5 233.1 1673.5 195.6"/><polygon class="cls-2" points="1673.5 145.7 1673.5 87.7 1629.2 158.4 1673.5 145.7"/><polygon class="cls-2" points="1630 161 1673.5 188.6 1673.5 148.5 1630 161"/><polygon class="cls-2" points="1676.2 145.7 1676.2 87.7 1720.5 158.4 1676.2 145.7"/><polygon class="cls-2" points="1719.7 161 1676.2 188.6 1676.2 148.5 1719.7 161"/><polygon class="cls-2" points="1094.1 500.3 1048.3 528.8 1048.3 566.2 1094.1 500.3"/><polygon class="cls-2" points="1045.6 528.9 1000 500.3 1045.6 566.4 1045.6 528.9"/><polygon class="cls-2" points="1045.6 479 1045.6 421 1001.3 491.8 1045.6 479"/><polygon class="cls-2" points="1002.1 494.3 1045.6 521.9 1045.6 481.8 1002.1 494.3"/><polygon class="cls-2" points="1048.3 479 1048.3 421 1092.6 491.8 1048.3 479"/><polygon class="cls-2" points="1091.8 494.3 1048.3 521.9 1048.3 481.8 1091.8 494.3"/><polygon class="cls-2" points="1408.1 500.3 1362.3 528.8 1362.3 566.2 1408.1 500.3"/><polygon class="cls-2" points="1359.5 528.9 1314 500.3 1359.5 566.4 1359.5 528.9"/><polygon class="cls-2" points="1359.5 479 1359.5 421 1315.2 491.8 1359.5 479"/><polygon class="cls-2" points="1316.1 494.3 1359.5 521.9 1359.5 481.8 1316.1 494.3"/><polygon class="cls-2" points="1362.3 479 1362.3 421 1406.6 491.8 1362.3 479"/><polygon class="cls-2" points="1405.7 494.3 1362.3 521.9 1362.3 481.8 1405.7 494.3"/><polygon class="cls-2" points="1722 500.3 1676.2 528.8 1676.2 566.2 1722 500.3"/><polygon class="cls-2" points="1673.5 528.9 1627.9 500.3 1673.5 566.4 1673.5 528.9"/><polygon class="cls-2" points="1673.5 479 1673.5 421 1629.2 491.8 1673.5 479"/><polygon class="cls-2" points="1630 494.3 1673.5 521.9 1673.5 481.8 1630 494.3"/><polygon class="cls-2" points="1676.2 479 1676.2 421 1720.5 491.8 1676.2 479"/><polygon class="cls-2" points="1719.7 494.3 1676.2 521.9 1676.2 481.8 1719.7 494.3"/><polygon class="cls-2" points="1094.1 833.6 1048.3 862.1 1048.3 899.5 1094.1 833.6"/><polygon class="cls-2" points="1045.6 862.2 1000 833.6 1045.6 899.8 1045.6 862.2"/><polygon class="cls-2" points="1045.6 812.3 1045.6 754.4 1001.3 825.1 1045.6 812.3"/><polygon class="cls-2" points="1002.1 827.7 1045.6 855.3 1045.6 815.1 1002.1 827.7"/><polygon class="cls-2" points="1048.3 812.3 1048.3 754.4 1092.6 825.1 1048.3 812.3"/><polygon class="cls-2" points="1091.8 827.7 1048.3 855.3 1048.3 815.1 1091.8 827.7"/><polygon class="cls-2" points="1408.1 833.6 1362.3 862.1 1362.3 899.5 1408.1 833.6"/><polygon class="cls-2" points="1359.5 862.2 1314 833.6 1359.5 899.8 1359.5 862.2"/><polygon class="cls-2" points="1359.5 812.3 1359.5 754.4 1315.2 825.1 1359.5 812.3"/><polygon class="cls-2" points="1316.1 827.7 1359.5 855.3 1359.5 815.1 1316.1 827.7"/><polygon class="cls-2" points="1362.3 812.3 1362.3 754.4 1406.6 825.1 1362.3 812.3"/><polygon class="cls-2" points="1405.7 827.7 1362.3 855.3 1362.3 815.1 1405.7 827.7"/><polygon class="cls-2" points="1722 833.6 1676.2 862.1 1676.2 899.5 1722 833.6"/><polygon class="cls-2" points="1673.5 862.2 1627.9 833.6 1673.5 899.8 1673.5 862.2"/><polygon class="cls-2" points="1673.5 812.3 1673.5 754.4 1629.2 825.1 1673.5 812.3"/><polygon class="cls-2" points="1630 827.7 1673.5 855.3 1673.5 815.1 1630 827.7"/><polygon class="cls-2" points="1676.2 812.3 1676.2 754.4 1720.5 825.1 1676.2 812.3"/><polygon class="cls-2" points="1719.7 827.7 1676.2 855.3 1676.2 815.1 1719.7 827.7"/><polygon class="cls-2" points="1224.9 328.9 1194.2 348 1194.2 373 1224.9 328.9"/><polygon class="cls-2" points="1192.4 348 1161.9 328.9 1192.4 373.2 1192.4 348"/><polygon class="cls-2" points="1192.4 314.6 1192.4 275.8 1162.7 323.2 1192.4 314.6"/><polygon class="cls-2" points="1163.3 324.9 1192.4 343.4 1192.4 316.5 1163.3 324.9"/><polygon class="cls-2" points="1194.3 314.6 1194.3 275.8 1223.9 323.2 1194.3 314.6"/><polygon class="cls-2" points="1223.4 324.9 1194.3 343.4 1194.3 316.5 1223.4 324.9"/><polygon class="cls-2" points="1549.3 328.9 1518.6 348 1518.6 373 1549.3 328.9"/><polygon class="cls-2" points="1516.7 348 1486.2 328.9 1516.7 373.2 1516.7 348"/><polygon class="cls-2" points="1516.7 314.6 1516.7 275.8 1487 323.2 1516.7 314.6"/><polygon class="cls-2" points="1487.6 324.9 1516.7 343.4 1516.7 316.5 1487.6 324.9"/><polygon class="cls-2" points="1518.6 314.6 1518.6 275.8 1548.3 323.2 1518.6 314.6"/><polygon class="cls-2" points="1547.7 324.9 1518.6 343.4 1518.6 316.5 1547.7 324.9"/><polygon class="cls-2" points="1873.6 328.9 1842.9 348 1842.9 373 1873.6 328.9"/><polygon class="cls-2" points="1841 348 1810.5 328.9 1841 373.2 1841 348"/><polygon class="cls-2" points="1841 314.6 1841 275.8 1811.4 323.2 1841 314.6"/><polygon class="cls-2" points="1811.9 324.9 1841 343.4 1841 316.5 1811.9 324.9"/><polygon class="cls-2" points="1842.9 314.6 1842.9 275.8 1872.6 323.2 1842.9 314.6"/><polygon class="cls-2" points="1872 324.9 1842.9 343.4 1842.9 316.5 1872 324.9"/><polygon class="cls-2" points="1224.9 662.2 1194.2 681.3 1194.2 706.3 1224.9 662.2"/><polygon class="cls-2" points="1192.4 681.4 1161.9 662.2 1192.4 706.5 1192.4 681.4"/><polygon class="cls-2" points="1192.4 648 1192.4 609.1 1162.7 656.5 1192.4 648"/><polygon class="cls-2" points="1163.3 658.2 1192.4 676.7 1192.4 649.8 1163.3 658.2"/><polygon class="cls-2" points="1194.3 648 1194.3 609.1 1223.9 656.5 1194.3 648"/><polygon class="cls-2" points="1223.4 658.2 1194.3 676.7 1194.3 649.8 1223.4 658.2"/><polygon class="cls-2" points="1549.3 662.2 1518.6 681.3 1518.6 706.3 1549.3 662.2"/><polygon class="cls-2" points="1516.7 681.4 1486.2 662.2 1516.7 706.5 1516.7 681.4"/><polygon class="cls-2" points="1516.7 648 1516.7 609.1 1487 656.5 1516.7 648"/><polygon class="cls-2" points="1487.6 658.2 1516.7 676.7 1516.7 649.8 1487.6 658.2"/><polygon class="cls-2" points="1518.6 648 1518.6 609.1 1548.3 656.5 1518.6 648"/><polygon class="cls-2" points="1547.7 658.2 1518.6 676.7 1518.6 649.8 1547.7 658.2"/><polygon class="cls-2" points="1873.6 662.2 1842.9 681.3 1842.9 706.3 1873.6 662.2"/><polygon class="cls-2" points="1841 681.4 1810.5 662.2 1841 706.5 1841 681.4"/><polygon class="cls-2" points="1841 648 1841 609.1 1811.4 656.5 1841 648"/><polygon class="cls-2" points="1811.9 658.2 1841 676.7 1841 649.8 1811.9 658.2"/><polygon class="cls-2" points="1842.9 648 1842.9 609.1 1872.6 656.5 1842.9 648"/><polygon class="cls-2" points="1872 658.2 1842.9 676.7 1842.9 649.8 1872 658.2"/><polygon class="cls-2" points="1217.8 1000 1221.8 1000 1224.9 995.5 1217.8 1000"/><polygon class="cls-2" points="1165 1000 1169 1000 1161.9 995.5 1165 1000"/><polygon class="cls-2" points="1192.4 981.3 1192.4 942.5 1162.7 989.8 1192.4 981.3"/><polygon class="cls-2" points="1163.3 991.5 1176.6 1000 1192.4 1000 1192.4 983.2 1163.3 991.5"/><polygon class="cls-2" points="1194.3 981.3 1194.3 942.5 1223.9 989.8 1194.3 981.3"/><polygon class="cls-2" points="1194.3 983.2 1194.3 1000 1210.1 1000 1223.4 991.5 1194.3 983.2"/><polygon class="cls-2" points="1542.1 1000 1546.2 1000 1549.3 995.5 1542.1 1000"/><polygon class="cls-2" points="1489.3 1000 1493.3 1000 1486.2 995.5 1489.3 1000"/><polygon class="cls-2" points="1516.7 981.3 1516.7 942.5 1487 989.8 1516.7 981.3"/><polygon class="cls-2" points="1487.6 991.5 1500.9 1000 1516.7 1000 1516.7 983.2 1487.6 991.5"/><polygon class="cls-2" points="1518.6 981.3 1518.6 942.5 1548.3 989.8 1518.6 981.3"/><polygon class="cls-2" points="1518.6 983.2 1518.6 1000 1534.4 1000 1547.7 991.5 1518.6 983.2"/><polygon class="cls-2" points="1866.4 1000 1870.5 1000 1873.6 995.5 1866.4 1000"/><polygon class="cls-2" points="1813.6 1000 1817.6 1000 1810.5 995.5 1813.6 1000"/><polygon class="cls-2" points="1841 981.3 1841 942.5 1811.4 989.8 1841 981.3"/><polygon class="cls-2" points="1811.9 991.5 1825.2 1000 1841 1000 1841 983.2 1811.9 991.5"/><polygon class="cls-2" points="1842.9 981.3 1842.9 942.5 1872.6 989.8 1842.9 981.3"/><polygon class="cls-2" points="1842.9 983.2 1842.9 1000 1858.7 1000 1872 991.5 1842.9 983.2"/><polygon class="cls-2" points="1194.2 39.7 1221.8 0 1217.8 0 1194.2 14.6 1194.2 39.7"/><polygon class="cls-2" points="1192.4 14.7 1169 0 1165 0 1192.4 39.8 1192.4 14.7"/><polygon class="cls-2" points="1192.4 0 1176.6 0 1192.4 10 1192.4 0"/><polygon class="cls-2" points="1210.1 0 1194.3 0 1194.3 10 1210.1 0"/><polygon class="cls-2" points="1518.6 39.7 1546.2 0 1542.1 0 1518.6 14.6 1518.6 39.7"/><polygon class="cls-2" points="1516.7 14.7 1493.3 0 1489.3 0 1516.7 39.8 1516.7 14.7"/><polygon class="cls-2" points="1516.7 0 1500.9 0 1516.7 10 1516.7 0"/><polygon class="cls-2" points="1534.4 0 1518.6 0 1518.6 10 1534.4 0"/><polygon class="cls-2" points="1842.9 39.7 1870.5 0 1866.4 0 1842.9 14.6 1842.9 39.7"/><polygon class="cls-2" points="1841 14.7 1817.6 0 1813.6 0 1841 39.8 1841 14.7"/><polygon class="cls-2" points="1841 0 1825.2 0 1841 10 1841 0"/><polygon class="cls-2" points="1858.7 0 1842.9 0 1842.9 10 1858.7 0"/></g></svg>