<?xml version="1.0" encoding="utf-8"?>
<!-- Generator: Adobe Illustrator 21.1.0, SVG Export Plug-In . SVG Version: 6.00 Build 0)  -->
<svg version="1.1" id="Layer_1" xmlns="http://www.w3.org/2000/svg" xmlns:xlink="http://www.w3.org/1999/xlink" x="0px" y="0px"
	 viewBox="0 0 512 512" style="enable-background:new 0 0 512 512;" xml:space="preserve">
<style type="text/css">
	.st0{display:none;opacity:0.14;}
	.st1{display:inline;}
	.st2{fill:#EDF3FC;}
	.st3{fill:#5D8EF9;}
	.st4{fill:#DDEAF7;}
	.st5{fill:#FFE620;}
	.st6{fill:#FFFFFF;}
</style>
<g>
	<g class="st0">
		<g class="st1">
			<path class="st2" d="M256,40.9C137.2,40.9,40.9,137.2,40.9,256c0,118.8,96.3,215.1,215.1,215.1c118.8,0,215.1-96.3,215.1-215.1
				C471.1,137.2,374.8,40.9,256,40.9z"/>
		</g>
	</g>
	<g class="st0">
		<g class="st1">
			<path class="st2" d="M256,1C115.4,1,1,115.4,1,256c0,140.6,114.4,255,255,255c140.6,0,255-114.4,255-255C511,115.4,396.6,1,256,1
				z M256,502.8C119.9,502.8,9.2,392.1,9.2,256C9.2,119.9,119.9,9.2,256,9.2c136.1,0,246.8,110.7,246.8,246.8
				C502.8,392.1,392.1,502.8,256,502.8z"/>
		</g>
	</g>
	<g>
		<g>
			<path class="st3" d="M134.3,223.4c-6.9-1.7-12.3-7.1-14-14l-0.3-1.2l-0.3,1.2c-1.7,6.9-7.1,12.3-14,14l-1.2,0.3l1.2,0.3
				c6.9,1.7,12.3,7.1,14,14l0.3,1.2l0.3-1.2c1.7-6.9,7.1-12.3,14-14l1.2-0.3L134.3,223.4z"/>
		</g>
	</g>
	<g>
		<g>
			<path class="st4" d="M419.9,194c-13-3.2-23.1-13.4-26.4-26.4l-0.6-2.2l-0.6,2.2c-3.2,13-13.4,23.1-26.4,26.4l-2.2,0.6l2.2,0.6
				c13,3.2,23.1,13.4,26.4,26.4l0.6,2.2l0.6-2.2c3.3-13,13.4-23.1,26.4-26.4l2.2-0.6L419.9,194z"/>
		</g>
	</g>
	<g>
		<g>
			<path class="st4" d="M378.2,241.4c-6.9-1.7-12.3-7.1-14-14l-0.3-1.2l-0.3,1.2c-1.7,6.9-7.1,12.3-14,14l-1.2,0.3l1.2,0.3
				c6.9,1.7,12.3,7.1,14,14l0.3,1.2l0.3-1.2c1.7-6.9,7.1-12.3,14-14l1.2-0.3L378.2,241.4z"/>
		</g>
	</g>
	<g>
		<g>
			<path class="st5" d="M179.8,296.5c-14.8-3.7-26.4-15.3-30.1-30.1l-0.6-2.5l-0.6,2.5c-3.7,14.8-15.3,26.4-30.1,30.1l-2.5,0.6
				l2.5,0.6c14.8,3.7,26.4,15.3,30.1,30.1l0.6,2.5l0.6-2.5c3.7-14.8,15.3-26.4,30.1-30.1l2.5-0.6L179.8,296.5z"/>
		</g>
	</g>
	<g>
		<g>
			<polygon class="st4" points="289,233.2 223.3,233.2 230.4,395.6 256,421.4 281.6,395.6 281.6,395.4 268,380.3 282.9,363.9 
				268,347.4 285.7,327.8 			"/>
		</g>
	</g>
	<g>
		<g>
			<path class="st3" d="M329.3,95.2H182.7c-9.3,0-16.8,7.5-16.8,16.8l10,104.3c0,9.3,7.5,16.8,16.8,16.8h126.7
				c9.3,0,16.8-7.5,16.8-16.8l10-104.3C346.1,102.8,338.6,95.2,329.3,95.2z M300.3,133.5c0,3.2-2.6,5.7-5.7,5.7h-77.3
				c-3.2,0-5.7-2.6-5.7-5.7v-9.6c0-3.2,2.6-5.7,5.7-5.7h77.3c3.2,0,5.7,2.6,5.7,5.7V133.5z"/>
		</g>
	</g>
	<g>
		<g>
			<path class="st6" d="M242.6,175.2c-3.1,0-5.6,2.5-5.6,5.6c0,2,1.1,3.8,2.7,4.8v16l-15.4,14.2v17.4h5.8v-14.8l15.4-14.2v-18.6
				c1.6-1,2.7-2.7,2.7-4.8C248.2,177.7,245.7,175.2,242.6,175.2z"/>
		</g>
	</g>
	<g>
		<g>
			<path class="st6" d="M318.1,160.1c-3.1,0-5.6,2.5-5.6,5.6c0,2,1.1,3.8,2.7,4.8v11.2l-8.5,19.4v32.1h5.8v-30.8l8.5-19.4v-12.4
				c1.6-1,2.7-2.7,2.7-4.8C323.7,162.6,321.2,160.1,318.1,160.1z"/>
		</g>
	</g>
	<g>
		<g>
			<path class="st6" d="M284,205.9v-9.3c1.6-1,2.7-2.7,2.7-4.8c0-3.1-2.5-5.6-5.6-5.6c-3.1,0-5.6,2.5-5.6,5.6c0,2,1.1,3.8,2.7,4.8
				v12.9l11.2,5.6v18.1h5.8v-21.7L284,205.9z"/>
		</g>
	</g>
	<g>
		<g>
			<path class="st6" d="M195.3,192.2v-15.4c1.6-1,2.7-2.7,2.7-4.8c0-3.1-2.5-5.6-5.6-5.6c-3.1,0-5.6,2.5-5.6,5.6
				c0,2,1.1,3.8,2.7,4.8v17.1l10.4,16.1v23.2h5.8v-24.9L195.3,192.2z"/>
		</g>
	</g>
	<g>
		<g>
			<path class="st6" d="M261.1,202c-3.1,0-5.6,2.5-5.6,5.6c0,2,1.1,3.8,2.7,4.8v20.8h5.8v-20.8c1.6-1,2.7-2.7,2.7-4.8
				C266.7,204.5,264.2,202,261.1,202z"/>
		</g>
	</g>
</g>
</svg>
