<?xml version="1.0" encoding="utf-8"?>
<!-- Generator: Adobe Illustrator 21.1.0, SVG Export Plug-In . SVG Version: 6.00 Build 0)  -->
<svg version="1.1" id="Layer_1" xmlns="http://www.w3.org/2000/svg" xmlns:xlink="http://www.w3.org/1999/xlink" x="0px" y="0px"
	 viewBox="0 0 512 512" style="enable-background:new 0 0 512 512;" xml:space="preserve">
<style type="text/css">
	.st0{display:none;}
	.st1{display:inline;}
	.st2{fill:#EDF3FC;}
	.st3{fill:#DDEAF7;}
	.st4{fill:#FFE620;}
	.st5{fill:#5D8EF9;}
	.st6{fill:#330D84;}
	.st7{fill:#FFFFFF;}
	.st8{fill:#6857E5;}
	.st9{fill:#FFE37B;}
	.st10{fill:#FFBE1B;}
	.st11{fill:#8AC9F9;}
</style>
<g>
	<g class="st0">
		<g class="st1">
			<path class="st2" d="M256,40.9C137.2,40.9,40.9,137.2,40.9,256S137.2,471.1,256,471.1S471.1,374.8,471.1,256S374.8,40.9,256,40.9
				z"/>
		</g>
	</g>
	<g class="st0">
		<g class="st1">
			<path class="st2" d="M436.3,75.7C388.1,27.5,324.1,1,256,1S123.9,27.5,75.7,75.7S1,187.9,1,256s26.5,132.1,74.7,180.3
				S187.9,511,256,511s132.1-26.5,180.3-74.7S511,324.1,511,256S484.5,123.9,436.3,75.7z M256,502.8C119.9,502.8,9.2,392.1,9.2,256
				S119.9,9.2,256,9.2S502.8,119.9,502.8,256S392.1,502.8,256,502.8z"/>
		</g>
	</g>
	<g>
		<g>
			<path class="st3" d="M287.8,147.5c-6.5-1.6-11.5-6.7-13.1-13.1l-0.3-1.1l-0.3,1.1c-1.6,6.5-6.7,11.5-13.1,13.1l-1.1,0.3l1.1,0.3
				c6.5,1.6,11.5,6.7,13.1,13.1l0.3,1.1l0.3-1.1c1.6-6.5,6.7-11.5,13.1-13.1l1.1-0.3L287.8,147.5z"/>
		</g>
	</g>
	<g>
		<g>
			<path class="st4" d="M106.4,261.3c-10.3-2.6-18.4-10.7-21-21l-0.4-1.8l-0.4,1.8c-2.6,10.3-10.7,18.4-21,21l-1.8,0.4l1.8,0.4
				c10.3,2.6,18.4,10.7,21,21l0.4,1.8l0.4-1.8c2.6-10.3,10.7-18.4,21-21l1.8-0.4L106.4,261.3z"/>
		</g>
	</g>
	<g>
		<g>
			<path class="st4" d="M213.4,417.8c-10.3-2.6-18.4-10.7-21-21L192,395l-0.4,1.8c-2.6,10.3-10.7,18.4-21,21l-1.8,0.4l1.8,0.4
				c10.3,2.6,18.4,10.7,21,21l0.4,1.8l0.4-1.8c2.6-10.3,10.7-18.4,21-21l1.8-0.4L213.4,417.8z"/>
		</g>
	</g>
	<g>
		<g>
			<path class="st5" d="M433.6,183.6c-7.8-1.9-13.8-8-15.8-15.8l-0.3-1.3l-0.3,1.3c-1.9,7.8-8,13.8-15.8,15.8l-1.3,0.3l1.3,0.3
				c7.8,1.9,13.8,8,15.8,15.8l0.3,1.3l0.3-1.3c1.9-7.8,8-13.8,15.8-15.8l1.3-0.3L433.6,183.6z"/>
		</g>
	</g>
	<g>
		<g>
			<path class="st5" d="M382.6,126.5c-13.5-3.4-24.1-14-27.5-27.5l-0.6-2.3L354,99c-3.4,13.5-14,24.1-27.5,27.5l-2.3,0.6l2.3,0.6
				c13.5,3.4,24.1,14,27.5,27.5l0.6,2.3l0.6-2.3c3.4-13.5,14-24.1,27.5-27.5l2.3-0.6L382.6,126.5z"/>
		</g>
	</g>
	<g>
		<g>
			<path class="st6" d="M361.4,173.2H141.9c-13.9,0-25.2,11.3-25.2,25.1v157.8c0,13.9,11.3,25.2,25.2,25.2h219.5
				c13.9,0,25.1-11.3,25.1-25.2V198.4C386.5,184.5,375.2,173.2,361.4,173.2z"/>
		</g>
	</g>
	<g>
		<g>
			<circle class="st7" cx="296" cy="194.9" r="7.5"/>
		</g>
	</g>
	<g>
		<g>
			<path class="st7" d="M326.5,187.4c-4.1,0-7.5,3.4-7.5,7.5s3.4,7.5,7.5,7.5s7.5-3.4,7.5-7.5S330.6,187.4,326.5,187.4z"/>
		</g>
	</g>
	<g>
		<g>
			<circle class="st7" cx="356.9" cy="194.9" r="7.5"/>
		</g>
	</g>
	<g>
		<g>
			<path class="st8" d="M116.7,217.9v138.3c0,13.9,11.3,25.2,25.2,25.2h219.5c13.9,0,25.1-11.3,25.1-25.2V217.9H116.7z"/>
		</g>
	</g>
	<g>
		<g>
			<path class="st9" d="M176,263c-24.3,0-43.9,19.7-43.9,43.9c0,24.3,19.7,43.9,43.9,43.9c24.3,0,43.9-19.7,43.9-43.9
				C220,282.7,200.3,263,176,263z"/>
		</g>
	</g>
	<g>
		<g>
			<path class="st10" d="M176,274c-18.2,0-33,14.8-33,33s14.8,33,33,33s33-14.8,33-33C209,288.7,194.2,274,176,274z"/>
		</g>
	</g>
	<g class="st0">
		<g class="st1">
			<path class="st7" d="M189.3,309c-1.2-1.4-2.8-2.3-4.7-2.7c0.5-0.2,0.9-0.4,1.1-0.5c0.2-0.1,0.6-0.4,1.1-0.8
				c1.6-1.2,2.4-3.1,2.4-5.6c0-2.1-0.7-3.9-2.1-5.6c-0.8-0.9-2-1.6-3.5-2.1c-0.5-0.2-1-0.3-1.5-0.4v-4.1h-5.6v3.7h-3.8v-3.7h-5.6
				v3.7h-1.6h-4.6v6h4.6v19.9h-4.6v6h4.6h1.6v3.7h5.6V323h3.8v3.7h5.6v-3.8c3.1-0.3,5.3-1.3,6.7-2.8c1.5-1.7,2.3-3.7,2.3-5.9
				C191.1,312.1,190.5,310.4,189.3,309z M172.7,297h3.4c2.1,0,3.6,0.2,4.5,0.7s1.3,1.4,1.3,2.8s-0.5,2.3-1.4,2.8
				c-1,0.4-2.4,0.6-4.4,0.6h-3.4L172.7,297L172.7,297z M182.2,316.1c-1,0.5-2.6,0.8-4.6,0.8h-4.9v-7.4h4.2c2.4,0,4.1,0.2,5.2,0.7
				c1.1,0.5,1.6,1.4,1.6,2.9C183.7,314.7,183.2,315.6,182.2,316.1z"/>
		</g>
	</g>
	<g>
		<g>
			<polygon class="st11" points="336.4,268.4 336.4,351.5 357.3,353.5 357.3,268.4 			"/>
		</g>
	</g>
	<g>
		<g>
			<rect x="302.6" y="289.8" class="st11" width="20.9" height="61.7"/>
		</g>
	</g>
	<g>
		<g>
			<rect x="268.8" y="309.3" class="st11" width="20.9" height="42.2"/>
		</g>
	</g>
	<g>
		<g>
			<rect x="235.1" y="328.8" class="st11" width="20.9" height="22.7"/>
		</g>
	</g>
	<g>
		<g>
			<path class="st7" d="M351.6,231.9c-1-1-2.3-1.6-3.7-1.6H326c-2.8,0-5,2.2-5,5s2.2,5,5,5l0,0h9.5l-50.3,34.8l-7.7-7.3
				c-1.7-1.6-4.3-1.8-6.2-0.5l-40.9,27.3c-2.3,1.5-2.9,4.6-1.4,6.9c1,1.4,2.5,2.2,4.2,2.2c1,0,1.9-0.3,2.8-0.8l37.5-25.1l7.7,7.4
				c1.7,1.6,4.3,1.8,6.3,0.5l54.2-37.5l-0.7,7.3c-0.3,2.7,1.8,5.2,4.5,5.4c0.2,0,0.3,0,0.5,0c2.5,0,4.7-1.9,5-4.5l1.9-20.7
				C353,234.3,352.5,232.9,351.6,231.9z"/>
		</g>
	</g>
	<path class="st7" d="M176,286.9l-12.3,18.7l12.3,9l12.2-9L176,286.9z M176,317.7l-12.3-9.6l12.3,19l12.2-19L176,317.7z"/>
</g>
</svg>
