<?xml version="1.0" encoding="utf-8"?>
<!-- Generator: Adobe Illustrator 21.1.0, SVG Export Plug-In . SVG Version: 6.00 Build 0)  -->
<svg version="1.1" id="Layer_1" xmlns="http://www.w3.org/2000/svg" xmlns:xlink="http://www.w3.org/1999/xlink" x="0px" y="0px"
	 viewBox="0 0 512 512" style="enable-background:new 0 0 512 512;" xml:space="preserve">
<style type="text/css">
	.st0{display:none;opacity:0.14;}
	.st1{display:inline;}
	.st2{fill:#EDF3FC;}
	.st3{fill:#FFE620;}
	.st4{fill:#5D8EF9;}
	.st5{fill:#DDEAF7;}
	.st6{fill:#8AC9F9;}
	.st7{display:none;}
	.st8{fill:#FFFFFF;}
	.st9{fill:#FFBE1B;}
</style>
<g>
	<g class="st0">
		<g class="st1">
			<path class="st2" d="M256,40.9C137.2,40.9,40.9,137.2,40.9,256S137.2,471.1,256,471.1S471.1,374.8,471.1,256S374.8,40.9,256,40.9
				z"/>
		</g>
	</g>
	<g class="st0">
		<g class="st1">
			<path class="st2" d="M256,1C115.4,1,1,115.4,1,256s114.4,255,255,255s255-114.4,255-255S396.6,1,256,1z M256,502.8
				C119.9,502.8,9.2,392.1,9.2,256S119.9,9.2,256,9.2S502.8,119.9,502.8,256S392.1,502.8,256,502.8z"/>
		</g>
	</g>
	<g>
		<g>
			<path class="st3" d="M304.2,418.1c-10-2.5-17.8-10.3-20.3-20.3l-0.4-1.7l-0.4,1.7c-2.5,10-10.3,17.8-20.4,20.3l-1.7,0.4l1.7,0.4
				c10,2.5,17.8,10.3,20.4,20.3l0.4,1.7l0.4-1.7c2.5-10,10.3-17.8,20.3-20.3l1.7-0.4L304.2,418.1z"/>
		</g>
	</g>
	<g>
		<g>
			<path class="st3" d="M256.2,430.1c-6.4-1.6-11.4-6.6-13-13l-0.3-1.1l-0.3,1.1c-1.6,6.4-6.6,11.4-13,13l-1.1,0.3l1.1,0.3
				c6.4,1.6,11.4,6.6,13,13l0.3,1.1l0.3-1.1c1.6-6.4,6.6-11.4,13-13l1.1-0.3L256.2,430.1z"/>
		</g>
	</g>
	<g>
		<g>
			<path class="st4" d="M236.9,100.9c-9.5-2.4-16.9-9.8-19.3-19.3l-0.4-1.6l-0.4,1.6c-2.4,9.5-9.8,16.9-19.3,19.3l-1.6,0.4l1.6,0.4
				c9.5,2.4,16.9,9.8,19.3,19.3l0.4,1.6l0.4-1.6c2.4-9.5,9.8-16.9,19.3-19.3l1.6-0.4L236.9,100.9z"/>
		</g>
	</g>
	<g>
		<g>
			<path class="st4" d="M179,115.3c-6.3-1.6-11.3-6.5-12.9-12.9l-0.3-1.1l-0.3,1.1c-1.6,6.3-6.5,11.3-12.9,12.9l-1.1,0.3l1.1,0.3
				c6.3,1.6,11.3,6.5,12.9,12.9l0.3,1.1l0.3-1.1c1.6-6.3,6.5-11.3,12.9-12.9l1.1-0.3L179,115.3z"/>
		</g>
	</g>
	<g>
		<g>
			<path class="st5" d="M427.1,253.6c-8.7-2.2-15.6-9-17.8-17.8l-0.4-1.5l-0.4,1.5c-2.2,8.7-9,15.6-17.8,17.8l-1.5,0.4l1.5,0.4
				c8.7,2.2,15.6,9,17.8,17.8l0.4,1.5l0.4-1.5c2.2-8.7,9-15.6,17.8-17.8l1.5-0.4L427.1,253.6z"/>
		</g>
	</g>
	<g>
		<g>
			<path class="st6" d="M200.3,130.7c-44.8,0-81.1,36.3-81.1,81.1s36.3,81.1,81.1,81.1c12.2,0,23.8-2.7,34.2-7.6
				c6.8-21.9,22.7-39.8,43.3-49.4c2.4-7.6,3.6-15.7,3.6-24.1C281.4,167,245.1,130.7,200.3,130.7z"/>
		</g>
	</g>
	<g>
		<g>
			<path class="st4" d="M200.3,150.9c-33.6,0-60.9,27.3-60.9,60.9s27.3,60.9,60.9,60.9s60.9-27.3,60.9-60.9
				C261.2,178.2,233.9,150.9,200.3,150.9z"/>
		</g>
	</g>
	<g class="st7">
		<g class="st1">
			<path class="st8" d="M224.9,215.6c-2.2-2.5-5.1-4.2-8.7-4.9c1-0.4,1.7-0.8,2.1-1c0.4-0.2,1.1-0.7,2.1-1.5c3-2.3,4.5-5.7,4.5-10.3
				c0-3.8-1.3-7.3-4-10.3c-1.5-1.6-3.6-2.9-6.6-3.9c-0.9-0.3-1.8-0.5-2.8-0.7v-7.5h-10.4v6.8h-7v-6.8h-10.4v6.8H181h-8.4v11.2h8.4
				v36.8h-8.4v11.2h8.4h2.9v6.8h10.4v-6.8h7v6.8h10.4v-7c5.6-0.6,9.8-2.3,12.4-5.2c2.8-3.2,4.2-6.8,4.2-10.9
				C228.1,221.2,227,218.1,224.9,215.6z M194.1,193.4h6.3c3.9,0,6.6,0.4,8.3,1.3c1.6,0.8,2.5,2.6,2.5,5.2c0,2.6-0.9,4.3-2.7,5.1
				s-4.5,1.2-8.2,1.2H194L194.1,193.4L194.1,193.4z M211.7,228.8c-1.9,0.9-4.7,1.4-8.5,1.4h-9v-13.6h7.8c4.4,0,7.6,0.4,9.6,1.3
				c2,0.9,3,2.7,3,5.4C214.5,226,213.6,227.9,211.7,228.8z"/>
		</g>
	</g>
	<g>
		<g>
			<path class="st6" d="M312,228.4c-44.8,0-81.1,36.3-81.1,81.1s36.3,81.1,81.1,81.1s81.1-36.3,81.1-81.1S356.8,228.4,312,228.4z"/>
		</g>
	</g>
	<g>
		<g>
			<path class="st4" d="M312,248.6c-33.6,0-60.9,27.3-60.9,60.9s27.3,60.9,60.9,60.9s60.9-27.3,60.9-60.9S345.6,248.6,312,248.6z"/>
		</g>
	</g>
	<g class="st7">
		<g class="st1">
			<path class="st8" d="M329.7,308.2c-3.1-2.7-8.1-4.8-14.7-6.4h-0.3v-16.4c4.5,0.6,8.6,2.3,12.5,5.1l5.7-8
				c-5.7-3.9-11.7-6.1-18.1-6.5v-4.4h-5.6v4.4c-5.6,0.3-10.2,2-13.7,5.2s-5.3,7.3-5.3,12.3s1.5,8.8,4.6,11.4s7.9,4.6,14.4,6.2V328
				c-5.2-0.8-10.2-3.3-15.1-7.6l-6.4,7.6c6.3,5.5,13.5,8.7,21.5,9.5v6.4h5.6v-6.3c5.9-0.3,10.7-2,14.3-5.2c3.6-3.2,5.4-7.3,5.4-12.4
				C334.4,314.7,332.8,310.9,329.7,308.2z M309.1,300.3c-3.3-1-5.5-2.1-6.6-3.3c-1.2-1.1-1.7-2.7-1.7-4.6s0.7-3.6,2.2-4.9
				s3.5-2.1,6.1-2.3V300.3L309.1,300.3z M321.3,325.7c-1.6,1.3-3.8,2.2-6.6,2.4v-15.7c3.5,1,5.9,2.2,7.2,3.4
				c1.3,1.2,1.9,2.8,1.9,4.8C323.7,322.7,322.9,324.4,321.3,325.7z"/>
		</g>
	</g>
	<g>
		<g>
			<path class="st5" d="M399.4,198.4c-2.5-1.2-5.5-0.3-6.7,2.2l-9.4,18.6c-7.2-26.8-22.7-50.9-44.3-68.7
				c-24-19.8-54.4-30.7-85.5-30.7c-2.8,0-5,2.2-5,5s2.2,5,5,5c56.6,0,106.2,38.7,120.4,92.8l-20-9.7c-2.5-1.2-5.5-0.2-6.7,2.3
				s-0.2,5.5,2.3,6.7l30.6,14.9c0.7,0.3,1.5,0.5,2.2,0.5c1.8,0,3.6-1,4.5-2.8l14.9-29.5C402.8,202.7,401.8,199.7,399.4,198.4z"/>
		</g>
	</g>
	<g>
		<g>
			<path class="st9" d="M257.1,389.4c-56.6,0-106.2-38.7-120.4-92.8l20,9.7c2.5,1.2,5.5,0.2,6.7-2.3s0.2-5.5-2.3-6.7l-30.6-14.9
				c-0.7-0.3-1.5-0.5-2.2-0.5c-1.8,0-3.6,1-4.5,2.8L109,314.1c-1.2,2.5-0.3,5.5,2.2,6.7s5.5,0.3,6.7-2.2l9.4-18.6
				c7.2,26.8,22.7,50.9,44.3,68.7c24,19.8,54.4,30.7,85.5,30.7c2.8,0,5-2.2,5-5C262.1,391.6,259.9,389.4,257.1,389.4z"/>
		</g>
	</g>
	<path class="st8" d="M312,271.5l-23.2,35.4L312,324l23.2-17.1L312,271.5z M312,329.8l-23.2-18.3l23.2,36l23.2-36L312,329.8z"/>
</g>
<path class="st8" d="M200.3,172l-23.2,35.4l23.2,17.1l23.2-17.1L200.3,172z M200.3,230.3L177.1,212l23.2,36l23.2-36L200.3,230.3z"/>
</svg>
