<?xml version="1.0" encoding="utf-8"?>
<!-- Generator: Adobe Illustrator 21.1.0, SVG Export Plug-In . SVG Version: 6.00 Build 0)  -->
<svg version="1.1" id="Layer_1" xmlns="http://www.w3.org/2000/svg" xmlns:xlink="http://www.w3.org/1999/xlink" x="0px" y="0px"
	 viewBox="0 0 512 512" style="enable-background:new 0 0 512 512;" xml:space="preserve">
<style type="text/css">
	.st0{display:none;fill:#333333;}
	.st1{display:none;}
	.st2{display:inline;}
	.st3{fill:#EDF3FC;}
	.st4{fill:#8AC9F9;}
	.st5{fill:#5D8EF9;}
	.st6{fill:#FFFFFF;}
</style>
<rect class="st0" width="512" height="512"/>
<g>
	<g class="st1">
		<g class="st2">
			<path class="st3" d="M256,40.9C137.2,40.9,40.9,137.2,40.9,256S137.2,471.1,256,471.1S471.1,374.8,471.1,256S374.8,40.9,256,40.9
				z"/>
		</g>
	</g>
	<g class="st1">
		<g class="st2">
			<path class="st3" d="M256,1C115.4,1,1,115.4,1,256s114.4,255,255,255s255-114.4,255-255S396.6,1,256,1z M256,502.8
				C119.9,502.8,9.2,392.1,9.2,256S119.9,9.2,256,9.2S502.8,119.9,502.8,256S392.1,502.8,256,502.8z"/>
		</g>
	</g>
	<g>
		<g>
			<path class="st4" d="M256,106c-82.8,0-150,67.2-150,150s67.2,150,150,150s150-67.2,150-150S338.8,106,256,106z"/>
		</g>
	</g>
	<g>
		<g>
			<path class="st5" d="M256,143.4c-62.2,0-112.6,50.4-112.6,112.6S193.8,368.6,256,368.6S368.6,318.2,368.6,256
				S318.2,143.4,256,143.4z"/>
		</g>
	</g>
	<g>
		<g>
			<polygon class="st6" points="256,180.3 209.8,250.8 256,284.8 302.2,250.8 			"/>
		</g>
	</g>
	<g>
		<g>
			<polygon class="st6" points="256,296.4 209.8,260 256,331.7 302.2,260 			"/>
		</g>
	</g>
	<g>
		<g>
			<path class="st5" d="M208,91.7c-10.7-2.7-19-11-21.7-21.7l-0.5-1.8l-0.5,1.8c-2.7,10.7-11,19-21.7,21.7l-1.8,0.5l1.8,0.5
				c10.7,2.7,19,11,21.7,21.7l0.5,1.8l0.5-1.8c2.7-10.7,11-19,21.7-21.7l1.8-0.5L208,91.7z"/>
		</g>
	</g>
	<g>
		<g>
			<path class="st5" d="M400.3,385.6c-10.7-2.7-19-11-21.7-21.7l-0.5-1.8l-0.5,1.8c-2.7,10.7-11,19-21.7,21.7l-1.8,0.5l1.8,0.5
				c10.7,2.7,19,11,21.7,21.7l0.5,1.8l0.5-1.8c2.7-10.7,11-19,21.7-21.7l1.8-0.5L400.3,385.6z"/>
		</g>
	</g>
	<g>
		<g>
			<path class="st5" d="M254.9,81.9c-6.3-1.6-11.1-6.5-12.7-12.7l-0.3-1.1l-0.3,1.1c-1.6,6.3-6.5,11.1-12.7,12.7l-1.1,0.3l1.1,0.3
				c6.3,1.6,11.1,6.5,12.7,12.7l0.3,1.1l0.3-1.1c1.6-6.3,6.4-11.1,12.7-12.7l1.1-0.3L254.9,81.9z"/>
		</g>
	</g>
</g>
</svg>
