<?xml version="1.0" encoding="utf-8"?>
<!-- Generator: Adobe Illustrator 21.1.0, SVG Export Plug-In . SVG Version: 6.00 Build 0)  -->
<svg version="1.1" id="Layer_1" xmlns="http://www.w3.org/2000/svg" xmlns:xlink="http://www.w3.org/1999/xlink" x="0px" y="0px"
	 viewBox="0 0 512 512" style="enable-background:new 0 0 512 512;" xml:space="preserve">
<style type="text/css">
	.st0{display:none;fill:#333333;}
	.st1{display:none;}
	.st2{display:inline;}
	.st3{fill:#EDF3FC;}
	.st4{fill:#330D84;}
	.st5{fill:#FFFFFF;}
	.st6{fill:#6857E5;}
	.st7{fill:#DDEAF7;}
</style>
<rect y="0" class="st0" width="512" height="512"/>
<g>
	<g class="st1">
		<g class="st2">
			<path class="st3" d="M256,40.9C137.2,40.9,40.9,137.2,40.9,256S137.2,471.1,256,471.1c118.8,0,215.1-96.3,215.1-215.1
				S374.8,40.9,256,40.9z"/>
		</g>
	</g>
	<g class="st1">
		<g class="st2">
			<path class="st3" d="M256,1C115.4,1,1,115.4,1,256c0,140.6,114.4,255,255,255c140.6,0,255-114.4,255-255C511,115.4,396.6,1,256,1
				z M256,502.8C119.9,502.8,9.2,392.1,9.2,256S119.9,9.2,256,9.2c136.1,0,246.8,110.7,246.8,246.8
				C502.8,392.1,392.1,502.8,256,502.8z"/>
		</g>
	</g>
	<g>
		<g>
			<path class="st4" d="M365.7,152H146.3c-13.9,0-25.2,11.3-25.2,25.1v157.8c0,13.9,11.3,25.2,25.2,25.2h219.5
				c13.9,0,25.1-11.3,25.1-25.2V177.1C390.9,163.2,379.6,152,365.7,152z"/>
		</g>
	</g>
	<g>
		<g>
			<circle class="st5" cx="300.4" cy="173.6" r="7.5"/>
		</g>
	</g>
	<g>
		<g>
			<path class="st5" d="M330.9,166.1c-4.1,0-7.5,3.4-7.5,7.5s3.4,7.5,7.5,7.5c4.1,0,7.5-3.4,7.5-7.5S335,166.1,330.9,166.1z"/>
		</g>
	</g>
	<g>
		<g>
			<circle class="st5" cx="361.3" cy="173.6" r="7.5"/>
		</g>
	</g>
	<g>
		<g>
			<path class="st6" d="M121.1,196.6v138.3c0,13.9,11.3,25.2,25.2,25.2h219.5c13.9,0,25.1-11.3,25.1-25.2V196.6H121.1z"/>
		</g>
	</g>
	<g>
		<g>
			<path class="st7" d="M254.1,110.4c-10.3-2.6-18.4-10.7-21-21l-0.4-1.8l-0.4,1.8c-2.6,10.3-10.7,18.4-21,21l-1.8,0.4l1.8,0.4
				c10.3,2.6,18.4,10.7,21,21l0.4,1.8l0.4-1.8c2.6-10.3,10.7-18.4,21-21l1.8-0.4L254.1,110.4z"/>
		</g>
	</g>
	<g>
		<g>
			<path class="st7" d="M171.9,125.8c-6.8-1.7-12-7-13.7-13.7l-0.3-1.2l-0.3,1.2c-1.7,6.8-7,12-13.7,13.7l-1.2,0.3l1.2,0.3
				c6.8,1.7,12,7,13.7,13.7l0.3,1.2l0.3-1.2c1.7-6.8,7-12,13.7-13.7l1.2-0.3L171.9,125.8z"/>
		</g>
	</g>
	<g>
		<g>
			<path class="st7" d="M339.5,391.8c-7.8-1.9-13.8-8-15.8-15.8l-0.3-1.3L323,376c-1.9,7.8-8,13.8-15.8,15.8l-1.3,0.3l1.3,0.3
				c7.8,1.9,13.8,8,15.8,15.8l0.3,1.3l0.3-1.3c1.9-7.8,8-13.8,15.8-15.8l1.3-0.3L339.5,391.8z"/>
		</g>
	</g>
	<g>
		<g>
			<path class="st7" d="M284.1,404.3c-13.5-3.4-24.1-14-27.5-27.5l-0.6-2.3l-0.6,2.3c-3.4,13.5-14,24.1-27.5,27.5l-2.3,0.6l2.3,0.6
				c13.5,3.4,24.1,14,27.5,27.5l0.6,2.3l0.6-2.3c3.4-13.5,14-24.1,27.5-27.5l2.3-0.6L284.1,404.3z"/>
		</g>
	</g>
	<g>
		<g>
			<polygon class="st5" points="195.7,219.3 174.7,229.2 174.7,235.1 195.7,245 195.7,238.6 181.8,232.1 195.7,225.7 			"/>
		</g>
	</g>
	<g>
		<g>
			<polygon class="st5" points="218.1,214.5 200,254 206.1,254 224.2,214.5 			"/>
		</g>
	</g>
	<g>
		<g>
			<polygon class="st5" points="228.5,219.3 228.5,225.7 242.4,232.1 228.5,238.6 228.5,245 249.5,235.1 249.5,229.2 			"/>
		</g>
	</g>
	<g>
		<g>
			<path class="st5" d="M251.2,269.4H173c-2.8,0-5,2.2-5,5s2.2,5,5,5h78.1c2.8,0,5-2.2,5-5C256.2,271.6,253.9,269.4,251.2,269.4z"/>
		</g>
	</g>
	<g>
		<g>
			<path class="st5" d="M251.2,290.2H173c-2.8,0-5,2.2-5,5s2.2,5,5,5h78.1c2.8,0,5-2.2,5-5C256.2,292.5,253.9,290.2,251.2,290.2z"/>
		</g>
	</g>
	<g>
		<g>
			<path class="st5" d="M251.2,311.1H173c-2.8,0-5,2.2-5,5s2.2,5,5,5h78.1c2.8,0,5-2.2,5-5C256.2,313.3,253.9,311.1,251.2,311.1z"/>
		</g>
	</g>
	<g>
		<g>
			<polygon class="st5" points="329.2,213.3 294.1,213.3 310,242.2 345.2,242.2 			"/>
		</g>
	</g>
	<g>
		<g>
			<polygon class="st5" points="294.1,213.3 277.7,242.2 294.1,271 310,242.2 			"/>
		</g>
	</g>
	<g>
		<g>
			<polygon class="st5" points="311.2,288.4 276.1,288.4 292,317.3 327.2,317.3 			"/>
		</g>
	</g>
	<g>
		<g>
			<polygon class="st5" points="327.2,259.6 311.2,288.4 327.2,317.3 343.6,288.4 			"/>
		</g>
	</g>
</g>
</svg>
