<?xml version="1.0" encoding="utf-8"?>
<!-- Generator: Adobe Illustrator 21.1.0, SVG Export Plug-In . SVG Version: 6.00 Build 0)  -->
<svg version="1.1" id="Layer_1" xmlns="http://www.w3.org/2000/svg" xmlns:xlink="http://www.w3.org/1999/xlink" x="0px" y="0px"
	 viewBox="0 0 160 160" style="enable-background:new 0 0 160 160;" xml:space="preserve">
<style type="text/css">
	.st0{display:none;fill:#FFFFFF;}
	.st1{display:none;}
	.st2{display:none;fill:#333333;}
	.st3{display:none;opacity:0.14;fill:#F2F4FF;enable-background:new    ;}
	.st4{fill:url(#SVGID_1_);enable-background:new    ;}
	.st5{display:none;opacity:0.2;enable-background:new    ;}
	.st6{fill:#1A1D22;enable-background:new    ;}
	.st7{display:none;fill:#F2F4FF;}
	.st8{fill:#888888;}
	.st9{display:none;fill:#787AFF;}
	.st10{fill:#36383F;enable-background:new    ;}
	.st11{display:inline;fill:#F2F4FF;}
	.st12{fill:#F2F4FF;}
	.st13{fill:none;}
	.st14{fill:#2094FA;}
	.st15{fill:#FF3B30;}
</style>
<rect class="st0" width="160" height="160"/>
<path class="st1" d="M30,18v124h72h6.7l-4-4H102H34V22h64v28h28v40h4V47.2L100.8,18H30z M102,24.8L123.2,46H102V24.8z M44,26
	c-1.1,0-2,0.9-2,2s0.9,2,2,2s2-0.9,2-2S45.1,26,44,26z M44,34c-1.1,0-2,0.9-2,2s0.9,2,2,2s2-0.9,2-2S45.1,34,44,34z M44,42
	c-1.1,0-2,0.9-2,2s0.9,2,2,2s2-0.9,2-2S45.1,42,44,42z M44,50c-1.1,0-2,0.9-2,2s0.9,2,2,2s2-0.9,2-2S45.1,50,44,50z M44,58
	c-1.1,0-2,0.9-2,2s0.9,2,2,2s2-0.9,2-2S45.1,58,44,58z M81.1,58c-2,0-3.9,1.1-4.8,2.7c-1,1.6-1.3,3.6-1.3,5.7c0,4.3,1.4,9.6,3.8,15
	c0.1,0.1,0.2,0.3,0.2,0.4c-0.4,1.2-0.7,2.3-1.1,3.4c-1.4,3.6-3,7.1-4.8,10.4c-2.9,1-5.6,2.1-8,3.4c-2.6,1.4-4.8,2.9-6.4,4.6
	c-1.6,1.7-2.8,3.8-2.8,6.1c0,2.3,2.1,4.2,4.6,4.2c2.3,0,4.3-1.1,6.2-2.7s3.7-3.7,5.5-6.3c1.2-1.8,2.4-3.9,3.5-6
	c2.7-0.9,5.6-1.7,8.5-2.4c1.5-0.3,2.9-0.5,4.4-0.7c0.1,0.1,0.1,0.2,0.2,0.2c4.3,4.1,9.6,7,15.5,7c1.7,0,3.4-0.2,4.9-1.1
	s2.6-2.7,2.6-4.6c0-2.2-1.5-3.9-3.3-4.9s-4.1-1.4-6.7-1.6c-3.4-0.3-7.4,0.1-11.6,0.7c-2.8-3-5.1-6.5-7-10.2c1.5-4.8,2.7-9.4,3-13.2
	c0.2-2.6,0.1-4.9-0.6-6.8C85.2,59.6,83.3,58,81.1,58z M81.1,62c0.7,0,0.7,0,1,0.9c0.4,0.9,0.5,2.7,0.3,5c-0.2,2.2-0.7,4.9-1.4,7.8
	c-1.2-3.5-2-6.8-2-9.3c0-1.7,0.3-3,0.7-3.6S80.3,62,81.1,62z M44,66c-1.1,0-2,0.9-2,2s0.9,2,2,2s2-0.9,2-2S45.1,66,44,66z M44,74
	c-1.1,0-2,0.9-2,2s0.9,2,2,2s2-0.9,2-2S45.1,74,44,74z M44,82c-1.1,0-2,0.9-2,2s0.9,2,2,2s2-0.9,2-2S45.1,82,44,82z M81.8,86.6
	c1.2,2.1,2.6,3.9,4.1,5.8c-0.8,0.1-1.5,0.2-2.3,0.4c-1.8,0.4-3.4,0.9-5.2,1.4C79.6,91.8,80.8,89.3,81.8,86.6
	C81.7,86.7,81.7,86.7,81.8,86.6z M44,90c-1.1,0-2,0.9-2,2s0.9,2,2,2s2-0.9,2-2S45.1,90,44,90z M98.3,95c1.2,0,2.4,0,3.4,0.1
	c2.3,0.2,4.1,0.6,5.1,1.1s1.1,0.8,1.1,1.3c0,0.8-0.1,0.9-0.6,1.2s-1.5,0.5-2.9,0.5c-3.6,0-6.9-1.7-10.1-4C95.8,95.1,97.1,95,98.3,95
	z M128,96c-1.1,0-2,0.9-2,2v36h-12c-0.8,0-1.5,0.5-1.8,1.2s-0.1,1.6,0.4,2.2l22,22c0.8,0.8,2,0.8,2.8,0l22-22
	c0.4-0.4,0.6-0.9,0.6-1.4c0-0.3-0.1-0.5-0.2-0.8c-0.3-0.7-1-1.2-1.8-1.2h-12V98c0-1.1-0.9-2-2-2H128z M44,98c-1.1,0-2,0.9-2,2
	s0.9,2,2,2s2-0.9,2-2S45.1,98,44,98z M130,100h12v38h11.2L136,155.2L118.8,138H130V100z M69.8,101.5c-0.2,0.4-0.5,0.9-0.7,1.2
	c-1.6,2.3-3.3,4.3-4.8,5.5s-2.8,1.8-3.7,1.8c-0.5,0-0.6-0.2-0.6-0.2c0-0.9,0.5-2,1.7-3.3s3.1-2.6,5.4-3.8
	C67.9,102.3,68.9,101.9,69.8,101.5z M44,106c-1.1,0-2,0.9-2,2s0.9,2,2,2s2-0.9,2-2S45.1,106,44,106z M44,114c-1.1,0-2,0.9-2,2
	s0.9,2,2,2s2-0.9,2-2S45.1,114,44,114z M44,122c-1.1,0-2,0.9-2,2s0.9,2,2,2s2-0.9,2-2S45.1,122,44,122z M44,130c-1.1,0-2,0.9-2,2
	s0.9,2,2,2s2-0.9,2-2S45.1,130,44,130z"/>
<path class="st1" d="M30,18v124h100V47.2L100.8,18H30z M34,22h64v28h28v88H34V22z M102,24.8L123.2,46H102V24.8z M44,26
	c-1.1,0-2,0.9-2,2s0.9,2,2,2s2-0.9,2-2S45.1,26,44,26z M44,34c-1.1,0-2,0.9-2,2s0.9,2,2,2s2-0.9,2-2S45.1,34,44,34z M44,42
	c-1.1,0-2,0.9-2,2s0.9,2,2,2s2-0.9,2-2S45.1,42,44,42z M44,50c-1.1,0-2,0.9-2,2s0.9,2,2,2s2-0.9,2-2S45.1,50,44,50z M44,58
	c-1.1,0-2,0.9-2,2s0.9,2,2,2s2-0.9,2-2S45.1,58,44,58z M44,66c-1.1,0-2,0.9-2,2s0.9,2,2,2s2-0.9,2-2S45.1,66,44,66z M44,74
	c-1.1,0-2,0.9-2,2s0.9,2,2,2s2-0.9,2-2S45.1,74,44,74z M44,82c-1.1,0-2,0.9-2,2s0.9,2,2,2s2-0.9,2-2S45.1,82,44,82z M75.9,83.5v16.9
	H83c5.1,0,7.9-3.1,7.9-8.6c0-5.3-2.9-8.3-7.9-8.3H75.9z M65.4,83.5H58v16.9h4.3v-5h2.9c3.8,0,6.4-2.4,6.4-5.9
	C71.5,85.9,69.1,83.5,65.4,83.5z M95.3,83.5v16.9h4.3v-6.3h6.5v-3.3h-6.5V87h7.2v-3.5H95.3z M62.3,86.8h2c1.8,0,2.9,0.9,2.9,2.7
	c0,1.8-1.1,2.7-2.9,2.7h-2C62.3,92.2,62.3,86.8,62.3,86.8z M80.2,87h2c2.7,0,4.3,1.8,4.3,4.9c0,3.4-1.5,5.1-4.3,5.1h-2V87z M44,90
	c-1.1,0-2,0.9-2,2s0.9,2,2,2s2-0.9,2-2S45.1,90,44,90z M44,98c-1.1,0-2,0.9-2,2s0.9,2,2,2s2-0.9,2-2S45.1,98,44,98z M44,106
	c-1.1,0-2,0.9-2,2s0.9,2,2,2s2-0.9,2-2S45.1,106,44,106z M44,114c-1.1,0-2,0.9-2,2s0.9,2,2,2s2-0.9,2-2S45.1,114,44,114z M44,122
	c-1.1,0-2,0.9-2,2s0.9,2,2,2s2-0.9,2-2S45.1,122,44,122z M44,130c-1.1,0-2,0.9-2,2s0.9,2,2,2s2-0.9,2-2S45.1,130,44,130z"/>
<rect class="st2" width="160" height="160"/>
<path class="st3" d="M30,18v124h100V47.2L100.8,18H30z"/>
<radialGradient id="SVGID_1_" cx="80" cy="80" r="56.3205" gradientUnits="userSpaceOnUse">
	<stop  offset="0" style="stop-color:#36383F"/>
	<stop  offset="1" style="stop-color:#1A1D22"/>
</radialGradient>
<polygon class="st4" points="114.8,138 118.8,138 126,138 126,100 130,100 130,47.2 100.8,18 30,18 30,142 118.8,142 "/>
<polygon class="st5" points="90.7,128 114.8,128 116,128 116,100 116,90 126,90 130,90 130,47.2 100.8,18 30,18 30,142 104.7,142 
	"/>
<path class="st6" d="M102,24.8L123.2,46H102V24.8z"/>
<path class="st7" d="M75.9,99.5v16.9H83c5.1,0,7.9-3.1,7.9-8.6c0-5.3-2.9-8.3-7.9-8.3H75.9z M65.4,99.5H58v16.9h4.3v-5h2.9
	c3.8,0,6.4-2.4,6.4-5.9C71.5,101.9,69.1,99.5,65.4,99.5z M95.3,99.5v16.9h4.3v-6.3h6.5v-3.3h-6.5V103h7.2v-3.5H95.3z M62.3,102.8h2
	c1.8,0,2.9,0.9,2.9,2.7c0,1.8-1.1,2.7-2.9,2.7h-2C62.3,108.2,62.3,102.8,62.3,102.8z M80.2,103h2c2.7,0,4.3,1.8,4.3,4.9
	c0,3.4-1.5,5.1-4.3,5.1h-2V103z"/>
<path class="st8" d="M100.8,18H30v124h72h2.7l-4-4H34V22h64v28h28v40h4V47.2L100.8,18z M102,46V24.8L123.2,46H102z"/>
<path class="st9" d="M26,18v124h72h6.7l-4-4H98H30V22h64v28h28v40h4V47.2L96.8,18H26z M98,24.8L119.2,46H98V24.8z"/>
<path class="st8" d="M44,26c-1.1,0-2,0.9-2,2s0.9,2,2,2s2-0.9,2-2S45.1,26,44,26z M44,34c-1.1,0-2,0.9-2,2s0.9,2,2,2s2-0.9,2-2
	S45.1,34,44,34z M44,42c-1.1,0-2,0.9-2,2s0.9,2,2,2s2-0.9,2-2S45.1,42,44,42z M44,50c-1.1,0-2,0.9-2,2s0.9,2,2,2s2-0.9,2-2
	S45.1,50,44,50z M44,58c-1.1,0-2,0.9-2,2s0.9,2,2,2s2-0.9,2-2S45.1,58,44,58z M44,66c-1.1,0-2,0.9-2,2s0.9,2,2,2s2-0.9,2-2
	S45.1,66,44,66z M44,74c-1.1,0-2,0.9-2,2s0.9,2,2,2s2-0.9,2-2S45.1,74,44,74z M44,82c-1.1,0-2,0.9-2,2s0.9,2,2,2s2-0.9,2-2
	S45.1,82,44,82z M44,90c-1.1,0-2,0.9-2,2s0.9,2,2,2s2-0.9,2-2S45.1,90,44,90z M44,98c-1.1,0-2,0.9-2,2s0.9,2,2,2s2-0.9,2-2
	S45.1,98,44,98z M44,106c-1.1,0-2,0.9-2,2s0.9,2,2,2s2-0.9,2-2S45.1,106,44,106z M44,114c-1.1,0-2,0.9-2,2s0.9,2,2,2s2-0.9,2-2
	S45.1,114,44,114z M44,122c-1.1,0-2,0.9-2,2s0.9,2,2,2s2-0.9,2-2S45.1,122,44,122z M44,130c-1.1,0-2,0.9-2,2s0.9,2,2,2s2-0.9,2-2
	S45.1,130,44,130z"/>
<path class="st10" d="M124,96c-1.1,0-2,0.9-2,2v36h-12c-0.8,0-1.5,0.5-1.8,1.2s-0.1,1.6,0.4,2.2l22,22c0.8,0.8,2,0.8,2.8,0l22-22
	c0.4-0.4,0.6-0.9,0.6-1.4c0-0.3-0.1-0.5-0.2-0.8c-0.3-0.7-1-1.2-1.8-1.2h-12V98c0-1.1-0.9-2-2-2H124z"/>
<path class="st8" d="M124,96c-1.1,0-2,0.9-2,2v36h-12c-0.8,0-1.5,0.5-1.8,1.2s-0.1,1.6,0.4,2.2l22,22c0.8,0.8,2,0.8,2.8,0l22-22
	c0.4-0.4,0.6-0.9,0.6-1.4c0-0.3-0.1-0.5-0.2-0.8c-0.3-0.7-1-1.2-1.8-1.2h-12V98c0-1.1-0.9-2-2-2H124z M126,100h12v38h11.2L132,155.2
	L114.8,138H126V100z"/>
<g class="st1">
	<polygon class="st11" points="102,102 102,98 94,98 90,98 90,102 90,106 90,110 90,118 94,118 94,110 102,110 102,106 94,106 
		94,102 	"/>
	<path class="st11" d="M64,98h-2h-4v4v4v4v8h4v-8h2c3.3,0,6-2.7,6-6S67.3,98,64,98z M64,106h-2v-4h2c1.1,0,2,0.9,2,2
		S65.1,106,64,106z"/>
	<path class="st11" d="M80,98h-2h-4v4v12v4h4h2c3.3,0,6-2.7,6-6v-8C86,100.7,83.3,98,80,98z M82,112c0,1.1-0.9,2-2,2h-2v-12h2
		c1.1,0,2,0.9,2,2V112z"/>
</g>
<g>
	<path class="st12" d="M102,105v-2c0-0.6-0.4-1-1-1h-7h-3c-0.6,0-1,0.4-1,1v3v4v4v7c0,0.6,0.4,1,1,1h2c0.6,0,1-0.4,1-1v-7h7
		c0.6,0,1-0.4,1-1v-2c0-0.6-0.4-1-1-1h-7v-4h7C101.6,106,102,105.6,102,105z"/>
	<path class="st12" d="M63.8,102H62h-3c-0.6,0-1,0.4-1,1v3v4v4v7c0,0.6,0.4,1,1,1h2c0.6,0,1-0.4,1-1v-7h2c3.6,0,6.4-3.2,5.9-6.8
		C69.5,104.2,66.8,102,63.8,102z M63.9,110H62v-4h2c1.2,0,2.2,1.1,2,2.3C65.8,109.3,64.9,110,63.9,110z"/>
	<path class="st12" d="M80,102h-2h-3c-0.6,0-1,0.4-1,1v3v12v3c0,0.6,0.4,1,1,1h3h2c3.3,0,6-2.7,6-6v-8C86,104.7,83.3,102,80,102z
		 M82,116c0,1.1-0.9,2-2,2h-2v-12h2c1.1,0,2,0.9,2,2V116z"/>
</g>
<g class="st1">
	<path class="st11" d="M102,100L102,100c0-1.1-0.9-2-2-2h-6h-2c-1.1,0-2,0.9-2,2v2v4v4v6c0,1.1,0.9,2,2,2l0,0c1.1,0,2-0.9,2-2v-6h6
		c1.1,0,2-0.9,2-2l0,0c0-1.1-0.9-2-2-2h-6v-4h6C101.1,102,102,101.1,102,100z"/>
	<path class="st11" d="M63.8,98H62h-2c-1.1,0-2,0.9-2,2v2v4v4v6c0,1.1,0.9,2,2,2l0,0c1.1,0,2-0.9,2-2v-6h2c3.6,0,6.4-3.2,5.9-6.8
		C69.5,100.2,66.8,98,63.8,98z M63.9,106H62v-4h2c1.2,0,2.2,1.1,2,2.3C65.8,105.3,64.9,106,63.9,106z"/>
	<path class="st11" d="M80,98h-2h-2c-1.1,0-2,0.9-2,2v2v12v2c0,1.1,0.9,2,2,2h2h2c3.3,0,6-2.7,6-6v-8C86,100.7,83.3,98,80,98z
		 M82,112c0,1.1-0.9,2-2,2h-2v-12h2c1.1,0,2,0.9,2,2V112z"/>
</g>
<rect x="57.4" y="69.4" class="st13" width="45.2" height="21"/>
<g>
	<path class="st14" d="M101.8,87.4h-3.5H82.7h-3.5l-0.8,1.5l0.4,0.8l0.4,0.8h22.5l0.4-0.8l0.4-0.8L101.8,87.4z M83.6,85.9h13.9h1.6
		l0.9-1.6l-0.8-1.4l-7.8-13.5h-1.7l-7.9,13.5L81,84.3l0.9,1.6H83.6z M90.5,73.9l5.2,9H85.3L90.5,73.9z"/>
</g>
<path class="st15" d="M69.5,69.4c-5.8,0-10.5,4.7-10.5,10.5s4.7,10.5,10.5,10.5S80,85.8,80,79.9S75.3,69.4,69.5,69.4z M69.5,87.4
	c-4.2,0-7.5-3.3-7.5-7.5s3.3-7.5,7.5-7.5s7.5,3.3,7.5,7.5S73.7,87.4,69.5,87.4z M69.5,73.9c-3.3,0-6,2.7-6,6s2.7,6,6,6s6-2.7,6-6
	S72.8,73.9,69.5,73.9z M69.5,82.9c-1.7,0-3-1.3-3-3s1.3-3,3-3s3,1.3,3,3S71.2,82.9,69.5,82.9z"/>
</svg>
