<?xml version="1.0" encoding="utf-8"?>
<!-- Generator: Adobe Illustrator 21.1.0, SVG Export Plug-In . SVG Version: 6.00 Build 0)  -->
<svg version="1.1" id="Layer_1" xmlns="http://www.w3.org/2000/svg" xmlns:xlink="http://www.w3.org/1999/xlink" x="0px" y="0px"
	 viewBox="0 0 512 512" style="enable-background:new 0 0 512 512;" xml:space="preserve">
<style type="text/css">
	.st0{display:none;fill:#333333;}
	.st1{display:none;fill:#444444;}
	.st2{opacity:0.14;}
	.st3{fill:#EDF3FC;}
	.st4{fill:#FFE37B;}
	.st5{fill:#FFBE1B;}
	.st6{display:none;}
	.st7{display:inline;}
	.st8{fill:#FFFFFF;}
	.st9{fill:#FFE620;}
	.st10{fill:#5D8EF9;}
	.st11{fill:#DDEAF7;}
	.st12{fill:#6857E5;}
	.st13{fill:#8AC9F9;}
	.st14{fill:#8C7BFD;}
	.st15{fill:#330D84;}
	.st16{fill:#5932AE;}
</style>
<rect class="st0" width="512" height="512"/>
<rect class="st1" width="512" height="512"/>
<g>
	<g class="st2">
		<g>
			<circle class="st3" cx="256" cy="256" r="215.1"/>
		</g>
	</g>
	<g class="st2">
		<g>
			<path class="st3" d="M256,1C115.4,1,1,115.4,1,256s114.4,255,255,255s255-114.4,255-255S396.6,1,256,1z M256,502.8
				C119.9,502.8,9.2,392.1,9.2,256S119.9,9.2,256,9.2S502.8,119.9,502.8,256S392.1,502.8,256,502.8z"/>
		</g>
	</g>
	<g>
		<g>
			<path class="st4" d="M220.2,122.1c0-4.6,0.6-9,1.7-13.2c-6.6-3.1-13.9-4.8-21.6-4.8c-28.1,0-50.9,22.8-50.9,50.9
				c0,14,5.6,26.6,14.8,35.8h72.3c6.1-6.2,10.7-14,13-22.7C232.1,160,220.2,142.4,220.2,122.1z"/>
		</g>
	</g>
	<g>
		<g>
			<path class="st5" d="M220.2,122.3c-5.8-3.5-12.6-5.6-19.9-5.6c-21.1,0-38.2,17.1-38.2,38.2c0,16.4,10.4,30.4,24.9,35.8h26.5
				c12.8-4.7,22.4-16.2,24.5-30C227.2,151.5,220.3,137.7,220.2,122.3z"/>
		</g>
	</g>
	<g class="st6">
		<g class="st7">
			<path class="st8" d="M215.7,157.3c-1.4-1.6-3.2-2.6-5.5-3.1c0.6-0.3,1.1-0.5,1.3-0.6c0.3-0.1,0.7-0.4,1.3-0.9
				c1.9-1.4,2.8-3.6,2.8-6.5c0-2.4-0.8-4.6-2.5-6.5c-0.9-1-2.3-1.8-4.1-2.4c-0.5-0.2-1.1-0.3-1.7-0.4v-4.7h-6.5v4.3h-4.4v-4.3H190
				v4.3h-1.8h-5.3v7h5.3v23.1h-5.3v7h5.3h1.8v4.3h6.5v-4.3h4.4v4.3h6.5v-4.4c3.5-0.4,6.1-1.5,7.8-3.3c1.8-2,2.7-4.3,2.7-6.8
				C217.7,160.9,217,158.9,215.7,157.3z M196.4,143.4h4c2.4,0,4.2,0.3,5.2,0.8s1.5,1.6,1.5,3.3c0,1.6-0.6,2.7-1.7,3.2
				c-1.1,0.5-2.8,0.7-5.1,0.7h-3.9V143.4z M207.4,165.6c-1.2,0.6-3,0.9-5.3,0.9h-5.7V158h4.9c2.8,0,4.8,0.3,6,0.8
				c1.3,0.5,1.9,1.7,1.9,3.4C209.2,163.9,208.6,165,207.4,165.6z"/>
		</g>
	</g>
	<g>
		<g>
			<path class="st9" d="M115.4,211.1c-10.3-2.6-18.4-10.7-21-21l-0.4-1.8l-0.4,1.8c-2.6,10.3-10.7,18.4-21,21l-1.8,0.4l1.8,0.4
				c10.3,2.6,18.4,10.7,21,21l0.4,1.8l0.4-1.8c2.6-10.3,10.7-18.4,21-21l1.8-0.4L115.4,211.1z"/>
		</g>
	</g>
	<g>
		<g>
			<path class="st9" d="M124.7,163.2c-7.4-1.8-13.1-7.6-15-15l-0.3-1.3l-0.3,1.3c-1.9,7.4-7.6,13.1-15,15l-1.3,0.3l1.3,0.3
				c7.4,1.8,13.1,7.6,15,15l0.3,1.3l0.3-1.3c1.9-7.4,7.6-13.1,15-15l1.3-0.3L124.7,163.2z"/>
		</g>
	</g>
	<g>
		<g>
			<path class="st10" d="M427.4,266c-7.8-1.9-13.8-8-15.8-15.8l-0.3-1.3l-0.3,1.3c-1.9,7.8-8,13.8-15.8,15.8l-1.3,0.3l1.3,0.3
				c7.8,1.9,13.8,8,15.8,15.8l0.3,1.3l0.3-1.3c1.9-7.8,8-13.8,15.8-15.8l1.3-0.3L427.4,266z"/>
		</g>
	</g>
	<g>
		<g>
			<path class="st11" d="M371.8,111.5c-8.6-2.2-15.4-8.9-17.6-17.6l-0.4-1.5l-0.4,1.5c-2.2,8.6-8.9,15.4-17.6,17.6l-1.5,0.4l1.5,0.4
				c8.7,2.2,15.4,8.9,17.6,17.6l0.4,1.5l0.4-1.5c2.2-8.6,8.9-15.4,17.6-17.6l1.5-0.4L371.8,111.5z"/>
		</g>
	</g>
	<g>
		<g>
			<path class="st12" d="M297.8,200.2c0-3.2,0.3-6.4,0.9-9.4H155.5c-13.7,0-24.8,10.9-25.1,24.5c0.1,1.1,1.6,9.2,11.5,14.4
				c6.6,3.5,17.4,3.4,22.4,3.4h145.6C302.4,224.3,297.8,212.8,297.8,200.2z"/>
		</g>
	</g>
	<g>
		<g>
			<path class="st13" d="M348.7,149.3c-28.1,0-50.9,22.8-50.9,50.9c0,12.6,4.6,24.1,12.1,33h46.5c8.1,0,15.3,3.8,19.9,9.8
				c14-9.1,23.2-24.8,23.2-42.7C399.6,172.1,376.8,149.3,348.7,149.3z"/>
		</g>
	</g>
	<g>
		<g>
			<path class="st10" d="M348.7,162c-21.1,0-38.2,17.1-38.2,38.2c0,14,7.6,26.3,18.9,33h27.1c3,0,6,0.5,8.7,1.5
				c12.9-6.1,21.8-19.3,21.8-34.5C386.9,179.1,369.8,162,348.7,162z"/>
		</g>
	</g>
	<path class="st8" d="M348.7,174.5L333,198.4l15.7,11.5l15.7-11.5L348.7,174.5z M348.7,213.9L333,201.6l15.7,24.3l15.7-24.3
		L348.7,213.9z"/>
	<g>
		<g>
			<path class="st14" d="M356.5,233.2H164.4c-5.1,0-15.8,0-22.4-3.4c-10.7-5.6-11.5-14.6-11.5-14.6V381c0,13.9,11.3,25.1,25.2,25.1
				h200.9c13.9,0,25.1-11.3,25.1-25.1V258.3C381.6,244.4,370.4,233.2,356.5,233.2z"/>
		</g>
	</g>
	<g>
		<g>
			<path class="st13" d="M313.7,294.6c-6.2,0-11.3,5-11.3,11.3V333c0,6.2,5,11.3,11.3,11.3h68v-49.7L313.7,294.6L313.7,294.6z"/>
		</g>
	</g>
	<g>
		<g>
			<path class="st4" d="M324.3,308.2c-6.2,0-11.2,5-11.2,11.2s5,11.2,11.2,11.2s11.2-5,11.2-11.2
				C335.4,313.2,330.4,308.2,324.3,308.2z"/>
		</g>
	</g>
	<g>
		<g>
			<path class="st15" d="M271.1,71.2c-28.1,0-50.9,22.8-50.9,50.9S243,173,271.1,173s50.9-22.8,50.9-50.9
				C322,93.9,299.2,71.2,271.1,71.2z"/>
		</g>
	</g>
	<g>
		<g>
			<path class="st16" d="M271.1,83.9c-21.1,0-38.2,17.1-38.2,38.2s17.1,38.2,38.2,38.2s38.2-17.1,38.2-38.2
				C309.3,101,292.2,83.9,271.1,83.9z"/>
		</g>
	</g>
	<g>
		<g>
			<path class="st14" d="M271.1,71.2c-28.1,0-50.9,22.8-50.9,50.9S243,173,271.1,173s50.9-22.8,50.9-50.9
				C322,93.9,299.2,71.2,271.1,71.2z"/>
		</g>
	</g>
	<g>
		<g>
			<path class="st12" d="M271.1,83.9c-21.1,0-38.2,17.1-38.2,38.2s17.1,38.2,38.2,38.2s38.2-17.1,38.2-38.2
				C309.3,101,292.2,83.9,271.1,83.9z"/>
		</g>
	</g>
	<g class="st6">
		<g class="st7">
			<polygon class="st8" points="292.2,132.2 292.2,105 271.1,126.7 249.9,105 249.9,132.2 243.5,132.2 243.5,139.1 256.8,139.1 
				256.8,122 271.1,136.6 285.3,122 285.3,139.1 298.6,139.1 298.6,132.2 			"/>
		</g>
	</g>
	<g>
		<g>
			<path class="st8" d="M251.4,308.3c-6.7,0-12.3,4.7-13.7,11.1h-25.6l-19.2-21.9h-62.5v5.9h59.8l19.2,21.9h28.3
				c1.3,6.3,7,11.1,13.7,11.1c7.7,0,14-6.3,14-14C265.4,314.6,259.1,308.3,251.4,308.3z M251.4,330.4c-3.5,0-6.4-2.2-7.6-5.2h2.8
				c1,1.6,2.7,2.7,4.8,2.7c3.1,0,5.6-2.5,5.6-5.6s-2.5-5.6-5.6-5.6c-2,0-3.8,1.1-4.8,2.7h-2.8c1.2-3,4.1-5.2,7.6-5.2
				c4.5,0,8.1,3.6,8.1,8.1S255.9,330.4,251.4,330.4z"/>
		</g>
	</g>
	<g>
		<g>
			<path class="st8" d="M350.9,365.7l-9.7-5.9H227.3l-15.3,22h-25.4c-1.3-6.3-7-11.1-13.7-11.1c-7.7,0-14,6.3-14,14s6.3,14,14,14
				c6.7,0,12.3-4.7,13.7-11.1H215l15.3-21.9h109.2l9.7,5.9h32.3v-5.9H350.9L350.9,365.7z M172.9,390.3c2,0,3.8-1.1,4.8-2.7h2.8
				c-1.2,3-4.1,5.2-7.6,5.2c-4.5,0-8.1-3.6-8.1-8.1s3.6-8.1,8.1-8.1c3.5,0,6.4,2.2,7.6,5.2h-2.8c-1-1.6-2.7-2.7-4.8-2.7
				c-3.1,0-5.6,2.5-5.6,5.6C167.3,387.8,169.8,390.3,172.9,390.3z"/>
		</g>
	</g>
	<g>
		<g>
			<path class="st8" d="M198.8,334.3c-2,0-3.8,1.1-4.8,2.7h-27.9l-5.6,11.2h-30.1v5.9h33.7l5.6-11.2H194c1,1.6,2.7,2.7,4.8,2.7
				c3.1,0,5.6-2.5,5.6-5.6S201.8,334.3,198.8,334.3z"/>
		</g>
	</g>
	<g>
		<g>
			<path class="st8" d="M276.7,250.4c-2,0-3.8,1.1-4.8,2.7h-20.6l-11.7-5.9h-81.4l-5.6,11.2h-22.3v5.9h25.9l5.6-11.2h76.4l11.7,5.9
				h22c1,1.6,2.7,2.7,4.8,2.7c3.1,0,5.6-2.5,5.6-5.6C282.3,252.9,279.8,250.4,276.7,250.4z"/>
		</g>
	</g>
	<g>
		<g>
			<path class="st8" d="M301.5,265.4l-11,21.4h-47l-19.2-15.1h-36.9c-1-1.6-2.7-2.7-4.8-2.7c-3.1,0-5.6,2.5-5.6,5.6s2.5,5.6,5.6,5.6
				c2,0,3.8-1.1,4.8-2.7h34.9l19.2,15.1h52.6l11-21.4h76.5v-5.9L301.5,265.4L301.5,265.4z"/>
		</g>
	</g>
	<path class="st8" d="M271.1,96.4l-15.7,23.9l15.7,11.5l15.7-11.5L271.1,96.4z M271.1,135.8l-15.7-12.3l15.7,24.3l15.7-24.3
		L271.1,135.8z"/>
	<path class="st8" d="M200.3,129.3l-15.7,23.9l15.7,11.5l15.7-11.5L200.3,129.3z M200.3,168.7l-15.7-12.3l15.7,24.3l15.7-24.3
		L200.3,168.7z"/>
</g>
</svg>
