<?xml version="1.0" encoding="utf-8"?>
<!-- Generator: Adobe Illustrator 21.1.0, SVG Export Plug-In . SVG Version: 6.00 Build 0)  -->
<svg version="1.1" id="Layer_1" xmlns="http://www.w3.org/2000/svg" xmlns:xlink="http://www.w3.org/1999/xlink" x="0px" y="0px"
	 viewBox="0 0 512 512" style="enable-background:new 0 0 512 512;" xml:space="preserve">
<style type="text/css">
	.st0{opacity:0.14;}
	.st1{fill:#EDF3FC;}
	.st2{fill:#DDEAF7;}
	.st3{display:none;}
	.st4{display:inline;}
	.st5{fill:#330D84;}
	.st6{fill:#8AC9F9;}
	.st7{fill:#5D8EF9;}
	.st8{fill:#FFFFFF;}
	.st9{fill:#FFBE1B;}
	.st10{fill:#FFE37B;}
	.st11{fill:#FFE620;}
</style>
<g>
	<g class="st0">
		<g>
			<path class="st1" d="M256,40.9C137.2,40.9,40.9,137.2,40.9,256S137.2,471.1,256,471.1S471.1,374.8,471.1,256S374.8,40.9,256,40.9
				z"/>
		</g>
	</g>
	<g class="st0">
		<g>
			<path class="st1" d="M256,1C115.4,1,1,115.4,1,256s114.4,255,255,255s255-114.4,255-255S396.6,1,256,1z M256,502.8
				C119.9,502.8,9.2,392.1,9.2,256S119.9,9.2,256,9.2S502.8,119.9,502.8,256S392.1,502.8,256,502.8z"/>
		</g>
	</g>
	<g>
		<g>
			<path class="st2" d="M180.9,251h-25.3c0.2,1.6,0.3,3.3,0.3,5c0,1.7-0.1,3.4-0.3,5h25.3c-0.1-1.7-0.2-3.3-0.2-5
				C180.7,254.3,180.8,252.7,180.9,251z"/>
		</g>
	</g>
	<g>
		<g>
			<path class="st2" d="M356.4,251h-25.3c0.1,1.7,0.2,3.3,0.2,5c0,1.7-0.1,3.3-0.2,5h25.3c-0.2-1.6-0.3-3.3-0.3-5
				C356.1,254.3,356.2,252.6,356.4,251z"/>
		</g>
	</g>
	<g class="st3">
		<g class="st4">
			<path class="st5" d="M256,155.6c-1.7,0-3.4-0.1-5-0.3v25.6c1.7-0.1,3.3-0.2,5-0.2c1.7,0,3.3,0.1,5,0.2v-25.6
				C259.4,155.5,257.7,155.6,256,155.6z"/>
		</g>
	</g>
	<g class="st3">
		<g class="st4">
			<path class="st5" d="M256,331.3c-1.7,0-3.3-0.1-5-0.2v25.6c1.6-0.2,3.3-0.3,5-0.3c1.7,0,3.4,0.1,5,0.3v-25.6
				C259.3,331.2,257.7,331.3,256,331.3z"/>
		</g>
	</g>
	<g>
		<g>
			<path class="st6" d="M256,180.7c-41.6,0-75.3,33.7-75.3,75.3s33.7,75.3,75.3,75.3s75.3-33.7,75.3-75.3S297.6,180.7,256,180.7z"/>
		</g>
	</g>
	<g>
		<g>
			<path class="st7" d="M256,199.5c-31.2,0-56.5,25.3-56.5,56.5s25.3,56.5,56.5,56.5s56.5-25.3,56.5-56.5S287.2,199.5,256,199.5z"/>
		</g>
	</g>
	<g>
		<g>
			<polygon class="st8" points="256,218 232.8,253.4 256,270.5 279.2,253.4 			"/>
		</g>
	</g>
	<g>
		<g>
			<polygon class="st8" points="256,276.3 232.8,258 256,294 279.2,258 			"/>
		</g>
	</g>
	<g class="st3">
		<g class="st4">
			<path class="st9" d="M256,76c-22,0-39.8,17.8-39.8,39.8s17.8,39.8,39.8,39.8s39.8-17.8,39.8-39.8C295.8,93.9,278,76,256,76z"/>
		</g>
	</g>
	<g class="st3">
		<g class="st4">
			<path class="st10" d="M256,86c-16.5,0-29.9,13.4-29.9,29.9s13.4,29.9,29.9,29.9s29.9-13.4,29.9-29.9C285.9,99.3,272.5,86,256,86z
				"/>
		</g>
	</g>
	<g class="st3">
		<g class="st4">
			<polygon class="st8" points="256,95.8 243.7,114.4 256,123.5 268.2,114.4 			"/>
		</g>
	</g>
	<g class="st3">
		<g class="st4">
			<polygon class="st8" points="256,126.5 243.7,116.9 256,135.9 268.2,116.9 			"/>
		</g>
	</g>
	<g class="st3">
		<g class="st4">
			<path class="st9" d="M256,356.4c-22,0-39.8,17.8-39.8,39.8S234,436,256,436s39.8-17.8,39.8-39.8C295.8,374.2,278,356.4,256,356.4
				z"/>
		</g>
	</g>
	<g class="st3">
		<g class="st4">
			<path class="st10" d="M256,366.3c-16.5,0-29.9,13.4-29.9,29.9s13.4,29.9,29.9,29.9s29.9-13.4,29.9-29.9
				C285.9,379.7,272.5,366.3,256,366.3z"/>
		</g>
	</g>
	<g class="st3">
		<g class="st4">
			<polygon class="st8" points="256,376.1 243.7,394.8 256,403.8 268.2,394.8 			"/>
		</g>
	</g>
	<g class="st3">
		<g class="st4">
			<polygon class="st8" points="256,406.9 243.7,397.2 256,416.2 268.2,397.2 			"/>
		</g>
	</g>
	<g class="st3">
		<g class="st4">
			<path class="st5" d="M215.6,121.8c-0.9-2.6-3.7-4-6.3-3.1c-1.9,0.7-3.9,1.4-5.8,2.1c-2.6,1-3.8,3.9-2.8,6.5
				c0.8,2,2.7,3.2,4.7,3.2c0.6,0,1.2-0.1,1.8-0.3c1.8-0.7,3.6-1.4,5.4-2C215.1,127.3,216.5,124.4,215.6,121.8z"/>
		</g>
	</g>
	<g class="st3">
		<g class="st4">
			<path class="st5" d="M143.3,172.8c-2.3-1.6-5.4-1-7,1.3c-2.3,3.4-4.5,7-6.6,10.5c-1.4,2.4-0.5,5.5,1.9,6.8
				c0.8,0.4,1.6,0.6,2.5,0.6c1.7,0,3.4-0.9,4.4-2.5c1.9-3.3,3.9-6.6,6.1-9.8C146.1,177.5,145.5,174.4,143.3,172.8z M191.5,131.6
				c-1.4-2.4-4.4-3.3-6.8-1.9c-3.6,2-7.1,4.2-10.5,6.6c-2.3,1.6-2.9,4.7-1.3,7c1,1.4,2.5,2.2,4.1,2.2c1,0,2-0.3,2.8-0.9
				c3.2-2.2,6.5-4.2,9.8-6.1C192,137.1,192.9,134,191.5,131.6z M158,149.2c-3,2.8-6,5.7-8.8,8.8c-1.9,2-1.7,5.2,0.3,7.1
				c1,0.9,2.2,1.3,3.4,1.3c1.4,0,2.7-0.5,3.7-1.6c2.6-2.8,5.3-5.6,8.2-8.2c2-1.9,2.2-5,0.3-7.1S160,147.3,158,149.2z"/>
		</g>
	</g>
	<g class="st3">
		<g class="st4">
			<path class="st5" d="M127.3,200.5c-2.6-1-5.5,0.3-6.5,2.8c-0.7,1.9-1.5,3.9-2.1,5.8c-0.9,2.6,0.5,5.5,3.1,6.3
				c0.5,0.2,1.1,0.3,1.6,0.3c2.1,0,4-1.3,4.7-3.4c0.6-1.8,1.3-3.7,2-5.4C131.2,204.4,129.9,201.6,127.3,200.5z"/>
		</g>
	</g>
	<g class="st3">
		<g class="st4">
			<path class="st5" d="M393.3,209.2c-0.7-2-1.4-3.9-2.1-5.8c-1-2.6-3.9-3.8-6.5-2.8s-3.8,3.9-2.8,6.5c0.7,1.8,1.4,3.6,2,5.4
				c0.7,2.1,2.7,3.4,4.7,3.4c0.5,0,1.1-0.1,1.6-0.3C392.8,214.7,394.2,211.8,393.3,209.2z"/>
		</g>
	</g>
	<g class="st3">
		<g class="st4">
			<path class="st5" d="M354,149.2c-2-1.9-5.2-1.7-7.1,0.3s-1.7,5.2,0.3,7.1c2.8,2.6,5.6,5.4,8.2,8.2c1,1.1,2.3,1.6,3.7,1.6
				c1.2,0,2.4-0.4,3.4-1.3c2-1.9,2.2-5,0.3-7.1C360,154.9,357.1,152,354,149.2z M337.9,136.3c-3.4-2.3-7-4.5-10.5-6.6
				c-2.4-1.4-5.5-0.5-6.8,1.9c-1.4,2.4-0.5,5.5,1.9,6.8c3.3,1.9,6.6,3.9,9.8,6.1c0.9,0.6,1.8,0.9,2.8,0.9c1.6,0,3.2-0.8,4.1-2.2
				C340.7,141,340.1,137.9,337.9,136.3z M382.3,184.7c-2-3.6-4.2-7.1-6.6-10.5c-1.6-2.3-4.7-2.9-7-1.3c-2.3,1.6-2.9,4.7-1.3,7
				c2.2,3.2,4.2,6.5,6.1,9.8c0.9,1.6,2.6,2.5,4.4,2.5c0.8,0,1.7-0.2,2.5-0.6C382.8,190.1,383.6,187.1,382.3,184.7z"/>
		</g>
	</g>
	<g class="st3">
		<g class="st4">
			<path class="st5" d="M308.6,120.8c-1.9-0.8-3.9-1.5-5.8-2.1c-2.6-0.9-5.5,0.5-6.3,3.1s0.5,5.5,3.1,6.3c1.8,0.6,3.6,1.3,5.4,2
				c0.6,0.2,1.2,0.3,1.8,0.3c2,0,3.9-1.2,4.7-3.2C312.5,124.7,311.2,121.8,308.6,120.8z"/>
		</g>
	</g>
	<g class="st3">
		<g class="st4">
			<path class="st5" d="M130.2,305c-0.7-1.8-1.4-3.6-2-5.4c-0.9-2.6-3.7-4-6.3-3.1c-2.6,0.9-4,3.7-3.1,6.3c0.7,2,1.4,3.9,2.1,5.8
				c0.8,2,2.7,3.2,4.7,3.2c0.6,0,1.2-0.1,1.8-0.3C129.9,310.4,131.2,307.5,130.2,305z"/>
		</g>
	</g>
	<g class="st3">
		<g class="st4">
			<path class="st5" d="M138.4,322.4c-1.4-2.4-4.4-3.2-6.8-1.9c-2.4,1.4-3.2,4.4-1.9,6.8c2,3.6,4.2,7.1,6.6,10.5
				c1,1.4,2.5,2.2,4.1,2.2c1,0,2-0.3,2.8-0.9c2.3-1.6,2.9-4.7,1.3-7C142.4,329,140.3,325.7,138.4,322.4z M156.5,347.3
				c-1.9-2-5-2.2-7.1-0.3c-2,1.9-2.2,5-0.3,7.1c2.8,3,5.7,6,8.8,8.8c1,0.9,2.2,1.3,3.4,1.3c1.4,0,2.7-0.5,3.7-1.6
				c1.9-2,1.7-5.2-0.3-7.1C161.9,352.9,159.1,350.1,156.5,347.3z M189.6,373.6c-3.3-1.9-6.6-4-9.8-6.1c-2.3-1.6-5.4-1-7,1.3
				s-1,5.4,1.3,7c3.4,2.3,6.9,4.5,10.5,6.6c0.8,0.4,1.6,0.6,2.5,0.6c1.7,0,3.4-0.9,4.4-2.5C192.9,378,192,374.9,189.6,373.6z"/>
		</g>
	</g>
	<g class="st3">
		<g class="st4">
			<path class="st5" d="M212.5,383.8c-1.8-0.6-3.6-1.3-5.4-2c-2.6-1-5.5,0.3-6.5,2.8c-1,2.6,0.3,5.5,2.8,6.5
				c1.9,0.7,3.9,1.5,5.8,2.1c0.5,0.2,1.1,0.3,1.6,0.3c2.1,0,4-1.3,4.7-3.4C216.5,387.6,215.1,384.7,212.5,383.8z"/>
		</g>
	</g>
	<g class="st3">
		<g class="st4">
			<path class="st5" d="M311.5,384.7c-1-2.6-3.9-3.8-6.5-2.8c-1.8,0.7-3.6,1.4-5.4,2c-2.6,0.9-4,3.7-3.1,6.3
				c0.7,2.1,2.7,3.4,4.7,3.4c0.5,0,1.1-0.1,1.6-0.3c2-0.7,3.9-1.4,5.8-2.1C311.2,390.2,312.5,387.3,311.5,384.7z"/>
		</g>
	</g>
	<g class="st3">
		<g class="st4">
			<path class="st5" d="M332.2,367.5c-3.2,2.2-6.5,4.2-9.8,6.1c-2.4,1.4-3.2,4.4-1.9,6.8c0.9,1.6,2.6,2.5,4.4,2.5
				c0.8,0,1.7-0.2,2.5-0.6c3.6-2,7.1-4.2,10.5-6.6c2.3-1.6,2.9-4.7,1.3-7C337.6,366.5,334.5,365.9,332.2,367.5z M380.4,320.5
				c-2.4-1.4-5.5-0.5-6.8,1.9c-1.9,3.3-4,6.6-6.1,9.8c-1.6,2.3-1,5.4,1.3,7c0.9,0.6,1.8,0.9,2.8,0.9c1.6,0,3.2-0.8,4.1-2.2
				c2.3-3.4,4.5-7,6.6-10.5C383.6,324.9,382.8,321.9,380.4,320.5z M355.5,347.3c-2.6,2.8-5.3,5.6-8.2,8.2c-2,1.9-2.2,5-0.3,7.1
				c1,1.1,2.3,1.6,3.7,1.6c1.2,0,2.4-0.4,3.4-1.3c3-2.8,6-5.7,8.8-8.8c1.9-2,1.7-5.2-0.3-7.1C360.5,345.1,357.3,345.2,355.5,347.3z"
				/>
		</g>
	</g>
	<g class="st3">
		<g class="st4">
			<path class="st5" d="M390.2,296.4c-2.6-0.9-5.5,0.5-6.3,3.1c-0.6,1.8-1.3,3.7-2,5.4c-1,2.6,0.3,5.5,2.8,6.5
				c0.6,0.2,1.2,0.3,1.8,0.3c2,0,3.9-1.2,4.7-3.2c0.7-1.9,1.5-3.9,2.1-5.8C394.2,300.2,392.8,297.3,390.2,296.4z"/>
		</g>
	</g>
	<g>
		<g>
			<path class="st10" d="M116.1,216.2c-22,0-39.8,17.8-39.8,39.8s17.8,39.8,39.8,39.8s39.8-17.8,39.8-39.8
				C155.9,234,138.1,216.2,116.1,216.2z"/>
		</g>
	</g>
	<g>
		<g>
			<path class="st9" d="M116.1,226.1c-16.5,0-29.9,13.4-29.9,29.9s13.4,29.9,29.9,29.9S146,272.5,146,256S132.6,226.1,116.1,226.1z"
				/>
		</g>
	</g>
	<g>
		<g>
			<polygon class="st8" points="116.1,235.9 103.9,254.6 116.1,263.6 128.4,254.6 			"/>
		</g>
	</g>
	<g>
		<g>
			<polygon class="st8" points="116.1,266.7 103.9,257.1 116.1,276.1 128.4,257.1 			"/>
		</g>
	</g>
	<g>
		<g>
			<path class="st10" d="M395.9,216.2c-22,0-39.8,17.8-39.8,39.8s17.8,39.8,39.8,39.8s39.8-17.8,39.8-39.8
				C435.7,234,417.9,216.2,395.9,216.2z"/>
		</g>
	</g>
	<g>
		<g>
			<path class="st9" d="M395.9,226.1c-16.5,0-29.9,13.4-29.9,29.9s13.4,29.9,29.9,29.9s29.9-13.4,29.9-29.9S412.4,226.1,395.9,226.1
				z"/>
		</g>
	</g>
	<g>
		<g>
			<polygon class="st8" points="395.9,235.9 383.6,254.6 395.9,263.6 408.1,254.6 			"/>
		</g>
	</g>
	<g>
		<g>
			<polygon class="st8" points="395.9,266.7 383.6,257.1 395.9,276.1 408.1,257.1 			"/>
		</g>
	</g>
	<g>
		<g>
			<path class="st2" d="M361.8,143.6c-9.6-2.4-17.1-9.9-19.5-19.5l-0.4-1.6l-0.4,1.6c-2.4,9.6-9.9,17.1-19.5,19.5l-1.6,0.4l1.6,0.4
				c9.6,2.4,17.1,9.9,19.5,19.5l0.4,1.6l0.4-1.6c2.4-9.6,9.9-17.1,19.5-19.5l1.6-0.4L361.8,143.6z"/>
		</g>
	</g>
	<g>
		<g>
			<path class="st2" d="M389,174.4c-6.1-1.5-10.9-6.3-12.4-12.4l-0.3-1l-0.3,1c-1.5,6.1-6.3,10.9-12.4,12.4l-1,0.3l1,0.3
				c6.1,1.5,10.9,6.3,12.4,12.4l0.3,1l0.3-1c1.5-6.1,6.3-10.9,12.4-12.4l1-0.3L389,174.4z"/>
		</g>
	</g>
	<g>
		<g>
			<path class="st11" d="M217.5,381.5c-8.8-2.2-15.7-9.1-17.9-17.9l-0.4-1.5l-0.4,1.5c-2.2,8.8-9.1,15.7-17.9,17.9l-1.5,0.4l1.5,0.4
				c8.8,2.2,15.7,9.1,17.9,17.9l0.4,1.5l0.4-1.5c2.2-8.8,9.1-15.7,17.9-17.9l1.5-0.4L217.5,381.5z"/>
		</g>
	</g>
	<g>
		<g>
			<path class="st7" d="M167.9,168.1c-6.5-1.6-11.6-6.7-13.2-13.2l-0.3-1.1l-0.3,1.1c-1.6,6.5-6.7,11.6-13.2,13.2l-1.1,0.3l1.1,0.3
				c6.5,1.6,11.6,6.7,13.2,13.2l0.3,1.1l0.3-1.1c1.6-6.5,6.7-11.6,13.2-13.2l1.1-0.3L167.9,168.1z"/>
		</g>
	</g>
	<g>
		<g>
			<path class="st7" d="M192.9,145.9c-4.2-1-7.4-4.3-8.5-8.5l-0.2-0.7l-0.2,0.7c-1,4.2-4.3,7.5-8.5,8.5l-0.7,0.2l0.7,0.2
				c4.2,1,7.5,4.3,8.5,8.5l0.2,0.7l0.2-0.7c1.1-4.2,4.3-7.4,8.5-8.5l0.7-0.2L192.9,145.9z"/>
		</g>
	</g>
</g>
</svg>
